<svg xmlns="http://www.w3.org/2000/svg" xmlns:xlink="http://www.w3.org/1999/xlink" xmlns:lucid="lucid" width="1220" height="1180"><g transform="translate(-319.9000000000019 -66.26666666666688)" lucid:page-tab-id="0_0"><path d="M1059.9 271.27c0-2.76 2.24-5 5-5h150c2.76 0 5 2.24 5 5v60c0 2.76-2.24 5-5 5h-150c-2.76 0-5-2.24-5-5z" stroke="#000" stroke-opacity="0" fill="#ff6b49"/><use xlink:href="#a" transform="matrix(1,0,0,1,1064.900000000002,271.2666666666669) translate(31.599999999999994 33.15)"/><use xlink:href="#b" transform="matrix(1,0,0,1,1064.900000000002,271.2666666666669) translate(82.55 33.15)"/><path d="M879.9 271.27c0-2.76 2.24-5 5-5h90c2.76 0 5 2.24 5 5v60c0 2.76-2.24 5-5 5h-90c-2.76 0-5-2.24-5-5z" stroke="#000" stroke-opacity="0" fill="#2535a0"/><use xlink:href="#c" transform="matrix(1,0,0,1,884.9000000000019,271.2666666666669) translate(20.4 33.15)"/><path d="M929.74 336.77v2m0 4.03v4.03m0 4.03v4.02m0 4.03v4.03m0 4.03v4.02m0 4.03v4.03m0 4.03v4.03m0 4v4.04m0 4.02v4.03m0 4v4.04m0 4.02v4.03m0 4.02v4.02m0 4.03v4.02m0 4.02v4.02m0 4.03v4.02m0 4.02v4.02m0 4.03v4.03m0 4.02v4.03m0 4.02v4.03m0 4.02v4.03m0 4.02v4.03m0 4.03v4.02m0 4.03v4.02m0 4.03v4.02m0 4.03V532m0 4.03v4.02m0 4.03v4.03m0 4.03v4.03m0 4.02v4.03m0 4.03v4.03m0 4.02v4.03m0 4.04v4.02m0 4.03v4m0 4.04v4.02m0 4.03v4m0 4.04v4.03m0 4.02v4.02m0 4.02v4.03m0 4.02v4.02m0 4.02v4.03m0 4.02v4.02m0 4.03v4.02m0 4.03v4.02m0 4.03v4.02m0 4.03v4.02m0 4.03v4.03m0 4.02v4.03m0 4.02v4.03m0 4.02v4.03m0 4.02v4.02m0 4.03v4.03m0 4.03v4.02m0 4.03v4.03m0 4.03v4.02m0 4.03v4.03m0 4.03v4.03m0 4v4.04m0 4.02v4.03m0 4v4.04m0 4.02v4.03m0 4v4.04m0 4.03v4.02m0 4.02v4.02m0 4.03V846m0 4.02v4.02m0 4.03v4.03m0 4.02v4.03m0 4.02v4.03m0 4.02v4.03m0 4.02v4.03m0 4.02v4.03m0 4.03v4.02m0 4.03v4.02m0 4.03v4.02m0 4.03v4.02m0 4.03v4.03m0 4.03v4.03m0 4.02v4.03m0 4.03v4.03m0 4.02v4.03m0 4.03v4.03m0 4.03v4m0 4.04v4.02m0 4.03v4m0 4.04v4.02m0 4.03v4.02m0 4.02v4.03m0 4.02v4.02m0 4.02v4.03m0 4.02v4.02m0 4.02v4.03m0 4.03v4.02m0 4.03v4.02m0 4.03v4.02m0 4.03v4.02m0 4.03v4.03m0 4.02v4.03m0 4.02v4.03m0 4.02v2.02" stroke="#333" fill="none"/><path d="M930.24 336.78h-1v-.5h1z" fill="#333"/><path d="M929.74 1125.75v.52M1139.9 336.77v2m0 3.98v3.98m0 4v3.97m0 4v3.97m0 4v3.97m0 4v3.98m0 3.98v4m0 3.97v4m0 3.97v4m0 3.97v4m0 4v3.97m0 4v3.97m0 4v3.97m0 4v3.98m0 4v3.98m0 3.98v4m0 3.97v4m0 3.98v4m0 3.97v4m0 3.98v3.98m0 4v3.98m0 4v3.97m0 4v3.97m0 4v3.98m0 3.98v4m0 3.97v4m0 3.97v4m0 3.98v3.98m0 4v3.97m0 4v3.97m0 4v3.97m0 3.98v4m0 3.97v4m0 3.97v4m0 3.97v3.98m0 3.98v4m0 3.98v3.98m0 4v3.97m0 3.98v3.98m0 4v3.97m0 4v3.98m0 4v3.98m0 3.98v4m0 3.97v4m0 3.97v4m0 3.98v3.98m0 4v3.97m0 4v3.97m0 4v3.97m0 4v3.98m0 3.98v4m0 3.97v4m0 3.97v4m0 3.98v3.98m0 4v3.97m0 4v3.97m0 4v3.97m0 4v3.98m0 3.98v4m0 3.97v4m0 3.97v4m0 3.97v4m0 4v3.97m0 4v3.97m0 4v3.97m0 4v3.98m0 4v3.98m0 3.98v4m0 3.97v4m0 3.98v4m0 3.97v4m0 3.98v3.98m0 4v3.98m0 4v3.97m0 4v3.97m0 4v3.98m0 3.98v4m0 3.97v4m0 3.97v4m0 3.98v3.98m0 4v3.97m0 4v3.97m0 4v3.97m0 3.98v4m0 3.97v4m0 3.97v4m0 3.97v3.98m0 3.98v4m0 3.98v3.98m0 4v3.97m0 3.98v3.98m0 4v3.97m0 4v3.98m0 4v3.98m0 3.98v4m0 3.97v4m0 3.97v4m0 3.98v3.98m0 4v3.97m0 4v3.97m0 4v3.97m0 4v3.98m0 3.98v4m0 3.97v4m0 3.97v2" stroke="#333" fill="none"/><path d="M1140.4 336.78h-1v-.5h1z" fill="#333"/><path d="M1139.9 1165.75v.52" stroke="#333" fill="none"/><path d="M419.9 271.27c0-2.76 2.24-5 5-5h89c2.76 0 5 2.24 5 5v60c0 2.76-2.24 5-5 5h-89c-2.76 0-5-2.24-5-5z" stroke="#000" stroke-opacity="0" fill="#333"/><use xlink:href="#d" transform="matrix(1,0,0,1,424.9000000000019,271.2666666666669) translate(14.549999999999997 33.15)"/><path d="M469.4 336.77v13.1" stroke="#333" fill="none"/><path d="M469.9 336.78h-1v-.5h1z" fill="#333"/><path d="M469.4 364.65l-4.64-14.27h9.28z" stroke="#333" fill="#333"/><path d="M359.9 154.27c0-4.42 3.58-8 8-8h664c4.42 0 8 3.58 8 8v1024c0 4.4-3.58 8-8 8h-664c-4.42 0-8-3.6-8-8z" stroke="#333" fill="#c1e4f7" fill-opacity=".19"/><use xlink:href="#e" transform="matrix(1,0,0,1,367.9000000000019,154.26666666666688) translate(224.125 15.6)"/><use xlink:href="#f" transform="matrix(1,0,0,1,367.9000000000019,154.26666666666688) translate(287.075 15.6)"/><use xlink:href="#g" transform="matrix(1,0,0,1,367.9000000000019,154.26666666666688) translate(354.025 15.6)"/><path d="M819.9 214.27c0-4.42 3.58-8 8-8h184c4.42 0 8 3.58 8 8v944c0 4.4-3.58 8-8 8h-184c-4.42 0-8-3.6-8-8z" stroke="#333" fill="#c1e4f7" fill-opacity=".28"/><use xlink:href="#h" transform="matrix(1,0,0,1,827.9000000000019,214.26666666666688) translate(31.15 15.6)"/><use xlink:href="#i" transform="matrix(1,0,0,1,827.9000000000019,214.26666666666688) translate(104.05000000000001 15.6)"/><path d="M449.4 374.27c0-4.42 3.58-8 8-8h24c4.42 0 8 3.58 8 8v744c0 4.4-3.58 8-8 8h-24c-4.42 0-8-3.6-8-8z" stroke="#333" fill="#fff"/><path d="M490.4 568.93h422.96" stroke="#333" fill="none"/><path d="M490.4 569.43h-.5v-1h.5z" fill="#333"/><path d="M928.13 568.93l-14.27 4.64v-9.27z" stroke="#333" fill="#333"/><use xlink:href="#j" transform="matrix(1,0,0,1,516.4277853639882,543.3333333333339) translate(0.0049999999999954525 14.4)"/><path d="M339.9 94.27c0-4.42 3.58-8 8-8h1164c4.42 0 8 3.58 8 8v1124c0 4.4-3.58 8-8 8h-1164c-4.42 0-8-3.6-8-8z" fill-opacity="0"/><path d="M343.97 87.45l.82-.55 3.1-.63h4.97m4.98 0h9.95m4.97 0h9.95m4.97 0h9.94m4.98 0h9.95m4.97 0h9.95m4.96 0h9.95m5 0h9.94m4.97 0h9.96m4.97 0h9.95m4.98 0h9.95m4.98 0h9.95m4.97 0h9.95m4.98 0h9.94m4.98 0h9.95m4.97 0h9.95m4.97 0h9.94m4.98 0h9.95m4.97 0h9.95m4.96 0h9.95m5 0h9.94m4.97 0h9.96m4.97 0h9.95m4.98 0h9.95m4.98 0h9.95m4.97 0h9.95m4.98 0h9.94m4.98 0h9.95m4.97 0h9.95m4.97 0h9.94m4.98 0h9.95m4.97 0h9.95m4.96 0h9.95m5 0h9.94m4.97 0h9.96m4.97 0h9.95m4.98 0h9.95m4.98 0h9.95m4.97 0h9.95m4.98 0h9.94m4.98 0h9.95m4.97 0h9.95m4.97 0h9.94m4.98 0h9.95m4.97 0h9.95m4.96 0h9.95m5 0h9.94m4.97 0h9.96m4.97 0h9.95m4.98 0h9.95m4.98 0h9.95m4.97 0h9.95m4.98 0h9.94m4.98 0h9.95m4.97 0h9.95m4.97 0h9.94m4.98 0h9.95m4.97 0h9.95m4.96 0h9.95m5 0h9.94m4.97 0h9.96m4.97 0h9.95m4.98 0h9.95m4.98 0h9.95m4.97 0h9.95m4.98 0h9.94m4.98 0h9.95m4.97 0h9.95m4.97 0h9.94m4.98 0h9.95m4.97 0h9.95m4.96 0h9.95m5 0h9.94m4.97 0h9.96m4.97 0h9.95m4.98 0h9.95m4.98 0h9.95m4.97 0h9.95m4.98 0h4.97l3.1.63.83.55m2.9 2.9l.54.8.63 3.12v5m0 5v9.98m0 5v10m0 4.98v10m0 5v9.98m0 5v10m0 5v9.98m0 5v10m0 4.98v10m0 5v9.98m0 5v10m0 4.98v10m0 5v9.98m0 5v10m0 4.98v10m0 5v9.98m0 5v10m0 4.98v10m0 5V369m0 5v10m0 4.98v10m0 5v9.98m0 5v10m0 4.98v10m0 5v9.98m0 5v10m0 4.98v10m0 5v9.98m0 5v10m0 4.98v10m0 5v9.98m0 5v10m0 4.98v10m0 5v9.98m0 5v10m0 4.98v10m0 5v9.98m0 5v10m0 4.98v10m0 5v9.98m0 5v10m0 4.98v10m0 5v9.98m0 5v10m0 4.98v10m0 5v9.98m0 5v10m0 4.98v10m0 5v9.98m0 5v10m0 4.98v10m0 5v9.98m0 5v10m0 4.98v10m0 5v9.98m0 5v10m0 4.98v10m0 5v9.98m0 5v10m0 4.98v10m0 5v9.98m0 5v10m0 4.98v10m0 5v9.98m0 5v10m0 4.98v10m0 5v9.98m0 5v10m0 4.98v10m0 5v9.98m0 5v10m0 4.98v10m0 5v9.98m0 5v10m0 4.98v10m0 5v5l-.63 3.1-.55.82m-2.9 2.9l-.8.54-3.12.63h-4.97m-4.98 0H1492m-4.97 0h-9.95m-4.97 0h-9.94m-4.98 0h-9.95m-4.97 0h-9.95m-4.96 0h-9.95m-5 0h-9.94m-4.97 0h-9.96m-4.97 0h-9.95m-4.98 0h-9.95m-4.98 0h-9.95m-4.97 0h-9.95m-4.98 0h-9.94m-4.98 0H1298m-4.97 0h-9.95m-4.97 0h-9.94m-4.98 0h-9.95m-4.97 0h-9.95m-4.96 0h-9.95m-5 0h-9.94m-4.97 0h-9.96m-4.97 0h-9.95m-4.98 0h-9.95m-4.98 0h-9.95m-4.97 0h-9.95m-4.98 0h-9.94m-4.98 0H1104m-4.97 0h-9.95m-4.97 0h-9.94m-4.98 0h-9.95m-4.97 0h-9.95m-4.96 0h-9.95m-5 0h-9.94m-4.97 0h-9.96m-4.97 0h-9.95m-4.98 0h-9.95m-4.98 0h-9.95m-4.97 0h-9.95m-4.98 0h-9.94m-4.98 0H910m-4.97 0h-9.95m-4.97 0h-9.94m-4.98 0h-9.95m-4.97 0h-9.95m-4.96 0h-9.95m-5 0h-9.94m-4.97 0h-9.96m-4.97 0h-9.95m-4.98 0h-9.95m-4.98 0h-9.95m-4.97 0h-9.95m-4.98 0h-9.94m-4.98 0H716m-4.97 0h-9.95m-4.97 0h-9.94m-4.98 0h-9.95m-4.97 0h-9.95m-4.96 0h-9.95m-5 0h-9.94m-4.97 0h-9.96m-4.97 0h-9.95m-4.98 0h-9.95m-4.98 0h-9.95m-4.97 0h-9.95m-4.98 0h-9.94m-4.98 0H522m-4.97 0h-9.95m-4.97 0h-9.94m-4.98 0h-9.95m-4.97 0h-9.95m-4.96 0h-9.95m-5 0h-9.94m-4.97 0h-9.96m-4.97 0h-9.95m-4.98 0h-9.95m-4.98 0h-9.95m-4.97 0h-9.95m-4.98 0h-4.97l-3.1-.63-.83-.55m-2.9-2.9l-.54-.82-.63-3.1v-5m0-5v-10m0-5v-9.98m0-5v-10m0-4.98v-10m0-5v-9.98m0-5v-10m0-4.98v-10m0-5v-9.98m0-5v-10m0-4.98v-10m0-5v-9.98m0-5v-10m0-4.98v-10m0-5v-9.98m0-5v-10m0-4.98v-10m0-5v-9.98m0-5v-10m0-4.98v-10m0-5v-9.98m0-5v-10m0-4.98v-10m0-5v-9.98m0-5v-10m0-4.98v-10m0-5v-9.98m0-5v-10m0-4.98v-10m0-5v-9.98m0-5v-10m0-4.98v-10m0-5v-9.98m0-5v-10m0-4.98v-10m0-5v-9.98m0-5v-10m0-4.98v-10m0-5v-9.98m0-5v-10m0-4.98v-10m0-5v-9.98m0-5v-10m0-4.98v-10m0-5v-9.98m0-5v-10m0-4.98v-10m0-5v-9.98m0-5v-10m0-4.98v-10m0-5v-9.98m0-5v-10m0-4.98v-10m0-5V419m0-5v-10m0-4.98v-10m0-5v-9.98m0-5v-10m0-4.98v-10m0-5v-9.98m0-5v-10m0-4.98v-10m0-5v-9.98m0-5v-10m0-4.98v-10m0-5v-9.98m0-5v-10m0-4.98v-10m0-5v-9.98m0-5v-10m0-4.98v-10m0-5v-9.98m0-5v-10m0-4.98v-10m0-5v-9.98m0-5v-5l.63-3.1.55-.82" stroke="#333" fill="none"/><use xlink:href="#k" transform="matrix(1,0,0,1,347.9000000000019,94.26666666666688) translate(427.5382716049383 21.511111111111106)"/><use xlink:href="#l" transform="matrix(1,0,0,1,347.9000000000019,94.26666666666688) translate(515.5246913580247 21.511111111111106)"/><use xlink:href="#m" transform="matrix(1,0,0,1,347.9000000000019,94.26666666666688) translate(639.3629629629629 21.511111111111106)"/><path d="M1319.9 271.27c0-2.76 2.24-5 5-5h150c2.76 0 5 2.24 5 5v60c0 2.76-2.24 5-5 5h-150c-2.76 0-5-2.24-5-5z" stroke="#000" stroke-opacity="0" fill="#ccc"/><use xlink:href="#n" transform="matrix(1,0,0,1,1324.900000000002,271.26666666666705) translate(36.05 21.9)"/><use xlink:href="#o" transform="matrix(1,0,0,1,1324.900000000002,271.26666666666705) translate(31.549999999999997 43.5)"/><path d="M1399.9 336.77v2m0 3.98v3.98m0 4v3.97m0 4v3.97m0 4v3.97m0 4v3.98m0 3.98v4m0 3.97v4m0 3.97v4m0 3.97v4m0 4v3.97m0 4v3.97m0 4v3.97m0 4v3.98m0 4v3.98m0 3.98v4m0 3.97v4m0 3.98v4m0 3.97v4m0 3.98v3.98m0 4v3.98m0 4v3.97m0 4v3.97m0 4v3.98m0 3.98v4m0 3.97v4m0 3.97v4m0 3.98v3.98m0 4v3.97m0 4v3.97m0 4v3.97m0 3.98v4m0 3.97v4m0 3.97v4m0 3.97v3.98m0 3.98v4m0 3.98v3.98m0 4v3.97m0 3.98v3.98m0 4v3.97m0 4v3.98m0 4v3.98m0 3.98v4m0 3.97v4m0 3.97v4m0 3.98v3.98m0 4v3.97m0 4v3.97m0 4v3.97m0 4v3.98m0 3.98v4m0 3.97v4m0 3.97v4m0 3.98v3.98m0 4v3.97m0 4v3.97m0 4v3.97m0 4v3.98m0 3.98v4m0 3.97v4m0 3.97v4m0 3.97v4m0 4v3.97m0 4v3.97m0 4v3.97m0 4v3.98m0 4v3.98m0 3.98v4m0 3.97v4m0 3.98v4m0 3.97v4m0 3.98v3.98m0 4v3.98m0 4v3.97m0 4v3.97m0 4v3.98m0 3.98v4m0 3.97v4m0 3.97v4m0 3.98v3.98m0 4v3.97m0 4v3.97m0 4v3.97m0 3.98v4m0 3.97v4m0 3.97v4m0 3.97v3.98m0 3.98v4m0 3.98v3.98m0 4v3.97m0 3.98v3.98m0 4v3.97m0 4v3.98m0 4v3.98m0 3.98v4m0 3.97v4m0 3.97v4m0 3.98v3.98m0 4v3.97m0 4v3.97m0 4v3.97m0 4v3.98m0 3.98v4m0 3.97v4m0 3.97v2" stroke="#333" fill="none"/><path d="M1400.4 336.78h-1v-.5h1z" fill="#333"/><path d="M1399.9 1165.75v.52M506.28 626.27h422.96" stroke="#333" fill="none"/><path d="M491.52 626.27l14.26-4.64v9.27z" stroke="#333" fill="#333"/><path d="M929.23 626.27h.5" stroke="#333" fill="none"/><g><use xlink:href="#p" transform="matrix(1,0,0,1,705.6001002587394,630.2666666666669) translate(0.004999999999999005 14.4)"/></g><defs><path fill="#333" d="M33 0v-248h34V0H33" id="q"/><path fill="#333" d="M117-194c89-4 53 116 60 194h-32v-121c0-31-8-49-39-48C34-167 62-67 57 0H25l-1-190h30c1 10-1 24 2 32 11-22 29-35 61-36" id="r"/><path fill="#333" d="M101-234c-31-9-42 10-38 44h38v23H63V0H32v-167H5v-23h27c-7-52 17-82 69-68v24" id="s"/><path fill="#333" d="M84 4C-5 8 30-112 23-190h32v120c0 31 7 50 39 49 72-2 45-101 50-169h31l1 190h-30c-1-10 1-25-2-33-11 22-28 36-60 37" id="t"/><path fill="#333" d="M114-163C36-179 61-72 57 0H25l-1-190h30c1 12-1 29 2 39 6-27 23-49 58-41v29" id="u"/><path fill="#333" d="M141-36C126-15 110 5 73 4 37 3 15-17 15-53c-1-64 63-63 125-63 3-35-9-54-41-54-24 1-41 7-42 31l-33-3c5-37 33-52 76-52 45 0 72 20 72 64v82c-1 20 7 32 28 27v20c-31 9-61-2-59-35zM48-53c0 20 12 33 32 33 41-3 63-29 60-74-43 2-92-5-92 41" id="v"/><g id="a"><use transform="matrix(0.05,0,0,0.05,0,0)" xlink:href="#q"/><use transform="matrix(0.05,0,0,0.05,5,0)" xlink:href="#r"/><use transform="matrix(0.05,0,0,0.05,15,0)" xlink:href="#s"/><use transform="matrix(0.05,0,0,0.05,20,0)" xlink:href="#t"/><use transform="matrix(0.05,0,0,0.05,30,0)" xlink:href="#u"/><use transform="matrix(0.05,0,0,0.05,35.95,0)" xlink:href="#v"/><path fill="#333" d="M-.9 1.25h52.75v1.32H-.9z"/></g><path fill="#333" d="M87 75C49 33 22-17 22-94c0-76 28-126 65-167h31c-38 41-64 92-64 168S80 34 118 75H87" id="w"/><path fill="#333" d="M115-194c55 1 70 41 70 98S169 2 115 4C84 4 66-9 55-30l1 105H24l-1-265h31l2 30c10-21 28-34 59-34zm-8 174c40 0 45-34 45-75s-6-73-45-74c-42 0-51 32-51 76 0 43 10 73 51 73" id="x"/><path fill="#333" d="M24-231v-30h32v30H24zM24 0v-190h32V0H24" id="y"/><path fill="#333" d="M33-261c38 41 65 92 65 168S71 34 33 75H2C39 34 66-17 66-93S39-220 2-261h31" id="z"/><g id="b"><use transform="matrix(0.05,0,0,0.05,0,0)" xlink:href="#w"/><use transform="matrix(0.05,0,0,0.05,5.95,0)" xlink:href="#v"/><use transform="matrix(0.05,0,0,0.05,15.949999999999998,0)" xlink:href="#x"/><use transform="matrix(0.05,0,0,0.05,25.950000000000003,0)" xlink:href="#y"/><use transform="matrix(0.05,0,0,0.05,29.899999999999995,0)" xlink:href="#z"/><path fill="#333" d="M-.9 1.25h37.65v1.32H-.9z"/></g><path fill="#fafafa" d="M266 0h-40l-56-210L115 0H75L2-248h35L96-30l15-64 43-154h32l59 218 59-218h35" id="A"/><path fill="#fafafa" d="M141-36C126-15 110 5 73 4 37 3 15-17 15-53c-1-64 63-63 125-63 3-35-9-54-41-54-24 1-41 7-42 31l-33-3c5-37 33-52 76-52 45 0 72 20 72 64v82c-1 20 7 32 28 27v20c-31 9-61-2-59-35zM48-53c0 20 12 33 32 33 41-3 63-29 60-74-43 2-92-5-92 41" id="B"/><path fill="#fafafa" d="M24 0v-261h32V0H24" id="C"/><path fill="#fafafa" d="M100-194c63 0 86 42 84 106H49c0 40 14 67 53 68 26 1 43-12 49-29l28 8c-11 28-37 45-77 45C44 4 14-33 15-96c1-61 26-98 85-98zm52 81c6-60-76-77-97-28-3 7-6 17-6 28h103" id="D"/><path fill="#fafafa" d="M59-47c-2 24 18 29 38 22v24C64 9 27 4 27-40v-127H5v-23h24l9-43h21v43h35v23H59v120" id="E"/><g id="c"><use transform="matrix(0.05,0,0,0.05,0,0)" xlink:href="#A"/><use transform="matrix(0.05,0,0,0.05,16.3,0)" xlink:href="#B"/><use transform="matrix(0.05,0,0,0.05,26.3,0)" xlink:href="#C"/><use transform="matrix(0.05,0,0,0.05,30.25,0)" xlink:href="#C"/><use transform="matrix(0.05,0,0,0.05,34.2,0)" xlink:href="#D"/><use transform="matrix(0.05,0,0,0.05,44.2,0)" xlink:href="#E"/><path fill="#fafafa" d="M-.9 1.25h51v1.32h-51z"/></g><path fill="#fafafa" d="M24-231v-30h32v30H24zM24 0v-190h32V0H24" id="F"/><path fill="#fafafa" d="M117-194c89-4 53 116 60 194h-32v-121c0-31-8-49-39-48C34-167 62-67 57 0H25l-1-190h30c1 10-1 24 2 32 11-22 29-35 61-36" id="G"/><path fill="#fafafa" d="M85-194c31 0 48 13 60 33l-1-100h32l1 261h-30c-2-10 0-23-3-31C134-8 116 4 85 4 32 4 16-35 15-94c0-66 23-100 70-100zm9 24c-40 0-46 34-46 75 0 40 6 74 45 74 42 0 51-32 51-76 0-42-9-74-50-73" id="H"/><path fill="#fafafa" d="M141 0L90-78 38 0H4l68-98-65-92h35l48 74 47-74h35l-64 92 68 98h-35" id="I"/><path fill="#fafafa" d="M33 0v-38h34V0H33" id="J"/><path fill="#fafafa" d="M24-231v-30h32v30H24zM-9 49c24 4 33-6 33-30v-209h32V24c2 40-23 58-65 49V49" id="K"/><path fill="#fafafa" d="M135-143c-3-34-86-38-87 0 15 53 115 12 119 90S17 21 10-45l28-5c4 36 97 45 98 0-10-56-113-15-118-90-4-57 82-63 122-42 12 7 21 19 24 35" id="L"/><g id="d"><use transform="matrix(0.05,0,0,0.05,0,0)" xlink:href="#F"/><use transform="matrix(0.05,0,0,0.05,3.95,0)" xlink:href="#G"/><use transform="matrix(0.05,0,0,0.05,13.949999999999998,0)" xlink:href="#H"/><use transform="matrix(0.05,0,0,0.05,23.95,0)" xlink:href="#D"/><use transform="matrix(0.05,0,0,0.05,33.95,0)" xlink:href="#I"/><use transform="matrix(0.05,0,0,0.05,42.95,0)" xlink:href="#J"/><use transform="matrix(0.05,0,0,0.05,47.95,0)" xlink:href="#K"/><use transform="matrix(0.05,0,0,0.05,51.900000000000006,0)" xlink:href="#L"/><path fill="#fafafa" d="M-.9 1.25h62.7v1.32H-.9z"/></g><path fill="#333" d="M100-194c62-1 85 37 85 99 1 63-27 99-86 99S16-35 15-95c0-66 28-99 85-99zM99-20c44 1 53-31 53-75 0-43-8-75-51-75s-53 32-53 75 10 74 51 75" id="M"/><path fill="#333" d="M85-194c31 0 48 13 60 33l-1-100h32l1 261h-30c-2-10 0-23-3-31C134-8 116 4 85 4 32 4 16-35 15-94c0-66 23-100 70-100zm9 24c-40 0-46 34-46 75 0 40 6 74 45 74 42 0 51-32 51-76 0-42-9-74-50-73" id="N"/><path fill="#333" d="M100-194c63 0 86 42 84 106H49c0 40 14 67 53 68 26 1 43-12 49-29l28 8c-11 28-37 45-77 45C44 4 14-33 15-96c1-61 26-98 85-98zm52 81c6-60-76-77-97-28-3 7-6 17-6 28h103" id="O"/><path fill="#333" d="M33 0v-38h34V0H33" id="P"/><path fill="#333" d="M24-231v-30h32v30H24zM-9 49c24 4 33-6 33-30v-209h32V24c2 40-23 58-65 49V49" id="Q"/><path fill="#333" d="M135-143c-3-34-86-38-87 0 15 53 115 12 119 90S17 21 10-45l28-5c4 36 97 45 98 0-10-56-113-15-118-90-4-57 82-63 122-42 12 7 21 19 24 35" id="R"/><g id="e"><use transform="matrix(0.05,0,0,0.05,0,0)" xlink:href="#r"/><use transform="matrix(0.05,0,0,0.05,10,0)" xlink:href="#M"/><use transform="matrix(0.05,0,0,0.05,20,0)" xlink:href="#N"/><use transform="matrix(0.05,0,0,0.05,30,0)" xlink:href="#O"/><use transform="matrix(0.05,0,0,0.05,40,0)" xlink:href="#P"/><use transform="matrix(0.05,0,0,0.05,45,0)" xlink:href="#Q"/><use transform="matrix(0.05,0,0,0.05,48.95,0)" xlink:href="#R"/></g><path fill="#333" d="M96-169c-40 0-48 33-48 73s9 75 48 75c24 0 41-14 43-38l32 2c-6 37-31 61-74 61-59 0-76-41-82-99-10-93 101-131 147-64 4 7 5 14 7 22l-32 3c-4-21-16-35-41-35" id="S"/><path fill="#333" d="M24 0v-261h32V0H24" id="T"/><g id="f"><use transform="matrix(0.05,0,0,0.05,0,0)" xlink:href="#S"/><use transform="matrix(0.05,0,0,0.05,9,0)" xlink:href="#M"/><use transform="matrix(0.05,0,0,0.05,19,0)" xlink:href="#r"/><use transform="matrix(0.05,0,0,0.05,29,0)" xlink:href="#R"/><use transform="matrix(0.05,0,0,0.05,38,0)" xlink:href="#M"/><use transform="matrix(0.05,0,0,0.05,48,0)" xlink:href="#T"/><use transform="matrix(0.05,0,0,0.05,51.95,0)" xlink:href="#O"/></g><path fill="#333" d="M59-47c-2 24 18 29 38 22v24C64 9 27 4 27-40v-127H5v-23h24l9-43h21v43h35v23H59v120" id="U"/><g id="g"><use transform="matrix(0.05,0,0,0.05,0,0)" xlink:href="#v"/><use transform="matrix(0.05,0,0,0.05,10,0)" xlink:href="#x"/><use transform="matrix(0.05,0,0,0.05,20,0)" xlink:href="#x"/><use transform="matrix(0.05,0,0,0.05,30,0)" xlink:href="#T"/><use transform="matrix(0.05,0,0,0.05,33.95,0)" xlink:href="#y"/><use transform="matrix(0.05,0,0,0.05,37.900000000000006,0)" xlink:href="#S"/><use transform="matrix(0.05,0,0,0.05,46.900000000000006,0)" xlink:href="#v"/><use transform="matrix(0.05,0,0,0.05,56.900000000000006,0)" xlink:href="#U"/><use transform="matrix(0.05,0,0,0.05,61.900000000000006,0)" xlink:href="#y"/><use transform="matrix(0.05,0,0,0.05,65.85000000000001,0)" xlink:href="#M"/><use transform="matrix(0.05,0,0,0.05,75.85000000000001,0)" xlink:href="#r"/></g><path fill="#333" d="M106-169C34-169 62-67 57 0H25v-261h32l-1 103c12-21 28-36 61-36 89 0 53 116 60 194h-32v-121c2-32-8-49-39-48" id="V"/><g id="h"><use transform="matrix(0.05,0,0,0.05,0,0)" xlink:href="#O"/><use transform="matrix(0.05,0,0,0.05,10,0)" xlink:href="#U"/><use transform="matrix(0.05,0,0,0.05,15,0)" xlink:href="#V"/><use transform="matrix(0.05,0,0,0.05,25,0)" xlink:href="#O"/><use transform="matrix(0.05,0,0,0.05,35,0)" xlink:href="#u"/><use transform="matrix(0.05,0,0,0.05,40.95,0)" xlink:href="#R"/><use transform="matrix(0.05,0,0,0.05,49.95,0)" xlink:href="#P"/><use transform="matrix(0.05,0,0,0.05,54.95,0)" xlink:href="#Q"/><use transform="matrix(0.05,0,0,0.05,58.900000000000006,0)" xlink:href="#R"/></g><path fill="#333" d="M115-194c53 0 69 39 70 98 0 66-23 100-70 100C84 3 66-7 56-30L54 0H23l1-261h32v101c10-23 28-34 59-34zm-8 174c40 0 45-34 45-75 0-40-5-75-45-74-42 0-51 32-51 76 0 43 10 73 51 73" id="W"/><path fill="#333" d="M179-190L93 31C79 59 56 82 12 73V49c39 6 53-20 64-50L1-190h34L92-34l54-156h33" id="X"/><g id="i"><use transform="matrix(0.05,0,0,0.05,0,0)" xlink:href="#T"/><use transform="matrix(0.05,0,0,0.05,3.95,0)" xlink:href="#y"/><use transform="matrix(0.05,0,0,0.05,7.9,0)" xlink:href="#W"/><use transform="matrix(0.05,0,0,0.05,17.9,0)" xlink:href="#u"/><use transform="matrix(0.05,0,0,0.05,23.849999999999998,0)" xlink:href="#v"/><use transform="matrix(0.05,0,0,0.05,33.849999999999994,0)" xlink:href="#u"/><use transform="matrix(0.05,0,0,0.05,39.8,0)" xlink:href="#X"/></g><path fill="#333" d="M266 0h-40l-56-210L115 0H75L2-248h35L96-30l15-64 43-154h32l59 218 59-218h35" id="Y"/><path fill="#333" d="M233-177c-1 41-23 64-60 70L243 0h-38l-65-103H63V0H30v-248c88 3 205-21 203 71zM63-129c60-2 137 13 137-47 0-61-80-42-137-45v92" id="Z"/><path fill="#333" d="M210-169c-67 3-38 105-44 169h-31v-121c0-29-5-50-35-48C34-165 62-65 56 0H25l-1-190h30c1 10-1 24 2 32 10-44 99-50 107 0 11-21 27-35 58-36 85-2 47 119 55 194h-31v-121c0-29-5-49-35-48" id="aa"/><g id="j"><use transform="matrix(0.05,0,0,0.05,0,0)" xlink:href="#Y"/><use transform="matrix(0.05,0,0,0.05,16.3,0)" xlink:href="#v"/><use transform="matrix(0.05,0,0,0.05,26.3,0)" xlink:href="#T"/><use transform="matrix(0.05,0,0,0.05,30.25,0)" xlink:href="#T"/><use transform="matrix(0.05,0,0,0.05,34.2,0)" xlink:href="#O"/><use transform="matrix(0.05,0,0,0.05,44.2,0)" xlink:href="#U"/><use transform="matrix(0.05,0,0,0.05,49.2,0)" xlink:href="#P"/><use transform="matrix(0.05,0,0,0.05,54.2,0)" xlink:href="#S"/><use transform="matrix(0.05,0,0,0.05,63.2,0)" xlink:href="#u"/><use transform="matrix(0.05,0,0,0.05,69.15,0)" xlink:href="#O"/><use transform="matrix(0.05,0,0,0.05,79.15,0)" xlink:href="#v"/><use transform="matrix(0.05,0,0,0.05,89.15,0)" xlink:href="#U"/><use transform="matrix(0.05,0,0,0.05,94.15,0)" xlink:href="#O"/><use transform="matrix(0.05,0,0,0.05,104.15,0)" xlink:href="#Z"/><use transform="matrix(0.05,0,0,0.05,117.10000000000001,0)" xlink:href="#v"/><use transform="matrix(0.05,0,0,0.05,127.10000000000001,0)" xlink:href="#r"/><use transform="matrix(0.05,0,0,0.05,137.10000000000002,0)" xlink:href="#N"/><use transform="matrix(0.05,0,0,0.05,147.10000000000002,0)" xlink:href="#M"/><use transform="matrix(0.05,0,0,0.05,157.10000000000002,0)" xlink:href="#aa"/><use transform="matrix(0.05,0,0,0.05,172.05,0)" xlink:href="#w"/><use transform="matrix(0.05,0,0,0.05,178,0)" xlink:href="#z"/></g><path fill="#333" d="M212-179c-10-28-35-45-73-45-59 0-87 40-87 99 0 60 29 101 89 101 43 0 62-24 78-52l27 14C228-24 195 4 139 4 59 4 22-46 18-125c-6-104 99-153 187-111 19 9 31 26 39 46" id="ab"/><g id="k"><use transform="matrix(0.07469135802469135,0,0,0.07469135802469135,0,0)" xlink:href="#ab"/><use transform="matrix(0.07469135802469135,0,0,0.07469135802469135,19.34506172839506,0)" xlink:href="#u"/><use transform="matrix(0.07469135802469135,0,0,0.07469135802469135,28.233333333333327,0)" xlink:href="#O"/><use transform="matrix(0.07469135802469135,0,0,0.07469135802469135,43.1716049382716,0)" xlink:href="#v"/><use transform="matrix(0.07469135802469135,0,0,0.07469135802469135,58.109876543209865,0)" xlink:href="#U"/><use transform="matrix(0.07469135802469135,0,0,0.07469135802469135,65.579012345679,0)" xlink:href="#O"/></g><path fill="#333" d="M30 0v-248h187v28H63v79h144v27H63v87h162V0H30" id="ac"/><g id="l"><use transform="matrix(0.07469135802469135,0,0,0.07469135802469135,0,0)" xlink:href="#ac"/><use transform="matrix(0.07469135802469135,0,0,0.07469135802469135,17.925925925925924,0)" xlink:href="#U"/><use transform="matrix(0.07469135802469135,0,0,0.07469135802469135,25.395061728395056,0)" xlink:href="#V"/><use transform="matrix(0.07469135802469135,0,0,0.07469135802469135,40.33333333333333,0)" xlink:href="#O"/><use transform="matrix(0.07469135802469135,0,0,0.07469135802469135,55.271604938271594,0)" xlink:href="#u"/><use transform="matrix(0.07469135802469135,0,0,0.07469135802469135,64.15987654320986,0)" xlink:href="#O"/><use transform="matrix(0.07469135802469135,0,0,0.07469135802469135,79.09814814814814,0)" xlink:href="#t"/><use transform="matrix(0.07469135802469135,0,0,0.07469135802469135,94.03641975308639,0)" xlink:href="#aa"/></g><path fill="#333" d="M205 0l-28-72H64L36 0H1l101-248h38L239 0h-34zm-38-99l-47-123c-12 45-31 82-46 123h93" id="ad"/><g id="m"><use transform="matrix(0.07469135802469135,0,0,0.07469135802469135,0,0)" xlink:href="#ad"/><use transform="matrix(0.07469135802469135,0,0,0.07469135802469135,17.925925925925924,0)" xlink:href="#S"/><use transform="matrix(0.07469135802469135,0,0,0.07469135802469135,31.370370370370367,0)" xlink:href="#S"/><use transform="matrix(0.07469135802469135,0,0,0.07469135802469135,44.81481481481481,0)" xlink:href="#M"/><use transform="matrix(0.07469135802469135,0,0,0.07469135802469135,59.753086419753075,0)" xlink:href="#t"/><use transform="matrix(0.07469135802469135,0,0,0.07469135802469135,74.69135802469134,0)" xlink:href="#r"/><use transform="matrix(0.07469135802469135,0,0,0.07469135802469135,89.62962962962959,0)" xlink:href="#U"/></g><g id="n"><use transform="matrix(0.05,0,0,0.05,0,0)" xlink:href="#ac"/><use transform="matrix(0.05,0,0,0.05,12,0)" xlink:href="#U"/><use transform="matrix(0.05,0,0,0.05,17,0)" xlink:href="#V"/><use transform="matrix(0.05,0,0,0.05,27,0)" xlink:href="#O"/><use transform="matrix(0.05,0,0,0.05,37,0)" xlink:href="#u"/><use transform="matrix(0.05,0,0,0.05,42.95,0)" xlink:href="#O"/><use transform="matrix(0.05,0,0,0.05,52.95,0)" xlink:href="#t"/><use transform="matrix(0.05,0,0,0.05,62.95,0)" xlink:href="#aa"/><path fill="#333" d="M-.9 1.25h79.7v1.32H-.9z"/></g><path fill="#333" d="M160-131c35 5 61 23 61 61C221 17 115-2 30 0v-248c76 3 177-17 177 60 0 33-19 50-47 57zm-97-11c50-1 110 9 110-42 0-47-63-36-110-37v79zm0 115c55-2 124 14 124-45 0-56-70-42-124-44v89" id="ae"/><path fill="#333" d="M143 0L79-87 56-68V0H24v-261h32v163l83-92h37l-77 82L181 0h-38" id="af"/><g id="o"><use transform="matrix(0.05,0,0,0.05,0,0)" xlink:href="#ae"/><use transform="matrix(0.05,0,0,0.05,12,0)" xlink:href="#T"/><use transform="matrix(0.05,0,0,0.05,15.949999999999998,0)" xlink:href="#M"/><use transform="matrix(0.05,0,0,0.05,25.950000000000003,0)" xlink:href="#S"/><use transform="matrix(0.05,0,0,0.05,34.95,0)" xlink:href="#af"/><use transform="matrix(0.05,0,0,0.05,43.95,0)" xlink:href="#S"/><use transform="matrix(0.05,0,0,0.05,52.95,0)" xlink:href="#V"/><use transform="matrix(0.05,0,0,0.05,62.95,0)" xlink:href="#v"/><use transform="matrix(0.05,0,0,0.05,72.95,0)" xlink:href="#y"/><use transform="matrix(0.05,0,0,0.05,76.9,0)" xlink:href="#r"/><path fill="#333" d="M-.9 1.25h88.7v1.32H-.9z"/></g><g id="p"><use transform="matrix(0.05,0,0,0.05,0,0)" xlink:href="#v"/><use transform="matrix(0.05,0,0,0.05,10,0)" xlink:href="#S"/><use transform="matrix(0.05,0,0,0.05,19,0)" xlink:href="#S"/><use transform="matrix(0.05,0,0,0.05,28,0)" xlink:href="#M"/><use transform="matrix(0.05,0,0,0.05,38,0)" xlink:href="#t"/><use transform="matrix(0.05,0,0,0.05,48,0)" xlink:href="#r"/><use transform="matrix(0.05,0,0,0.05,58,0)" xlink:href="#U"/></g></defs></g></svg>