<svg xmlns="http://www.w3.org/2000/svg" xmlns:xlink="http://www.w3.org/1999/xlink" xmlns:lucid="lucid" width="1220" height="1180"><g transform="translate(-393.33333333333303 -60)" lucid:page-tab-id="0_0"><path d="M453.33 365c0-2.76 2.24-5 5-5h110c2.76 0 5 2.24 5 5v50c0 2.76-2.24 5-5 5h-110c-2.76 0-5-2.24-5-5z" stroke="#000" fill="#fff"/><use xlink:href="#a" transform="matrix(1,0,0,1,458.33333333333303,365) translate(32.55 17.525)"/><use xlink:href="#b" transform="matrix(1,0,0,1,458.33333333333303,365) translate(15.049999999999997 39.125)"/><path d="M913.33 265c0-2.76 2.24-5 5-5h150c2.76 0 5 2.24 5 5v60c0 2.76-2.24 5-5 5h-150c-2.76 0-5-2.24-5-5z" stroke="#000" stroke-opacity="0" fill="#2535a0"/><use xlink:href="#c" transform="matrix(1,0,0,1,918.333333333333,265) translate(50.4 21.9)"/><use xlink:href="#d" transform="matrix(1,0,0,1,918.333333333333,265) translate(2.625 43.5)"/><use xlink:href="#e" transform="matrix(1,0,0,1,918.333333333333,265) translate(76.575 43.5)"/><path d="M1133.33 265c0-2.76 2.24-5 5-5h150c2.76 0 5 2.24 5 5v60c0 2.76-2.24 5-5 5h-150c-2.76 0-5-2.24-5-5z" stroke="#000" stroke-opacity="0" fill="#ff6b49"/><use xlink:href="#f" transform="matrix(1,0,0,1,1138.333333333333,265) translate(31.599999999999994 33.15)"/><use xlink:href="#g" transform="matrix(1,0,0,1,1138.333333333333,265) translate(82.55 33.15)"/><path d="M761.7 265c0-2.76 2.25-5 5-5h90c2.77 0 5 2.24 5 5v60c0 2.76-2.23 5-5 5h-90c-2.75 0-5-2.24-5-5z" stroke="#000" stroke-opacity="0" fill="#2535a0"/><use xlink:href="#h" transform="matrix(1,0,0,1,766.708333333333,265) translate(11.574999999999996 33.15)"/><path d="M811.55 330.5v2m0 3.97v3.97m0 3.98v3.98m0 3.97v3.98m0 3.98v3.97m0 3.98v3.98m0 3.98v3.97m0 4v3.97m0 3.97v3.98m0 3.98v3.97m0 3.98v3.98m0 3.98V420m0 3.98v3.98m0 3.97v4m0 3.97v3.97m0 3.98v3.98m0 3.98v3.97m0 3.98v3.98m0 3.98v3.98m0 3.98v3.98m0 3.97v3.97m0 3.98v3.97m0 3.98v3.98m0 3.97v3.98m0 3.98v4m0 3.96v3.98m0 3.98v3.97m0 3.97v3.98m0 3.97v3.98m0 3.98v3.98m0 3.97v3.98m0 4v3.96m0 3.98v3.98m0 3.97v3.97m0 3.98v3.98m0 3.97v3.98m0 3.98v3.97m0 3.98v4m0 3.96v3.98m0 3.98v3.98m0 3.97v3.98m0 3.98v3.97m0 3.98v3.98m0 3.97v3.98m0 4v3.97m0 3.97v3.98m0 3.98v3.97m0 3.98v3.98m0 3.97v3.98m0 3.98v3.98m0 3.97v4m0 3.97v3.97m0 3.98v2l.26.62.64.26.63.26.26.63v1.98m0 3.98v3.97m0 3.98v4m0 3.96v3.98m0 3.98v3.98m0 3.97v3.98m0 3.98v3.97m0 3.98v3.98m0 3.97v3.98m0 4v3.97m0 3.97v3.98m0 3.98v3.97m0 3.98v3.98m0 3.97v3.98m0 3.98v3.98m0 3.97v4m0 3.97v3.97m0 3.98v3.98m0 3.97v3.98m0 3.98V899m0 3.98v3.98m0 3.98v3.97m0 4v3.97m0 3.97v3.98m0 3.98v3.98m0 3.97v3.98m0 3.98v3.98m0 3.98v3.98m0 3.97v4m0 3.97v3.98m0 3.97v3.98m0 3.98v3.97m0 3.98v3.98m0 3.98v3.98m0 3.98v3.98m0 3.97v3.97m0 3.98v3.97m0 3.98v3.98m0 3.98v3.97m0 3.98v4m0 3.96v3.98m0 3.98v3.97m0 3.97v3.98m0 3.98v3.97m0 3.98v3.98m0 3.97v3.98m0 4v3.96m0 3.98v3.98m0 3.98v3.97m0 3.98v3.98m0 3.97v3.98m0 3.98v3.97m0 3.98v2" stroke="#333" fill="none"/><path d="M812.05 330.5h-1v-.5h1z" fill="#333"/><path d="M813.33 1159.5v.5M993.33 330.5v2m0 3.98v3.98m0 4v3.98m0 3.98v4m0 3.97v3.98m0 3.98v4m0 3.97v4m0 3.98v4m0 3.98v3.98m0 4v3.97m0 4v3.97m0 4v3.98m0 3.98v4m0 3.97v4m0 3.97v4m0 3.97v4m0 3.98v3.98m0 4V468m0 4v3.97m0 4v3.97m0 4v3.98m0 3.98v4m0 3.97v4m0 3.97v4m0 3.97v4m0 4v3.97m0 4v3.97m0 4v3.97m0 4v4m0 3.97v4m0 3.97v4m0 3.97v4m0 3.98v4m0 3.98v3.98m0 4v3.97m0 4v3.98m0 4v3.97m0 4v3.98m0 3.98v4m0 3.98v4m0 3.97v4m0 3.97v4m0 3.98v3.98m0 4v3.97m0 4v3.97m0 4v3.97m0 3.98v4m0 3.97v4m0 3.97v4m0 3.97v3.98m0 3.98v4m0 3.98v3.98m0 4v3.97m0 3.98v3.98m0 4v3.98m0 3.98v4m0 3.97v3.98m0 3.98v4m0 3.97v4m0 3.98v4m0 3.98v3.98m0 4v3.97m0 4v3.97m0 4v3.98m0 3.98v4m0 3.97v4m0 3.97v4m0 3.97v4m0 3.98v3.98m0 4v3.97m0 4v3.97m0 4v3.97m0 4v3.98m0 3.98v4m0 3.97v4m0 3.97v4m0 3.97v4m0 4v3.97m0 4v3.97m0 4v3.97m0 4v4m0 3.97v4m0 3.97v4m0 3.97v4m0 3.98v4m0 3.98v3.98m0 4v3.97m0 4v3.98m0 4v3.97m0 4v3.98m0 3.98v4m0 3.98v4m0 3.97v4m0 3.97v4m0 3.98v3.98m0 4v3.97m0 4v3.97m0 4v3.97m0 3.98v4m0 3.97v4m0 3.97v4m0 3.97v3.98m0 3.98v4m0 3.98v3.98m0 4v1.98" stroke="#333" fill="none"/><path d="M993.83 330.5h-1v-.5h1z" fill="#333"/><path d="M993.33 1159.5v.5M1213.33 330.5v2m0 3.98v3.98m0 4v3.98m0 3.98v4m0 3.97v3.98m0 3.98v4m0 3.97v4m0 3.98v4m0 3.98v3.98m0 4v3.97m0 4v3.97m0 4v3.98m0 3.98v4m0 3.97v4m0 3.97v4m0 3.97v4m0 3.98v3.98m0 4V468m0 4v3.97m0 4v3.97m0 4v3.98m0 3.98v4m0 3.97v4m0 3.97v4m0 3.97v4m0 4v3.97m0 4v3.97m0 4v3.97m0 4v4m0 3.97v4m0 3.97v4m0 3.97v4m0 3.98v4m0 3.98v3.98m0 4v3.97m0 4v3.98m0 4v3.97m0 4v3.98m0 3.98v4m0 3.98v4m0 3.97v4m0 3.97v4m0 3.98v3.98m0 4v3.97m0 4v3.97m0 4v3.97m0 3.98v4m0 3.97v4m0 3.97v4m0 3.97v3.98m0 3.98v4m0 3.98v3.98m0 4v3.97m0 3.98v3.98m0 4v3.98m0 3.98v4m0 3.97v3.98m0 3.98v4m0 3.97v4m0 3.98v4m0 3.98v3.98m0 4v3.97m0 4v3.97m0 4v3.98m0 3.98v4m0 3.97v4m0 3.97v4m0 3.97v4m0 3.98v3.98m0 4v3.97m0 4v3.97m0 4v3.97m0 4v3.98m0 3.98v4m0 3.97v4m0 3.97v4m0 3.97v4m0 4v3.97m0 4v3.97m0 4v3.97m0 4v4m0 3.97v4m0 3.97v4m0 3.97v4m0 3.98v4m0 3.98v3.98m0 4v3.97m0 4v3.98m0 4v3.97m0 4v3.98m0 3.98v4m0 3.98v4m0 3.97v4m0 3.97v4m0 3.98v3.98m0 4v3.97m0 4v3.97m0 4v3.97m0 3.98v4m0 3.97v4m0 3.97v4m0 3.97v3.98m0 3.98v4m0 3.98v3.98m0 4v1.98" stroke="#333" fill="none"/><path d="M1213.83 330.5h-1v-.5h1z" fill="#333"/><path d="M1213.33 1159.5v.5" stroke="#333" fill="none"/><path d="M601.27 265c0-2.76 2.24-5 5-5h89c2.76 0 5 2.24 5 5v60c0 2.76-2.24 5-5 5h-89c-2.76 0-5-2.24-5-5z" stroke="#000" stroke-opacity="0" fill="#333"/><use xlink:href="#i" transform="matrix(1,0,0,1,606.2708333333312,265) translate(14.549999999999997 33.15)"/><path d="M650.77 330.5v13.12" stroke="#333" fill="none"/><path d="M651.27 330.5h-1v-.5h1z" fill="#333"/><path d="M650.77 358.38l-4.63-14.26h9.27z" stroke="#333" fill="#333"/><path d="M433.33 148c0-4.42 3.6-8 8-8h664c4.42 0 8 3.58 8 8v1024c0 4.42-3.58 8-8 8h-664c-4.4 0-8-3.58-8-8z" stroke="#333" fill="#c1e4f7" fill-opacity=".19"/><use xlink:href="#j" transform="matrix(1,0,0,1,441.33333333333303,148) translate(224.125 15.6)"/><use xlink:href="#k" transform="matrix(1,0,0,1,441.33333333333303,148) translate(287.075 15.6)"/><use xlink:href="#l" transform="matrix(1,0,0,1,441.33333333333303,148) translate(354.025 15.6)"/><path d="M753.33 208c0-4.42 3.6-8 8-8h324c4.42 0 8 3.58 8 8v944c0 4.42-3.58 8-8 8h-324c-4.4 0-8-3.58-8-8z" stroke="#333" fill="#c1e4f7" fill-opacity=".28"/><use xlink:href="#m" transform="matrix(1,0,0,1,761.333333333333,208) translate(101.15 15.6)"/><use xlink:href="#n" transform="matrix(1,0,0,1,761.333333333333,208) translate(174.05 15.6)"/><path d="M791.7 568c0-4.42 3.6-8 8-8h24c4.43 0 8 3.58 8 8v544c0 4.42-3.57 8-8 8h-24c-4.4 0-8-3.58-8-8zM973.33 688c0-4.42 3.6-8 8-8h24c4.42 0 8 3.58 8 8v424c0 4.42-3.58 8-8 8h-24c-4.4 0-8-3.58-8-8zM630.77 368c0-4.42 3.58-8 8-8h24c4.42 0 8 3.58 8 8v744c0 4.42-3.58 8-8 8h-24c-4.42 0-8-3.58-8-8z" stroke="#333" fill="#fff"/><path d="M453.33 445c0-2.76 2.24-5 5-5h110c2.76 0 5 2.24 5 5v50c0 2.76-2.24 5-5 5h-110c-2.76 0-5-2.24-5-5z" stroke="#000" fill="#fff"/><use xlink:href="#o" transform="matrix(1,0,0,1,458.33333333333303,445) translate(23.5 17.525)"/><use xlink:href="#p" transform="matrix(1,0,0,1,458.33333333333303,445) translate(1.5249999999999986 39.125)"/><path d="M574.33 390h39.56" stroke="#333" fill="none"/><path d="M574.35 390.5h-.52v-1h.52z" fill="#333"/><path d="M628.65 390l-14.26 4.64v-9.28z" stroke="#333" fill="#333"/><path d="M574.33 470h39.56" stroke="#333" fill="none"/><path d="M574.35 470.5h-.52v-1h.52z" fill="#333"/><path d="M628.65 470l-14.26 4.64v-9.28z" stroke="#333" fill="#333"/><path d="M671.77 562.67h105.08" stroke="#333" fill="none"/><path d="M671.78 563.17h-.5v-1h.5z" fill="#333"/><path d="M791.6 562.67l-14.25 4.63v-9.27z" stroke="#333" fill="#333"/><use xlink:href="#q" transform="matrix(1,0,0,1,674.0473034978991,537.0666666666668) translate(0.005000000000002558 14.4)"/><path d="M671.77 703.22h284.68" stroke="#333" fill="none"/><path d="M671.78 703.72h-.5v-1h.5z" fill="#333"/><path d="M971.2 703.22l-14.25 4.64v-9.27z" stroke="#333" fill="#333"/><use xlink:href="#r" transform="matrix(1,0,0,1,733.202083333333,677.6206813651684) translate(0.0049999999999954525 14.4)"/><path d="M413.33 88c0-4.42 3.6-8 8-8h1164c4.42 0 8 3.58 8 8v1124c0 4.42-3.58 8-8 8h-1164c-4.4 0-8-3.58-8-8z" fill-opacity="0"/><path d="M417.4 81.18l.82-.55 3.1-.63h5m4.96 0h9.95m4.98 0h9.95m4.98 0h9.95m4.97 0H486m4.97 0h9.95m4.98 0h9.95m4.97 0h9.95m4.97 0h9.95m4.97 0h9.95m4.97 0h9.94m4.97 0h9.96m4.98 0h9.94m4.98 0h9.95m4.98 0h9.95m4.98 0h9.95m4.98 0h9.95m4.97 0H680m4.97 0h9.95m4.98 0h9.95m4.97 0h9.95m4.97 0h9.95m4.97 0h9.95m4.97 0h9.94m4.97 0h9.96m4.98 0h9.94m4.98 0h9.95m4.98 0h9.95m4.98 0h9.95m4.98 0h9.95m4.97 0H874m4.97 0h9.95m4.98 0h9.95m4.97 0h9.95m4.97 0h9.95m4.97 0h9.95m4.97 0h9.94m4.97 0h9.96m4.98 0h9.94m4.98 0h9.95m4.98 0h9.95m4.98 0h9.95m4.98 0h9.95m4.97 0h9.95m4.97 0h9.95m4.98 0h9.95m4.97 0h9.95m4.97 0h9.95m4.97 0h9.95m4.97 0h9.94m4.97 0h9.96m4.98 0h9.94m4.98 0h9.95m4.98 0h9.95m4.98 0h9.95m4.98 0h9.95m4.97 0h9.95m4.97 0h9.95m4.98 0h9.95m4.97 0h9.95m4.97 0h9.95m4.97 0h9.95m4.97 0h9.94m4.97 0h9.96m4.98 0h9.94m4.98 0h9.95m4.98 0h9.95m4.98 0h9.95m4.98 0h9.95m4.97 0h9.95m4.97 0h9.95m4.98 0h9.95m4.97 0h9.95m4.97 0h9.95m4.97 0h9.95m4.97 0h9.94m4.97 0h9.96m4.98 0h9.94m4.98 0h4.97l3.12.63.8.55m2.9 2.9l.55.8.63 3.12v5m0 5v9.98m0 5v10m0 4.98v10m0 5v9.98m0 5v10m0 4.98v10m0 5v9.98m0 5v10m0 4.98v10m0 5v9.98m0 5v10m0 4.98v10m0 5v9.98m0 5v10m0 4.98v10m0 5v9.98m0 5v10m0 4.98v10m0 5v9.98m0 5v10m0 4.98v10m0 5v9.98m0 5v10m0 4.98v10m0 5v9.98m0 5v10m0 4.98v10m0 5v9.98m0 5v10m0 4.98v10m0 5v9.98m0 5v10m0 4.98v10m0 5v9.98m0 5v10m0 4.98v10m0 5v9.98m0 5v10m0 4.98v10m0 5v9.98m0 5v10m0 4.98v10m0 5v9.98m0 5v10m0 4.98v10m0 5v9.98m0 5v10m0 4.98v10m0 5v9.98m0 5v10m0 4.98v10m0 5v9.98m0 5v10m0 4.98v10m0 5v9.98m0 5v10m0 4.98v10m0 5v9.98m0 5v10m0 4.98v10m0 5v9.98m0 5v10m0 4.98v10m0 5v9.98m0 5v10m0 4.98v10m0 5v9.98m0 5v10m0 4.98v10m0 5v9.98m0 5v10m0 4.98v10m0 5v9.98m0 5v10m0 4.98v5l-.63 3.1-.55.83m-2.9 2.9l-.8.54-3.12.63h-4.97m-4.98 0h-9.94m-4.98 0h-9.95m-4.96 0h-9.95m-4.98 0h-9.95m-4.98 0h-9.96m-4.97 0h-9.95m-4.97 0h-9.95m-4.98 0h-9.95m-4.97 0h-9.95m-4.97 0h-9.95m-4.98 0h-9.94m-4.97 0h-9.95m-4.97 0h-9.94m-4.98 0h-9.94m-4.98 0h-9.95m-4.96 0h-9.95m-4.98 0h-9.95m-4.98 0h-9.96m-4.97 0h-9.95m-4.97 0h-9.95m-4.98 0h-9.95m-4.97 0h-9.95m-4.97 0h-9.95m-4.98 0h-9.94m-4.97 0h-9.95m-4.97 0h-9.94m-4.98 0h-9.94m-4.98 0h-9.95m-4.96 0h-9.95m-4.98 0h-9.95m-4.98 0h-9.96m-4.97 0h-9.95m-4.97 0h-9.95m-4.98 0h-9.95m-4.97 0h-9.95m-4.97 0h-9.95m-4.98 0h-9.94m-4.97 0h-9.95m-4.97 0h-9.94m-4.98 0h-9.94m-4.98 0h-9.95m-4.96 0h-9.95m-4.98 0h-9.95m-4.98 0h-9.96m-4.97 0h-9.95m-4.97 0h-9.95m-4.98 0h-9.95m-4.97 0h-9.95m-4.97 0h-9.95m-4.98 0h-9.94m-4.97 0h-9.95m-4.97 0h-9.94m-4.98 0h-9.94m-4.98 0h-9.95m-4.96 0h-9.95m-4.98 0h-9.95m-4.98 0h-9.96m-4.97 0h-9.95m-4.97 0h-9.95m-4.98 0h-9.95m-4.97 0h-9.95m-4.97 0h-9.95m-4.98 0h-9.94m-4.97 0h-9.95m-4.97 0h-9.94m-4.98 0h-9.94m-4.98 0h-9.95m-4.96 0h-9.95m-4.98 0h-9.95m-4.98 0h-9.96m-4.97 0h-9.95m-4.97 0h-9.95m-4.98 0h-9.95m-4.97 0h-9.95m-4.97 0h-9.95m-4.98 0h-9.94m-4.97 0h-9.95m-4.97 0h-4.97l-3.1-.63-.83-.55m-2.9-2.9l-.54-.8-.63-3.12v-5m0-5v-9.98m0-5v-10m0-4.98v-10m0-5v-9.98m0-5v-10m0-4.98v-10m0-5v-9.98m0-5v-10m0-4.98v-10m0-5v-9.98m0-5v-10m0-4.98v-10m0-5v-9.98m0-5v-10m0-4.98v-10m0-5v-9.98m0-5v-10m0-4.98v-10m0-5v-9.98m0-5v-10m0-4.98v-10m0-5v-9.98m0-5v-10m0-4.98v-10m0-5v-9.98m0-5v-10m0-4.98v-10m0-5v-9.98m0-5v-10m0-4.98v-10m0-5v-9.98m0-5v-10m0-4.98v-10m0-5v-9.98m0-5v-10m0-4.98v-10m0-5v-9.98m0-5v-10m0-4.98v-10m0-5v-9.98m0-5v-10m0-4.98v-10m0-5v-9.98m0-5v-10m0-4.98v-10m0-5v-9.98m0-5v-10m0-4.98v-10m0-5v-9.98m0-5v-10m0-4.98v-10m0-5v-9.98m0-5v-10m0-4.98v-10m0-5v-9.98m0-5v-10m0-4.98v-10m0-5v-9.98m0-5v-10m0-4.98v-10m0-5v-9.98m0-5v-10m0-4.98v-10m0-5v-9.98m0-5v-10m0-4.98v-10m0-5v-9.98m0-5v-10m0-4.98v-10m0-5v-9.98m0-5v-10m0-4.98v-10m0-5V113m0-5v-10m0-4.98v-5l.63-3.1.55-.83" stroke="#333" fill="none"/><use xlink:href="#s" transform="matrix(1,0,0,1,421.33333333333303,88) translate(484.2663580246914 21.511111111111106)"/><use xlink:href="#t" transform="matrix(1,0,0,1,421.33333333333303,88) translate(535.0564814814815 21.511111111111106)"/><use xlink:href="#u" transform="matrix(1,0,0,1,421.33333333333303,88) translate(596.154012345679 21.511111111111106)"/><path d="M1393.33 265c0-2.76 2.24-5 5-5h150c2.76 0 5 2.24 5 5v60c0 2.76-2.24 5-5 5h-150c-2.76 0-5-2.24-5-5z" stroke="#000" stroke-opacity="0" fill="#ccc"/><use xlink:href="#v" transform="matrix(1,0,0,1,1398.333333333333,265.00000000000017) translate(36.05 21.9)"/><use xlink:href="#w" transform="matrix(1,0,0,1,1398.333333333333,265.00000000000017) translate(31.549999999999997 43.5)"/><path d="M1473.33 330.5v2m0 3.98v3.98m0 4v3.98m0 3.98v4m0 3.97v3.98m0 3.98v4m0 3.97v4m0 3.98v4m0 3.98v3.98m0 4v3.97m0 4v3.97m0 4v3.98m0 3.98v4m0 3.97v4m0 3.97v4m0 3.97v4m0 3.98v3.98m0 4V468m0 4v3.97m0 4v3.97m0 4v3.98m0 3.98v4m0 3.97v4m0 3.97v4m0 3.97v4m0 4v3.97m0 4v3.97m0 4v3.97m0 4v4m0 3.97v4m0 3.97v4m0 3.97v4m0 3.98v4m0 3.98v3.98m0 4v3.97m0 4v3.98m0 4v3.97m0 4v3.98m0 3.98v4m0 3.98v4m0 3.97v4m0 3.97v4m0 3.98v3.98m0 4v3.97m0 4v3.97m0 4v3.97m0 3.98v4m0 3.97v4m0 3.97v4m0 3.97v3.98m0 3.98v4m0 3.98v3.98m0 4v3.97m0 3.98v3.98m0 4v3.98m0 3.98v4m0 3.97v3.98m0 3.98v4m0 3.97v4m0 3.98v4m0 3.98v3.98m0 4v3.97m0 4v3.97m0 4v3.98m0 3.98v4m0 3.97v4m0 3.97v4m0 3.97v4m0 3.98v3.98m0 4v3.97m0 4v3.97m0 4v3.97m0 4v3.98m0 3.98v4m0 3.97v4m0 3.97v4m0 3.97v4m0 4v3.97m0 4v3.97m0 4v3.97m0 4v4m0 3.97v4m0 3.97v4m0 3.97v4m0 3.98v4m0 3.98v3.98m0 4v3.97m0 4v3.98m0 4v3.97m0 4v3.98m0 3.98v4m0 3.98v4m0 3.97v4m0 3.97v4m0 3.98v3.98m0 4v3.97m0 4v3.97m0 4v3.97m0 3.98v4m0 3.97v4m0 3.97v4m0 3.97v3.98m0 3.98v4m0 3.98v3.98m0 4v1.98" stroke="#333" fill="none"/><path d="M1473.83 330.5h-1v-.5h1z" fill="#333"/><path d="M1473.33 1159.5v.5" stroke="#333" fill="none"/><path d="M1077.66 840.5h-63.83v-1h63.83zm118.8 0h-16.95v-1h16.95z" fill="#333"/><path d="M1013.85 840.5h-.52v-1h.52zM1211.2 840l-14.25 4.64v-9.28z" fill="#333"/><path d="M1212.83 840l-16.38 5.32v-10.64zm-15.38 3.95l12.15-3.95-12.15-3.95z" fill="#333"/><use xlink:href="#x" transform="matrix(1,0,0,1,1077.6594513071414,829.2000000000002) translate(0.005000000000002558 14.4)"/><path d="M1082.1 961.7h-51.88v-1h51.9zm130.73 0h-67.77v-1h67.77zM1029.72 965.85l-14.27-4.64 14.27-4.62z" fill="#333"/><path d="M1030.22 966.54l-16.4-5.33 16.4-5.3zm-13.15-5.33l12.15 3.96v-7.9zM1213.33 961.7h-.5v-1h.5z" fill="#333"/><use xlink:href="#y" transform="matrix(1,0,0,1,1082.1083333333331,950.4121976753552) translate(0.004999999999999005 14.4)"/><path d="M1266.1 877.34h-52.27v-1h52.27zm190.85 0h-87.9v-1h87.9z" fill="#333"/><path d="M1213.85 877.34h-.52v-1h.52zM1471.7 876.84l-14.25 4.64v-9.27z" fill="#333"/><path d="M1473.33 876.84l-16.38 5.32v-10.64zm-15.38 3.95l12.15-3.96-12.15-3.95z" fill="#333"/><use xlink:href="#z" transform="matrix(1,0,0,1,1266.102429861769,866.0405863299546) translate(0.005000000000002558 14.4)"/><use xlink:href="#A" transform="matrix(1,0,0,1,1266.102429861769,866.0405863299546) translate(35.005 14.4)"/><path d="M1282.8 920.46h-53.08v-1h53.08zm190.03 0h-127.08v-1h127.08zM1229.22 924.6l-14.27-4.64 14.27-4.63z" fill="#333"/><path d="M1229.72 925.3l-16.4-5.34 16.4-5.32zm-13.15-5.34l12.15 3.95v-7.88zM1473.33 920.46h-.5v-1h.5z" fill="#333"/><g><use xlink:href="#y" transform="matrix(1,0,0,1,1282.802856745603,909.1638543509372) translate(0.004999999999999005 14.4)"/></g><path d="M671.77 816.84h284.68" stroke="#333" fill="none"/><path d="M671.78 817.34h-.5v-1h.5z" fill="#333"/><path d="M971.22 816.84l-14.27 4.64v-9.27z" stroke="#333" fill="#333"/><g><use xlink:href="#B" transform="matrix(1,0,0,1,745.702083333333,791.2429960398924) translate(0.0049999999999954525 14.4)"/></g><path d="M972.33 994.96H687.65" stroke="#333" fill="none"/><path d="M972.83 995.46h-.5v-1h.5z" fill="#333"/><path d="M672.9 994.96l14.26-4.63v9.27z" stroke="#333" fill="#333"/><g><use xlink:href="#y" transform="matrix(1,0,0,1,790.577083333333,998.9608422135151) translate(0.004999999999999005 14.4)"/></g><defs><path fill="#333" d="M24-231v-30h32v30H24zM24 0v-190h32V0H24" id="C"/><path fill="#333" d="M117-194c89-4 53 116 60 194h-32v-121c0-31-8-49-39-48C34-167 62-67 57 0H25l-1-190h30c1 10-1 24 2 32 11-22 29-35 61-36" id="D"/><path fill="#333" d="M101-234c-31-9-42 10-38 44h38v23H63V0H32v-167H5v-23h27c-7-52 17-82 69-68v24" id="E"/><path fill="#333" d="M84 4C-5 8 30-112 23-190h32v120c0 31 7 50 39 49 72-2 45-101 50-169h31l1 190h-30c-1-10 1-25-2-33-11 22-28 36-60 37" id="F"/><path fill="#333" d="M114-163C36-179 61-72 57 0H25l-1-190h30c1 12-1 29 2 39 6-27 23-49 58-41v29" id="G"/><path fill="#333" d="M141-36C126-15 110 5 73 4 37 3 15-17 15-53c-1-64 63-63 125-63 3-35-9-54-41-54-24 1-41 7-42 31l-33-3c5-37 33-52 76-52 45 0 72 20 72 64v82c-1 20 7 32 28 27v20c-31 9-61-2-59-35zM48-53c0 20 12 33 32 33 41-3 63-29 60-74-43 2-92-5-92 41" id="H"/><g id="a"><use transform="matrix(0.05,0,0,0.05,0,0)" xlink:href="#C"/><use transform="matrix(0.05,0,0,0.05,3.95,0)" xlink:href="#D"/><use transform="matrix(0.05,0,0,0.05,13.949999999999998,0)" xlink:href="#E"/><use transform="matrix(0.05,0,0,0.05,18.95,0)" xlink:href="#F"/><use transform="matrix(0.05,0,0,0.05,28.950000000000003,0)" xlink:href="#G"/><use transform="matrix(0.05,0,0,0.05,34.9,0)" xlink:href="#H"/><path fill="#333" d="M-.9 1.25h46.7v1.32H-.9z"/></g><path fill="#333" d="M39-94c74 12-11 154 75 146v23c-44 4-70-10-70-52C44-23 55-84 6-82v-22c81 4-7-162 84-157h24v23c-82-15-2 131-75 144" id="I"/><path fill="#333" d="M85-194c31 0 48 13 60 33l-1-100h32l1 261h-30c-2-10 0-23-3-31C134-8 116 4 85 4 32 4 16-35 15-94c0-66 23-100 70-100zm9 24c-40 0-46 34-46 75 0 40 6 74 45 74 42 0 51-32 51-76 0-42-9-74-50-73" id="J"/><path fill="#333" d="M68-38c1 34 0 65-14 84H32c9-13 17-26 17-46H33v-38h35" id="K"/><path fill="#333" d="M135-143c-3-34-86-38-87 0 15 53 115 12 119 90S17 21 10-45l28-5c4 36 97 45 98 0-10-56-113-15-118-90-4-57 82-63 122-42 12 7 21 19 24 35" id="L"/><path fill="#333" d="M100-194c63 0 86 42 84 106H49c0 40 14 67 53 68 26 1 43-12 49-29l28 8c-11 28-37 45-77 45C44 4 14-33 15-96c1-61 26-98 85-98zm52 81c6-60-76-77-97-28-3 7-6 17-6 28h103" id="M"/><path fill="#333" d="M96-169c-40 0-48 33-48 73s9 75 48 75c24 0 41-14 43-38l32 2c-6 37-31 61-74 61-59 0-76-41-82-99-10-93 101-131 147-64 4 7 5 14 7 22l-32 3c-4-21-16-35-41-35" id="N"/><path fill="#333" d="M59-47c-2 24 18 29 38 22v24C64 9 27 4 27-40v-127H5v-23h24l9-43h21v43h35v23H59v120" id="O"/><path fill="#333" d="M76-40C78 24 84 88 6 75V52C86 64 9-79 80-94c-40-6-34-59-34-106 1-29-11-41-40-38v-23c44-4 70 10 70 52 0 47-12 108 38 105v22c-26 1-39 14-38 42" id="P"/><g id="b"><use transform="matrix(0.05,0,0,0.05,0,0)" xlink:href="#I"/><use transform="matrix(0.05,0,0,0.05,6,0)" xlink:href="#C"/><use transform="matrix(0.05,0,0,0.05,9.95,0)" xlink:href="#J"/><use transform="matrix(0.05,0,0,0.05,19.95,0)" xlink:href="#K"/><use transform="matrix(0.05,0,0,0.05,24.95,0)" xlink:href="#L"/><use transform="matrix(0.05,0,0,0.05,33.95,0)" xlink:href="#M"/><use transform="matrix(0.05,0,0,0.05,43.95,0)" xlink:href="#N"/><use transform="matrix(0.05,0,0,0.05,52.95,0)" xlink:href="#G"/><use transform="matrix(0.05,0,0,0.05,58.900000000000006,0)" xlink:href="#M"/><use transform="matrix(0.05,0,0,0.05,68.9,0)" xlink:href="#O"/><use transform="matrix(0.05,0,0,0.05,73.9,0)" xlink:href="#P"/><path fill="#333" d="M-.9 1.25h81.7v1.32H-.9z"/></g><path fill="#fafafa" d="M266 0h-40l-56-210L115 0H75L2-248h35L96-30l15-64 43-154h32l59 218 59-218h35" id="Q"/><path fill="#fafafa" d="M141-36C126-15 110 5 73 4 37 3 15-17 15-53c-1-64 63-63 125-63 3-35-9-54-41-54-24 1-41 7-42 31l-33-3c5-37 33-52 76-52 45 0 72 20 72 64v82c-1 20 7 32 28 27v20c-31 9-61-2-59-35zM48-53c0 20 12 33 32 33 41-3 63-29 60-74-43 2-92-5-92 41" id="R"/><path fill="#fafafa" d="M24 0v-261h32V0H24" id="S"/><path fill="#fafafa" d="M100-194c63 0 86 42 84 106H49c0 40 14 67 53 68 26 1 43-12 49-29l28 8c-11 28-37 45-77 45C44 4 14-33 15-96c1-61 26-98 85-98zm52 81c6-60-76-77-97-28-3 7-6 17-6 28h103" id="T"/><path fill="#fafafa" d="M59-47c-2 24 18 29 38 22v24C64 9 27 4 27-40v-127H5v-23h24l9-43h21v43h35v23H59v120" id="U"/><g id="c"><use transform="matrix(0.05,0,0,0.05,0,0)" xlink:href="#Q"/><use transform="matrix(0.05,0,0,0.05,16.3,0)" xlink:href="#R"/><use transform="matrix(0.05,0,0,0.05,26.3,0)" xlink:href="#S"/><use transform="matrix(0.05,0,0,0.05,30.25,0)" xlink:href="#S"/><use transform="matrix(0.05,0,0,0.05,34.2,0)" xlink:href="#T"/><use transform="matrix(0.05,0,0,0.05,44.2,0)" xlink:href="#U"/><path fill="#fafafa" d="M-.9 1.25h51v1.32h-51z"/></g><path fill="#fafafa" d="M87 75C49 33 22-17 22-94c0-76 28-126 65-167h31c-38 41-64 92-64 168S80 34 118 75H87" id="V"/><path fill="#fafafa" d="M96-169c-40 0-48 33-48 73s9 75 48 75c24 0 41-14 43-38l32 2c-6 37-31 61-74 61-59 0-76-41-82-99-10-93 101-131 147-64 4 7 5 14 7 22l-32 3c-4-21-16-35-41-35" id="W"/><path fill="#fafafa" d="M100-194c62-1 85 37 85 99 1 63-27 99-86 99S16-35 15-95c0-66 28-99 85-99zM99-20c44 1 53-31 53-75 0-43-8-75-51-75s-53 32-53 75 10 74 51 75" id="X"/><path fill="#fafafa" d="M84 4C-5 8 30-112 23-190h32v120c0 31 7 50 39 49 72-2 45-101 50-169h31l1 190h-30c-1-10 1-25-2-33-11 22-28 36-60 37" id="Y"/><path fill="#fafafa" d="M117-194c89-4 53 116 60 194h-32v-121c0-31-8-49-39-48C34-167 62-67 57 0H25l-1-190h30c1 10-1 24 2 32 11-22 29-35 61-36" id="Z"/><g id="d"><use transform="matrix(0.05,0,0,0.05,0,0)" xlink:href="#V"/><use transform="matrix(0.05,0,0,0.05,5.95,0)" xlink:href="#R"/><use transform="matrix(0.05,0,0,0.05,15.949999999999998,0)" xlink:href="#W"/><use transform="matrix(0.05,0,0,0.05,24.95,0)" xlink:href="#W"/><use transform="matrix(0.05,0,0,0.05,33.95,0)" xlink:href="#X"/><use transform="matrix(0.05,0,0,0.05,43.95,0)" xlink:href="#Y"/><use transform="matrix(0.05,0,0,0.05,53.95,0)" xlink:href="#Z"/><use transform="matrix(0.05,0,0,0.05,63.95,0)" xlink:href="#U"/><path fill="#fafafa" d="M-.9 1.25h75.75v1.32H-.9z"/></g><path fill="#fafafa" d="M206 0h-36l-40-164L89 0H53L-1-190h32L70-26l43-164h34l41 164 42-164h31" id="aa"/><path fill="#fafafa" d="M114-163C36-179 61-72 57 0H25l-1-190h30c1 12-1 29 2 39 6-27 23-49 58-41v29" id="ab"/><path fill="#fafafa" d="M115-194c55 1 70 41 70 98S169 2 115 4C84 4 66-9 55-30l1 105H24l-1-265h31l2 30c10-21 28-34 59-34zm-8 174c40 0 45-34 45-75s-6-73-45-74c-42 0-51 32-51 76 0 43 10 73 51 73" id="ac"/><path fill="#fafafa" d="M33-261c38 41 65 92 65 168S71 34 33 75H2C39 34 66-17 66-93S39-220 2-261h31" id="ad"/><g id="e"><use transform="matrix(0.05,0,0,0.05,0,0)" xlink:href="#aa"/><use transform="matrix(0.05,0,0,0.05,12.950000000000001,0)" xlink:href="#ab"/><use transform="matrix(0.05,0,0,0.05,18.900000000000002,0)" xlink:href="#R"/><use transform="matrix(0.05,0,0,0.05,28.900000000000002,0)" xlink:href="#ac"/><use transform="matrix(0.05,0,0,0.05,38.900000000000006,0)" xlink:href="#ac"/><use transform="matrix(0.05,0,0,0.05,48.900000000000006,0)" xlink:href="#T"/><use transform="matrix(0.05,0,0,0.05,58.900000000000006,0)" xlink:href="#ab"/><use transform="matrix(0.05,0,0,0.05,64.85000000000001,0)" xlink:href="#ad"/><path fill="#fafafa" d="M-.9 1.25h72.6v1.32H-.9z"/></g><path fill="#333" d="M33 0v-248h34V0H33" id="ae"/><g id="f"><use transform="matrix(0.05,0,0,0.05,0,0)" xlink:href="#ae"/><use transform="matrix(0.05,0,0,0.05,5,0)" xlink:href="#D"/><use transform="matrix(0.05,0,0,0.05,15,0)" xlink:href="#E"/><use transform="matrix(0.05,0,0,0.05,20,0)" xlink:href="#F"/><use transform="matrix(0.05,0,0,0.05,30,0)" xlink:href="#G"/><use transform="matrix(0.05,0,0,0.05,35.95,0)" xlink:href="#H"/><path fill="#333" d="M-.9 1.25h52.75v1.32H-.9z"/></g><path fill="#333" d="M87 75C49 33 22-17 22-94c0-76 28-126 65-167h31c-38 41-64 92-64 168S80 34 118 75H87" id="af"/><path fill="#333" d="M115-194c55 1 70 41 70 98S169 2 115 4C84 4 66-9 55-30l1 105H24l-1-265h31l2 30c10-21 28-34 59-34zm-8 174c40 0 45-34 45-75s-6-73-45-74c-42 0-51 32-51 76 0 43 10 73 51 73" id="ag"/><path fill="#333" d="M33-261c38 41 65 92 65 168S71 34 33 75H2C39 34 66-17 66-93S39-220 2-261h31" id="ah"/><g id="g"><use transform="matrix(0.05,0,0,0.05,0,0)" xlink:href="#af"/><use transform="matrix(0.05,0,0,0.05,5.95,0)" xlink:href="#H"/><use transform="matrix(0.05,0,0,0.05,15.949999999999998,0)" xlink:href="#ag"/><use transform="matrix(0.05,0,0,0.05,25.950000000000003,0)" xlink:href="#C"/><use transform="matrix(0.05,0,0,0.05,29.899999999999995,0)" xlink:href="#ah"/><path fill="#333" d="M-.9 1.25h37.65v1.32H-.9z"/></g><path fill="#fafafa" d="M30-248c87 1 191-15 191 75 0 78-77 80-158 76V0H30v-248zm33 125c57 0 124 11 124-50 0-59-68-47-124-48v98" id="ai"/><path fill="#fafafa" d="M108 0H70L1-190h34L89-25l56-165h34" id="aj"/><path fill="#fafafa" d="M24-231v-30h32v30H24zM24 0v-190h32V0H24" id="ak"/><path fill="#fafafa" d="M85-194c31 0 48 13 60 33l-1-100h32l1 261h-30c-2-10 0-23-3-31C134-8 116 4 85 4 32 4 16-35 15-94c0-66 23-100 70-100zm9 24c-40 0-46 34-46 75 0 40 6 74 45 74 42 0 51-32 51-76 0-42-9-74-50-73" id="al"/><g id="h"><use transform="matrix(0.05,0,0,0.05,0,0)" xlink:href="#ai"/><use transform="matrix(0.05,0,0,0.05,12,0)" xlink:href="#ab"/><use transform="matrix(0.05,0,0,0.05,17.95,0)" xlink:href="#X"/><use transform="matrix(0.05,0,0,0.05,27.950000000000003,0)" xlink:href="#aj"/><use transform="matrix(0.05,0,0,0.05,36.95,0)" xlink:href="#ak"/><use transform="matrix(0.05,0,0,0.05,40.900000000000006,0)" xlink:href="#al"/><use transform="matrix(0.05,0,0,0.05,50.900000000000006,0)" xlink:href="#T"/><use transform="matrix(0.05,0,0,0.05,60.900000000000006,0)" xlink:href="#ab"/><path fill="#fafafa" d="M-.9 1.25h68.65v1.32H-.9z"/></g><path fill="#fafafa" d="M141 0L90-78 38 0H4l68-98-65-92h35l48 74 47-74h35l-64 92 68 98h-35" id="am"/><path fill="#fafafa" d="M33 0v-38h34V0H33" id="an"/><path fill="#fafafa" d="M24-231v-30h32v30H24zM-9 49c24 4 33-6 33-30v-209h32V24c2 40-23 58-65 49V49" id="ao"/><path fill="#fafafa" d="M135-143c-3-34-86-38-87 0 15 53 115 12 119 90S17 21 10-45l28-5c4 36 97 45 98 0-10-56-113-15-118-90-4-57 82-63 122-42 12 7 21 19 24 35" id="ap"/><g id="i"><use transform="matrix(0.05,0,0,0.05,0,0)" xlink:href="#ak"/><use transform="matrix(0.05,0,0,0.05,3.95,0)" xlink:href="#Z"/><use transform="matrix(0.05,0,0,0.05,13.949999999999998,0)" xlink:href="#al"/><use transform="matrix(0.05,0,0,0.05,23.95,0)" xlink:href="#T"/><use transform="matrix(0.05,0,0,0.05,33.95,0)" xlink:href="#am"/><use transform="matrix(0.05,0,0,0.05,42.95,0)" xlink:href="#an"/><use transform="matrix(0.05,0,0,0.05,47.95,0)" xlink:href="#ao"/><use transform="matrix(0.05,0,0,0.05,51.900000000000006,0)" xlink:href="#ap"/><path fill="#fafafa" d="M-.9 1.25h62.7v1.32H-.9z"/></g><path fill="#333" d="M100-194c62-1 85 37 85 99 1 63-27 99-86 99S16-35 15-95c0-66 28-99 85-99zM99-20c44 1 53-31 53-75 0-43-8-75-51-75s-53 32-53 75 10 74 51 75" id="aq"/><path fill="#333" d="M33 0v-38h34V0H33" id="ar"/><path fill="#333" d="M24-231v-30h32v30H24zM-9 49c24 4 33-6 33-30v-209h32V24c2 40-23 58-65 49V49" id="as"/><g id="j"><use transform="matrix(0.05,0,0,0.05,0,0)" xlink:href="#D"/><use transform="matrix(0.05,0,0,0.05,10,0)" xlink:href="#aq"/><use transform="matrix(0.05,0,0,0.05,20,0)" xlink:href="#J"/><use transform="matrix(0.05,0,0,0.05,30,0)" xlink:href="#M"/><use transform="matrix(0.05,0,0,0.05,40,0)" xlink:href="#ar"/><use transform="matrix(0.05,0,0,0.05,45,0)" xlink:href="#as"/><use transform="matrix(0.05,0,0,0.05,48.95,0)" xlink:href="#L"/></g><path fill="#333" d="M24 0v-261h32V0H24" id="at"/><g id="k"><use transform="matrix(0.05,0,0,0.05,0,0)" xlink:href="#N"/><use transform="matrix(0.05,0,0,0.05,9,0)" xlink:href="#aq"/><use transform="matrix(0.05,0,0,0.05,19,0)" xlink:href="#D"/><use transform="matrix(0.05,0,0,0.05,29,0)" xlink:href="#L"/><use transform="matrix(0.05,0,0,0.05,38,0)" xlink:href="#aq"/><use transform="matrix(0.05,0,0,0.05,48,0)" xlink:href="#at"/><use transform="matrix(0.05,0,0,0.05,51.95,0)" xlink:href="#M"/></g><g id="l"><use transform="matrix(0.05,0,0,0.05,0,0)" xlink:href="#H"/><use transform="matrix(0.05,0,0,0.05,10,0)" xlink:href="#ag"/><use transform="matrix(0.05,0,0,0.05,20,0)" xlink:href="#ag"/><use transform="matrix(0.05,0,0,0.05,30,0)" xlink:href="#at"/><use transform="matrix(0.05,0,0,0.05,33.95,0)" xlink:href="#C"/><use transform="matrix(0.05,0,0,0.05,37.900000000000006,0)" xlink:href="#N"/><use transform="matrix(0.05,0,0,0.05,46.900000000000006,0)" xlink:href="#H"/><use transform="matrix(0.05,0,0,0.05,56.900000000000006,0)" xlink:href="#O"/><use transform="matrix(0.05,0,0,0.05,61.900000000000006,0)" xlink:href="#C"/><use transform="matrix(0.05,0,0,0.05,65.85000000000001,0)" xlink:href="#aq"/><use transform="matrix(0.05,0,0,0.05,75.85000000000001,0)" xlink:href="#D"/></g><path fill="#333" d="M106-169C34-169 62-67 57 0H25v-261h32l-1 103c12-21 28-36 61-36 89 0 53 116 60 194h-32v-121c2-32-8-49-39-48" id="au"/><g id="m"><use transform="matrix(0.05,0,0,0.05,0,0)" xlink:href="#M"/><use transform="matrix(0.05,0,0,0.05,10,0)" xlink:href="#O"/><use transform="matrix(0.05,0,0,0.05,15,0)" xlink:href="#au"/><use transform="matrix(0.05,0,0,0.05,25,0)" xlink:href="#M"/><use transform="matrix(0.05,0,0,0.05,35,0)" xlink:href="#G"/><use transform="matrix(0.05,0,0,0.05,40.95,0)" xlink:href="#L"/><use transform="matrix(0.05,0,0,0.05,49.95,0)" xlink:href="#ar"/><use transform="matrix(0.05,0,0,0.05,54.95,0)" xlink:href="#as"/><use transform="matrix(0.05,0,0,0.05,58.900000000000006,0)" xlink:href="#L"/></g><path fill="#333" d="M115-194c53 0 69 39 70 98 0 66-23 100-70 100C84 3 66-7 56-30L54 0H23l1-261h32v101c10-23 28-34 59-34zm-8 174c40 0 45-34 45-75 0-40-5-75-45-74-42 0-51 32-51 76 0 43 10 73 51 73" id="av"/><path fill="#333" d="M179-190L93 31C79 59 56 82 12 73V49c39 6 53-20 64-50L1-190h34L92-34l54-156h33" id="aw"/><g id="n"><use transform="matrix(0.05,0,0,0.05,0,0)" xlink:href="#at"/><use transform="matrix(0.05,0,0,0.05,3.95,0)" xlink:href="#C"/><use transform="matrix(0.05,0,0,0.05,7.9,0)" xlink:href="#av"/><use transform="matrix(0.05,0,0,0.05,17.9,0)" xlink:href="#G"/><use transform="matrix(0.05,0,0,0.05,23.849999999999998,0)" xlink:href="#H"/><use transform="matrix(0.05,0,0,0.05,33.849999999999994,0)" xlink:href="#G"/><use transform="matrix(0.05,0,0,0.05,39.8,0)" xlink:href="#aw"/></g><g id="o"><use transform="matrix(0.05,0,0,0.05,0,0)" xlink:href="#H"/><use transform="matrix(0.05,0,0,0.05,10,0)" xlink:href="#N"/><use transform="matrix(0.05,0,0,0.05,19,0)" xlink:href="#N"/><use transform="matrix(0.05,0,0,0.05,28,0)" xlink:href="#aq"/><use transform="matrix(0.05,0,0,0.05,38,0)" xlink:href="#F"/><use transform="matrix(0.05,0,0,0.05,48,0)" xlink:href="#D"/><use transform="matrix(0.05,0,0,0.05,58,0)" xlink:href="#O"/><path fill="#333" d="M-.9 1.25h64.8v1.32H-.9z"/></g><path fill="#333" d="M108 0H70L1-190h34L89-25l56-165h34" id="ax"/><path fill="#333" d="M194 0L95-120 63-95V0H30v-248h33v124l119-124h40L117-140 236 0h-42" id="ay"/><g id="p"><use transform="matrix(0.05,0,0,0.05,0,0)" xlink:href="#I"/><use transform="matrix(0.05,0,0,0.05,6,0)" xlink:href="#H"/><use transform="matrix(0.05,0,0,0.05,16,0)" xlink:href="#J"/><use transform="matrix(0.05,0,0,0.05,26,0)" xlink:href="#J"/><use transform="matrix(0.05,0,0,0.05,36,0)" xlink:href="#G"/><use transform="matrix(0.05,0,0,0.05,40.95,0)" xlink:href="#K"/><use transform="matrix(0.05,0,0,0.05,45.95,0)" xlink:href="#ag"/><use transform="matrix(0.05,0,0,0.05,55.95,0)" xlink:href="#ax"/><use transform="matrix(0.05,0,0,0.05,64.95,0)" xlink:href="#O"/><use transform="matrix(0.05,0,0,0.05,69.95,0)" xlink:href="#ay"/><use transform="matrix(0.05,0,0,0.05,81.95,0)" xlink:href="#M"/><use transform="matrix(0.05,0,0,0.05,91.95,0)" xlink:href="#aw"/><use transform="matrix(0.05,0,0,0.05,100.95,0)" xlink:href="#P"/><path fill="#333" d="M-.9 1.25h108.75v1.32H-.9z"/></g><path fill="#333" d="M206 0h-36l-40-164L89 0H53L-1-190h32L70-26l43-164h34l41 164 42-164h31" id="az"/><g id="q"><use transform="matrix(0.05,0,0,0.05,0,0)" xlink:href="#D"/><use transform="matrix(0.05,0,0,0.05,10,0)" xlink:href="#M"/><use transform="matrix(0.05,0,0,0.05,20,0)" xlink:href="#az"/><use transform="matrix(0.05,0,0,0.05,32.95,0)" xlink:href="#af"/><use transform="matrix(0.05,0,0,0.05,38.900000000000006,0)" xlink:href="#C"/><use transform="matrix(0.05,0,0,0.05,42.85000000000001,0)" xlink:href="#D"/><use transform="matrix(0.05,0,0,0.05,52.85,0)" xlink:href="#E"/><use transform="matrix(0.05,0,0,0.05,57.85,0)" xlink:href="#F"/><use transform="matrix(0.05,0,0,0.05,67.85000000000001,0)" xlink:href="#G"/><use transform="matrix(0.05,0,0,0.05,73.80000000000001,0)" xlink:href="#H"/><use transform="matrix(0.05,0,0,0.05,83.80000000000001,0)" xlink:href="#ah"/></g><g id="r"><use transform="matrix(0.05,0,0,0.05,0,0)" xlink:href="#D"/><use transform="matrix(0.05,0,0,0.05,10,0)" xlink:href="#M"/><use transform="matrix(0.05,0,0,0.05,20,0)" xlink:href="#az"/><use transform="matrix(0.05,0,0,0.05,32.95,0)" xlink:href="#af"/><use transform="matrix(0.05,0,0,0.05,38.900000000000006,0)" xlink:href="#H"/><use transform="matrix(0.05,0,0,0.05,48.900000000000006,0)" xlink:href="#N"/><use transform="matrix(0.05,0,0,0.05,57.900000000000006,0)" xlink:href="#N"/><use transform="matrix(0.05,0,0,0.05,66.9,0)" xlink:href="#aq"/><use transform="matrix(0.05,0,0,0.05,76.9,0)" xlink:href="#F"/><use transform="matrix(0.05,0,0,0.05,86.9,0)" xlink:href="#D"/><use transform="matrix(0.05,0,0,0.05,96.9,0)" xlink:href="#O"/><use transform="matrix(0.05,0,0,0.05,101.9,0)" xlink:href="#K"/><use transform="matrix(0.05,0,0,0.05,106.9,0)" xlink:href="#ag"/><use transform="matrix(0.05,0,0,0.05,116.9,0)" xlink:href="#G"/><use transform="matrix(0.05,0,0,0.05,122.85000000000001,0)" xlink:href="#aq"/><use transform="matrix(0.05,0,0,0.05,132.85000000000002,0)" xlink:href="#ax"/><use transform="matrix(0.05,0,0,0.05,141.85000000000002,0)" xlink:href="#C"/><use transform="matrix(0.05,0,0,0.05,145.8,0)" xlink:href="#J"/><use transform="matrix(0.05,0,0,0.05,155.8,0)" xlink:href="#M"/><use transform="matrix(0.05,0,0,0.05,165.8,0)" xlink:href="#G"/><use transform="matrix(0.05,0,0,0.05,171.75,0)" xlink:href="#ah"/></g><path fill="#333" d="M143 4C61 4 22-44 18-125c-5-107 100-154 193-111 17 8 29 25 37 43l-32 9c-13-25-37-40-76-40-61 0-88 39-88 99 0 61 29 100 91 101 35 0 62-11 79-27v-45h-74v-28h105v86C228-13 192 4 143 4" id="aA"/><g id="s"><use transform="matrix(0.07469135802469135,0,0,0.07469135802469135,0,0)" xlink:href="#aA"/><use transform="matrix(0.07469135802469135,0,0,0.07469135802469135,20.913580246913575,0)" xlink:href="#M"/><use transform="matrix(0.07469135802469135,0,0,0.07469135802469135,35.85185185185185,0)" xlink:href="#O"/></g><path fill="#333" d="M30 0v-248h187v28H63v79h144v27H63v87h162V0H30" id="aB"/><path fill="#333" d="M127-220V0H93v-220H8v-28h204v28h-85" id="aC"/><path fill="#333" d="M197 0v-115H63V0H30v-248h33v105h134v-105h34V0h-34" id="aD"/><g id="t"><use transform="matrix(0.07469135802469135,0,0,0.07469135802469135,0,0)" xlink:href="#aB"/><use transform="matrix(0.07469135802469135,0,0,0.07469135802469135,17.925925925925924,0)" xlink:href="#aC"/><use transform="matrix(0.07469135802469135,0,0,0.07469135802469135,34.28333333333333,0)" xlink:href="#aD"/></g><path fill="#333" d="M160-131c35 5 61 23 61 61C221 17 115-2 30 0v-248c76 3 177-17 177 60 0 33-19 50-47 57zm-97-11c50-1 110 9 110-42 0-47-63-36-110-37v79zm0 115c55-2 124 14 124-45 0-56-70-42-124-44v89" id="aE"/><g id="u"><use transform="matrix(0.07469135802469135,0,0,0.07469135802469135,0,0)" xlink:href="#aE"/><use transform="matrix(0.07469135802469135,0,0,0.07469135802469135,17.925925925925924,0)" xlink:href="#H"/><use transform="matrix(0.07469135802469135,0,0,0.07469135802469135,32.86419753086419,0)" xlink:href="#at"/><use transform="matrix(0.07469135802469135,0,0,0.07469135802469135,38.764814814814805,0)" xlink:href="#H"/><use transform="matrix(0.07469135802469135,0,0,0.07469135802469135,53.70308641975308,0)" xlink:href="#D"/><use transform="matrix(0.07469135802469135,0,0,0.07469135802469135,68.64135802469134,0)" xlink:href="#M"/></g><path fill="#333" d="M210-169c-67 3-38 105-44 169h-31v-121c0-29-5-50-35-48C34-165 62-65 56 0H25l-1-190h30c1 10-1 24 2 32 10-44 99-50 107 0 11-21 27-35 58-36 85-2 47 119 55 194h-31v-121c0-29-5-49-35-48" id="aF"/><g id="v"><use transform="matrix(0.05,0,0,0.05,0,0)" xlink:href="#aB"/><use transform="matrix(0.05,0,0,0.05,12,0)" xlink:href="#O"/><use transform="matrix(0.05,0,0,0.05,17,0)" xlink:href="#au"/><use transform="matrix(0.05,0,0,0.05,27,0)" xlink:href="#M"/><use transform="matrix(0.05,0,0,0.05,37,0)" xlink:href="#G"/><use transform="matrix(0.05,0,0,0.05,42.95,0)" xlink:href="#M"/><use transform="matrix(0.05,0,0,0.05,52.95,0)" xlink:href="#F"/><use transform="matrix(0.05,0,0,0.05,62.95,0)" xlink:href="#aF"/><path fill="#333" d="M-.9 1.25h79.7v1.32H-.9z"/></g><path fill="#333" d="M143 0L79-87 56-68V0H24v-261h32v163l83-92h37l-77 82L181 0h-38" id="aG"/><g id="w"><use transform="matrix(0.05,0,0,0.05,0,0)" xlink:href="#aE"/><use transform="matrix(0.05,0,0,0.05,12,0)" xlink:href="#at"/><use transform="matrix(0.05,0,0,0.05,15.949999999999998,0)" xlink:href="#aq"/><use transform="matrix(0.05,0,0,0.05,25.950000000000003,0)" xlink:href="#N"/><use transform="matrix(0.05,0,0,0.05,34.95,0)" xlink:href="#aG"/><use transform="matrix(0.05,0,0,0.05,43.95,0)" xlink:href="#N"/><use transform="matrix(0.05,0,0,0.05,52.95,0)" xlink:href="#au"/><use transform="matrix(0.05,0,0,0.05,62.95,0)" xlink:href="#H"/><use transform="matrix(0.05,0,0,0.05,72.95,0)" xlink:href="#C"/><use transform="matrix(0.05,0,0,0.05,76.9,0)" xlink:href="#D"/><path fill="#333" d="M-.9 1.25h88.7v1.32H-.9z"/></g><path fill="#333" d="M177-190C167-65 218 103 67 71c-23-6-38-20-44-43l32-5c15 47 100 32 89-28v-30C133-14 115 1 83 1 29 1 15-40 15-95c0-56 16-97 71-98 29-1 48 16 59 35 1-10 0-23 2-32h30zM94-22c36 0 50-32 50-73 0-42-14-75-50-75-39 0-46 34-46 75s6 73 46 73" id="aH"/><g id="x"><use transform="matrix(0.05,0,0,0.05,0,0)" xlink:href="#aH"/><use transform="matrix(0.05,0,0,0.05,10,0)" xlink:href="#M"/><use transform="matrix(0.05,0,0,0.05,20,0)" xlink:href="#O"/><use transform="matrix(0.05,0,0,0.05,25,0)" xlink:href="#aE"/><use transform="matrix(0.05,0,0,0.05,37,0)" xlink:href="#H"/><use transform="matrix(0.05,0,0,0.05,47,0)" xlink:href="#at"/><use transform="matrix(0.05,0,0,0.05,50.95,0)" xlink:href="#H"/><use transform="matrix(0.05,0,0,0.05,60.95,0)" xlink:href="#D"/><use transform="matrix(0.05,0,0,0.05,70.95,0)" xlink:href="#N"/><use transform="matrix(0.05,0,0,0.05,79.95,0)" xlink:href="#M"/><use transform="matrix(0.05,0,0,0.05,89.95,0)" xlink:href="#af"/><use transform="matrix(0.05,0,0,0.05,95.9,0)" xlink:href="#ah"/></g><g id="y"><use transform="matrix(0.05,0,0,0.05,0,0)" xlink:href="#av"/><use transform="matrix(0.05,0,0,0.05,10,0)" xlink:href="#H"/><use transform="matrix(0.05,0,0,0.05,20,0)" xlink:href="#at"/><use transform="matrix(0.05,0,0,0.05,23.95,0)" xlink:href="#H"/><use transform="matrix(0.05,0,0,0.05,33.95,0)" xlink:href="#D"/><use transform="matrix(0.05,0,0,0.05,43.95,0)" xlink:href="#N"/><use transform="matrix(0.05,0,0,0.05,52.95,0)" xlink:href="#M"/></g><path fill="#333" d="M26 75v-336h71v23H56V52h41v23H26" id="aI"/><g id="z"><use transform="matrix(0.05,0,0,0.05,0,0)" xlink:href="#aI"/><use transform="matrix(0.05,0,0,0.05,5,0)" xlink:href="#aH"/><use transform="matrix(0.05,0,0,0.05,15,0)" xlink:href="#M"/><use transform="matrix(0.05,0,0,0.05,25,0)" xlink:href="#O"/></g><path fill="#333" d="M3 75V52h41v-290H3v-23h71V75H3" id="aJ"/><g id="A"><use transform="matrix(0.05,0,0,0.05,0,0)" xlink:href="#av"/><use transform="matrix(0.05,0,0,0.05,10,0)" xlink:href="#H"/><use transform="matrix(0.05,0,0,0.05,20,0)" xlink:href="#at"/><use transform="matrix(0.05,0,0,0.05,23.95,0)" xlink:href="#H"/><use transform="matrix(0.05,0,0,0.05,33.95,0)" xlink:href="#D"/><use transform="matrix(0.05,0,0,0.05,43.95,0)" xlink:href="#N"/><use transform="matrix(0.05,0,0,0.05,52.95,0)" xlink:href="#M"/><use transform="matrix(0.05,0,0,0.05,62.95,0)" xlink:href="#aJ"/></g><g id="B"><use transform="matrix(0.05,0,0,0.05,0,0)" xlink:href="#az"/><use transform="matrix(0.05,0,0,0.05,12.950000000000001,0)" xlink:href="#H"/><use transform="matrix(0.05,0,0,0.05,22.950000000000003,0)" xlink:href="#at"/><use transform="matrix(0.05,0,0,0.05,26.900000000000002,0)" xlink:href="#at"/><use transform="matrix(0.05,0,0,0.05,30.85,0)" xlink:href="#M"/><use transform="matrix(0.05,0,0,0.05,40.85,0)" xlink:href="#O"/><use transform="matrix(0.05,0,0,0.05,45.85,0)" xlink:href="#ar"/><use transform="matrix(0.05,0,0,0.05,50.85,0)" xlink:href="#aH"/><use transform="matrix(0.05,0,0,0.05,60.85,0)" xlink:href="#M"/><use transform="matrix(0.05,0,0,0.05,70.85,0)" xlink:href="#O"/><use transform="matrix(0.05,0,0,0.05,75.85,0)" xlink:href="#aE"/><use transform="matrix(0.05,0,0,0.05,87.85,0)" xlink:href="#H"/><use transform="matrix(0.05,0,0,0.05,97.85,0)" xlink:href="#at"/><use transform="matrix(0.05,0,0,0.05,101.8,0)" xlink:href="#H"/><use transform="matrix(0.05,0,0,0.05,111.80000000000001,0)" xlink:href="#D"/><use transform="matrix(0.05,0,0,0.05,121.80000000000001,0)" xlink:href="#N"/><use transform="matrix(0.05,0,0,0.05,130.8,0)" xlink:href="#M"/><use transform="matrix(0.05,0,0,0.05,140.8,0)" xlink:href="#af"/><use transform="matrix(0.05,0,0,0.05,146.75,0)" xlink:href="#ah"/></g></defs></g></svg>