<svg xmlns="http://www.w3.org/2000/svg" xmlns:xlink="http://www.w3.org/1999/xlink" xmlns:lucid="lucid" width="1220" height="1180"><g transform="translate(-339.9999999999991 -20)" lucid:page-tab-id="0_0"><path d="M400 325c0-2.76 2.24-5 5-5h110c2.76 0 5 2.24 5 5v50c0 2.76-2.24 5-5 5H405c-2.76 0-5-2.24-5-5z" stroke="#000" fill="#fff"/><use xlink:href="#a" transform="matrix(1,0,0,1,404.9999999999991,325) translate(32.55 17.525)"/><use xlink:href="#b" transform="matrix(1,0,0,1,404.9999999999991,325) translate(15.049999999999997 39.125)"/><path d="M860 225c0-2.76 2.24-5 5-5h150c2.76 0 5 2.24 5 5v60c0 2.76-2.24 5-5 5H865c-2.76 0-5-2.24-5-5z" stroke="#000" stroke-opacity="0" fill="#2535a0"/><use xlink:href="#c" transform="matrix(1,0,0,1,864.9999999999991,225) translate(50.4 21.9)"/><use xlink:href="#d" transform="matrix(1,0,0,1,864.9999999999991,225) translate(2.625 43.5)"/><use xlink:href="#e" transform="matrix(1,0,0,1,864.9999999999991,225) translate(76.575 43.5)"/><path d="M1080 225c0-2.76 2.24-5 5-5h150c2.76 0 5 2.24 5 5v60c0 2.76-2.24 5-5 5h-150c-2.76 0-5-2.24-5-5z" stroke="#000" stroke-opacity="0" fill="#ff6b49"/><use xlink:href="#f" transform="matrix(1,0,0,1,1084.999999999999,225) translate(31.599999999999994 33.15)"/><use xlink:href="#g" transform="matrix(1,0,0,1,1084.999999999999,225) translate(82.55 33.15)"/><path d="M708.37 225c0-2.76 2.24-5 5-5h90c2.77 0 5 2.24 5 5v60c0 2.76-2.23 5-5 5h-90c-2.76 0-5-2.24-5-5z" stroke="#000" stroke-opacity="0" fill="#2535a0"/><use xlink:href="#h" transform="matrix(1,0,0,1,713.3749999999991,225) translate(11.574999999999996 33.15)"/><path d="M758.22 290.5v2m0 3.97v3.97m0 3.98v3.98m0 3.97v3.98m0 3.98v3.97m0 3.98v3.98m0 3.98v3.97m0 4v3.97m0 3.97v3.98m0 3.98v3.97m0 3.98v3.98m0 3.98V380m0 3.98v3.98m0 3.97v4m0 3.97v3.97m0 3.98v3.98m0 3.98v3.97m0 3.98v3.98m0 3.98v3.98m0 3.98v3.98m0 3.97v3.97m0 3.98v3.97m0 3.98v3.98m0 3.97v3.98m0 3.98v4m0 3.96v3.98m0 3.98v3.97m0 3.97v3.98m0 3.97v3.98m0 3.98v3.98m0 3.97v3.98m0 4v3.96m0 3.98v3.98m0 3.97v3.97m0 3.98v3.98m0 3.97v3.98m0 3.98v3.97m0 3.98v4m0 3.96v3.98m0 3.98v3.98m0 3.97v3.98m0 3.98v3.97m0 3.98v3.98m0 3.97v3.98m0 4v3.97m0 3.97v3.98m0 3.98v3.97m0 3.98v3.98m0 3.97v3.98m0 3.98v3.98m0 3.97v4m0 3.97v3.97m0 3.98v2l.26.62.63.26.64.26.26.63v1.98m0 3.98v3.97m0 3.98v4m0 3.96v3.98m0 3.98v3.98m0 3.97v3.98m0 3.98v3.97m0 3.98v3.98m0 3.97v3.98m0 4v3.97m0 3.97v3.98m0 3.98v3.97m0 3.98v3.98m0 3.97v3.98m0 3.98v3.98m0 3.97v4m0 3.97v3.97m0 3.98v3.98m0 3.97v3.98m0 3.98V859m0 3.98v3.98m0 3.98v3.97m0 4v3.97m0 3.97v3.98m0 3.98v3.98m0 3.97v3.98m0 3.98v3.98m0 3.98v3.98m0 3.97v4m0 3.97v3.98m0 3.97v3.98m0 3.98v3.97m0 3.98v3.98m0 3.98v3.98m0 3.98v3.98m0 3.97v3.97m0 3.98v3.97m0 3.98v3.98m0 3.98v3.97m0 3.98v4m0 3.96v3.98m0 3.98v3.97m0 3.97v3.98m0 3.98v3.97m0 3.98v3.98m0 3.97v3.98m0 4v3.96m0 3.98v3.98m0 3.98v3.97m0 3.98v3.98m0 3.97v3.98m0 3.98v3.97m0 3.98v2" stroke="#333" fill="none"/><path d="M758.72 290.5h-1v-.5h1z" fill="#333"/><path d="M760 1119.5v.5M940 290.5v2m0 3.98v3.98m0 4v3.98m0 3.98v4m0 3.97v3.98m0 3.98v4m0 3.97v4m0 3.98v4m0 3.98v3.98m0 4v3.97m0 4v3.97m0 4v3.98m0 3.98v4m0 3.97v4m0 3.97v4m0 3.97v4m0 3.98v3.98m0 4V428m0 4v3.97m0 4v3.97m0 4v3.98m0 3.98v4m0 3.97v4m0 3.97v4m0 3.97v4m0 4v3.97m0 4v3.97m0 4v3.97m0 4v4m0 3.97v4m0 3.97v4m0 3.97v4m0 3.98v4m0 3.98v3.98m0 4v3.97m0 4v3.98m0 4v3.97m0 4v3.98m0 3.98v4m0 3.98v4m0 3.97v4m0 3.97v4m0 3.98v3.98m0 4v3.97m0 4v3.97m0 4v3.97m0 3.98v4m0 3.97v4m0 3.97v4m0 3.97v3.98m0 3.98v4m0 3.98v3.98m0 4v3.97m0 3.98v3.98m0 4v3.98m0 3.98v4m0 3.97v3.98m0 3.98v4m0 3.97v4m0 3.98v4m0 3.98v3.98m0 4v3.97m0 4v3.97m0 4v3.98m0 3.98v4m0 3.97v4m0 3.97v4m0 3.97v4m0 3.98v3.98m0 4v3.97m0 4v3.97m0 4v3.97m0 4v3.98m0 3.98v4m0 3.97v4m0 3.97v4m0 3.97v4m0 4v3.97m0 4v3.97m0 4v3.97m0 4v4m0 3.97v4m0 3.97v4m0 3.97v4m0 3.98v4m0 3.98v3.98m0 4V978m0 4v3.98m0 4v3.97m0 4v3.98m0 3.98v4m0 3.98v4m0 3.97v4m0 3.97v4m0 3.98v3.98m0 4v3.97m0 4v3.97m0 4v3.97m0 3.98v4m0 3.97v4m0 3.97v4m0 3.97v3.98m0 3.98v4m0 3.98v3.98m0 4v1.98" stroke="#333" fill="none"/><path d="M940.5 290.5h-1v-.5h1z" fill="#333"/><path d="M940 1119.5v.5M1160 290.5v2m0 3.98v3.98m0 4v3.98m0 3.98v4m0 3.97v3.98m0 3.98v4m0 3.97v4m0 3.98v4m0 3.98v3.98m0 4v3.97m0 4v3.97m0 4v3.98m0 3.98v4m0 3.97v4m0 3.97v4m0 3.97v4m0 3.98v3.98m0 4V428m0 4v3.97m0 4v3.97m0 4v3.98m0 3.98v4m0 3.97v4m0 3.97v4m0 3.97v4m0 4v3.97m0 4v3.97m0 4v3.97m0 4v4m0 3.97v4m0 3.97v4m0 3.97v4m0 3.98v4m0 3.98v3.98m0 4v3.97m0 4v3.98m0 4v3.97m0 4v3.98m0 3.98v4m0 3.98v4m0 3.97v4m0 3.97v4m0 3.98v3.98m0 4v3.97m0 4v3.97m0 4v3.97m0 3.98v4m0 3.97v4m0 3.97v4m0 3.97v3.98m0 3.98v4m0 3.98v3.98m0 4v3.97m0 3.98v3.98m0 4v3.98m0 3.98v4m0 3.97v3.98m0 3.98v4m0 3.97v4m0 3.98v4m0 3.98v3.98m0 4v3.97m0 4v3.97m0 4v3.98m0 3.98v4m0 3.97v4m0 3.97v4m0 3.97v4m0 3.98v3.98m0 4v3.97m0 4v3.97m0 4v3.97m0 4v3.98m0 3.98v4m0 3.97v4m0 3.97v4m0 3.97v4m0 4v3.97m0 4v3.97m0 4v3.97m0 4v4m0 3.97v4m0 3.97v4m0 3.97v4m0 3.98v4m0 3.98v3.98m0 4V978m0 4v3.98m0 4v3.97m0 4v3.98m0 3.98v4m0 3.98v4m0 3.97v4m0 3.97v4m0 3.98v3.98m0 4v3.97m0 4v3.97m0 4v3.97m0 3.98v4m0 3.97v4m0 3.97v4m0 3.97v3.98m0 3.98v4m0 3.98v3.98m0 4v1.98" stroke="#333" fill="none"/><path d="M1160.5 290.5h-1v-.5h1z" fill="#333"/><path d="M1160 1119.5v.5" stroke="#333" fill="none"/><path d="M547.94 225c0-2.76 2.24-5 5-5h89c2.76 0 5 2.24 5 5v60c0 2.76-2.24 5-5 5h-89c-2.76 0-5-2.24-5-5z" stroke="#000" stroke-opacity="0" fill="#333"/><use xlink:href="#i" transform="matrix(1,0,0,1,552.9374999999973,225) translate(14.549999999999997 33.15)"/><path d="M597.44 290.5v13.12" stroke="#333" fill="none"/><path d="M597.94 290.5h-1v-.5h1z" fill="#333"/><path d="M597.44 318.38l-4.64-14.26h9.27z" stroke="#333" fill="#333"/><path d="M380 108c0-4.42 3.58-8 8-8h664c4.42 0 8 3.58 8 8v1024c0 4.42-3.58 8-8 8H388c-4.42 0-8-3.58-8-8z" stroke="#333" fill="#c1e4f7" fill-opacity=".19"/><use xlink:href="#j" transform="matrix(1,0,0,1,387.9999999999991,108) translate(224.125 15.6)"/><use xlink:href="#k" transform="matrix(1,0,0,1,387.9999999999991,108) translate(287.075 15.6)"/><use xlink:href="#l" transform="matrix(1,0,0,1,387.9999999999991,108) translate(354.025 15.6)"/><path d="M700 168c0-4.42 3.58-8 8-8h324c4.42 0 8 3.58 8 8v944c0 4.42-3.58 8-8 8H708c-4.42 0-8-3.58-8-8z" stroke="#333" fill="#c1e4f7" fill-opacity=".28"/><use xlink:href="#m" transform="matrix(1,0,0,1,707.9999999999991,168) translate(101.15 15.6)"/><use xlink:href="#n" transform="matrix(1,0,0,1,707.9999999999991,168) translate(174.05 15.6)"/><path d="M738.37 528c0-4.42 3.6-8 8-8h24c4.42 0 8 3.58 8 8v544c0 4.42-3.58 8-8 8h-24c-4.4 0-8-3.58-8-8zM920 648c0-4.42 3.58-8 8-8h24c4.42 0 8 3.58 8 8v424c0 4.42-3.58 8-8 8h-24c-4.42 0-8-3.58-8-8zM577.44 328c0-4.42 3.58-8 8-8h24c4.42 0 8 3.58 8 8v744c0 4.42-3.58 8-8 8h-24c-4.42 0-8-3.58-8-8z" stroke="#333" fill="#fff"/><path d="M400 405c0-2.76 2.24-5 5-5h110c2.76 0 5 2.24 5 5v50c0 2.76-2.24 5-5 5H405c-2.76 0-5-2.24-5-5z" stroke="#000" fill="#fff"/><use xlink:href="#o" transform="matrix(1,0,0,1,404.9999999999991,405) translate(23.5 17.525)"/><use xlink:href="#p" transform="matrix(1,0,0,1,404.9999999999991,405) translate(1.5249999999999986 39.125)"/><path d="M521 350h39.55" stroke="#333" fill="none"/><path d="M521 350.5h-.5v-1h.5z" fill="#333"/><path d="M575.32 350l-14.27 4.64v-9.28z" stroke="#333" fill="#333"/><path d="M521 430h39.55" stroke="#333" fill="none"/><path d="M521 430.5h-.5v-1h.5z" fill="#333"/><path d="M575.32 430l-14.27 4.64v-9.28z" stroke="#333" fill="#333"/><path d="M618.44 522.67H723.5" stroke="#333" fill="none"/><path d="M618.45 523.17h-.5v-1h.5z" fill="#333"/><path d="M738.28 522.67L724 527.3v-9.27z" stroke="#333" fill="#333"/><use xlink:href="#q" transform="matrix(1,0,0,1,620.7139701645651,497.06666666666683) translate(0.005000000000002558 14.4)"/><path d="M618.44 663.22h284.68" stroke="#333" fill="none"/><path d="M618.45 663.72h-.5v-1h.5z" fill="#333"/><path d="M917.88 663.22l-14.26 4.64v-9.27z" stroke="#333" fill="#333"/><use xlink:href="#r" transform="matrix(1,0,0,1,679.8687499999991,637.6206813651684) translate(0.0049999999999954525 14.4)"/><path d="M360 48c0-4.42 3.58-8 8-8h1164c4.42 0 8 3.58 8 8v1124c0 4.42-3.58 8-8 8H368c-4.42 0-8-3.58-8-8z" fill-opacity="0"/><path d="M364.07 41.18l.82-.55L368 40h4.97m4.98 0h9.95m4.97 0h9.95m4.97 0h9.94m4.98 0h9.95m4.97 0h9.95m4.96 0h9.95m5 0h9.94m4.97 0h9.96m4.97 0h9.95m4.98 0h9.95m4.98 0h9.95m4.97 0h9.95m4.98 0h9.94m4.98 0h9.95m4.97 0h9.95m4.97 0h9.94m4.98 0h9.95m4.97 0h9.95m4.96 0h9.95m5 0h9.94m4.97 0h9.96m4.97 0h9.95m4.98 0h9.95m4.98 0h9.95m4.97 0h9.95m4.98 0h9.94m4.98 0h9.95m4.97 0h9.95m4.97 0h9.94m4.98 0h9.95m4.97 0h9.95m4.96 0h9.95m5 0h9.94m4.97 0h9.96m4.97 0h9.95m4.98 0h9.95m4.98 0h9.95m4.97 0h9.95m4.98 0h9.94m4.98 0h9.95m4.97 0h9.95m4.97 0h9.94m4.98 0h9.95m4.97 0h9.95m4.96 0h9.95m5 0h9.94m4.97 0h9.96m4.97 0h9.95m4.98 0h9.95m4.98 0h9.95m4.97 0h9.95m4.98 0h9.94m4.98 0h9.95m4.97 0h9.95m4.97 0h9.94m4.98 0h9.95m4.97 0h9.95m4.96 0h9.95m5 0h9.94m4.97 0h9.96m4.97 0h9.95m4.98 0h9.95m4.98 0h9.95m4.97 0h9.95m4.98 0h9.94m4.98 0h9.95m4.97 0h9.95m4.97 0h9.94m4.98 0h9.95m4.97 0h9.95m4.96 0h9.95m5 0h9.94m4.97 0h9.96m4.97 0h9.95m4.98 0h9.95m4.98 0h9.95m4.97 0h9.95m4.98 0h4.97l3.1.63.83.55m2.9 2.9l.54.8.63 3.12v5m0 5v9.98m0 5v10m0 4.98v10m0 5v9.98m0 5v10m0 4.98v10m0 5v9.98m0 5v10m0 4.98v10m0 5v9.98m0 5v10m0 4.98v10m0 5v9.98m0 5v10m0 4.98v10m0 5v9.98m0 5v10m0 4.98v10m0 5v9.98m0 5v10m0 4.98v10m0 5v9.98m0 5v10m0 4.98v10m0 5v9.98m0 5v10m0 4.98v10m0 5v9.98m0 5v10m0 4.98v10m0 5v9.98m0 5v10m0 4.98v10m0 5v9.98m0 5v10m0 4.98v10m0 5v9.98m0 5v10m0 4.98v10m0 5v9.98m0 5v10m0 4.98v10m0 5v9.98m0 5v10m0 4.98v10m0 5v9.98m0 5v10m0 4.98v10m0 5v9.98m0 5v10m0 4.98v10m0 5v9.98m0 5v10m0 4.98v10m0 5v9.98m0 5v10m0 4.98v10m0 5v9.98m0 5v10m0 4.98v10m0 5v9.98m0 5v10m0 4.98v10m0 5v9.98m0 5v10m0 4.98v10m0 5v9.98m0 5v10m0 4.98v10m0 5v9.98m0 5v10m0 4.98v10m0 5v9.98m0 5v10m0 4.98v5l-.63 3.1-.55.83m-2.9 2.9l-.8.54-3.12.63h-4.97m-4.98 0h-9.95m-4.97 0h-9.95m-4.97 0h-9.94m-4.98 0h-9.95m-4.97 0h-9.95m-4.96 0h-9.95m-5 0h-9.94m-4.97 0h-9.96m-4.97 0h-9.95m-4.98 0h-9.95m-4.98 0h-9.95m-4.97 0h-9.95m-4.98 0h-9.94m-4.98 0h-9.95m-4.97 0h-9.95m-4.97 0h-9.94m-4.98 0h-9.95m-4.97 0h-9.95m-4.96 0h-9.95m-5 0h-9.94m-4.97 0h-9.96m-4.97 0h-9.95m-4.98 0h-9.95m-4.98 0h-9.95m-4.97 0h-9.95m-4.98 0h-9.94m-4.98 0h-9.95m-4.97 0h-9.95m-4.97 0h-9.94m-4.98 0h-9.95m-4.97 0h-9.95m-4.96 0h-9.95m-5 0h-9.94m-4.97 0h-9.96m-4.97 0h-9.95m-4.98 0h-9.95m-4.98 0h-9.95m-4.97 0h-9.95m-4.98 0h-9.94m-4.98 0h-9.95m-4.97 0h-9.95m-4.97 0h-9.94m-4.98 0h-9.95m-4.97 0h-9.95m-4.96 0h-9.95m-5 0h-9.94m-4.97 0h-9.96m-4.97 0h-9.95m-4.98 0h-9.95m-4.98 0h-9.95m-4.97 0h-9.95m-4.98 0h-9.94m-4.98 0h-9.95m-4.97 0h-9.95m-4.97 0h-9.94m-4.98 0h-9.95m-4.97 0h-9.95m-4.96 0h-9.95m-5 0h-9.94m-4.97 0h-9.96m-4.97 0h-9.95m-4.98 0h-9.95m-4.98 0h-9.95m-4.97 0h-9.95m-4.98 0h-9.94m-4.98 0h-9.95m-4.97 0h-9.95m-4.97 0h-9.94m-4.98 0h-9.95m-4.97 0h-9.95m-4.96 0h-9.95m-5 0h-9.94m-4.97 0h-9.96m-4.97 0h-9.95m-4.98 0h-9.95m-4.98 0h-9.95m-4.97 0h-9.95m-4.98 0H368l-3.1-.63-.83-.55m-2.9-2.9l-.54-.8-.63-3.12v-5m0-5v-9.98m0-5v-10m0-4.98v-10m0-5v-9.98m0-5v-10m0-4.98v-10m0-5v-9.98m0-5v-10m0-4.98v-10m0-5v-9.98m0-5v-10m0-4.98v-10m0-5v-9.98m0-5v-10m0-4.98v-10m0-5v-9.98m0-5v-10m0-4.98v-10m0-5v-9.98m0-5v-10m0-4.98v-10m0-5v-9.98m0-5v-10m0-4.98v-10m0-5v-9.98m0-5v-10m0-4.98v-10m0-5v-9.98m0-5v-10m0-4.98v-10m0-5v-9.98m0-5v-10m0-4.98v-10m0-5v-9.98m0-5v-10m0-4.98v-10m0-5v-9.98m0-5v-10m0-4.98v-10m0-5v-9.98m0-5v-10m0-4.98v-10m0-5v-9.98m0-5v-10m0-4.98v-10m0-5v-9.98m0-5v-10m0-4.98v-10m0-5v-9.98m0-5v-10m0-4.98v-10m0-5v-9.98m0-5v-10m0-4.98v-10m0-5v-9.98m0-5v-10m0-4.98v-10m0-5v-9.98m0-5v-10m0-4.98v-10m0-5v-9.98m0-5v-10m0-4.98v-10m0-5v-9.98m0-5v-10m0-4.98v-10m0-5v-9.98m0-5v-10m0-4.98v-10m0-5v-9.98m0-5v-10m0-4.98v-10m0-5V73m0-5v-10m0-4.98v-5l.63-3.1.55-.83" stroke="#333" fill="none"/><use xlink:href="#s" transform="matrix(1,0,0,1,367.9999999999991,48) translate(496.73981481481485 21.511111111111106)"/><use xlink:href="#t" transform="matrix(1,0,0,1,367.9999999999991,48) translate(603.1003086419753 21.511111111111106)"/><path d="M1340 225c0-2.76 2.24-5 5-5h150c2.76 0 5 2.24 5 5v60c0 2.76-2.24 5-5 5h-150c-2.76 0-5-2.24-5-5z" stroke="#000" stroke-opacity="0" fill="#ccc"/><use xlink:href="#u" transform="matrix(1,0,0,1,1344.999999999999,225.00000000000017) translate(36.05 21.9)"/><use xlink:href="#v" transform="matrix(1,0,0,1,1344.999999999999,225.00000000000017) translate(31.549999999999997 43.5)"/><path d="M1420 290.5v2m0 3.98v3.98m0 4v3.98m0 3.98v4m0 3.97v3.98m0 3.98v4m0 3.97v4m0 3.98v4m0 3.98v3.98m0 4v3.97m0 4v3.97m0 4v3.98m0 3.98v4m0 3.97v4m0 3.97v4m0 3.97v4m0 3.98v3.98m0 4V428m0 4v3.97m0 4v3.97m0 4v3.98m0 3.98v4m0 3.97v4m0 3.97v4m0 3.97v4m0 4v3.97m0 4v3.97m0 4v3.97m0 4v4m0 3.97v4m0 3.97v4m0 3.97v4m0 3.98v4m0 3.98v3.98m0 4v3.97m0 4v3.98m0 4v3.97m0 4v3.98m0 3.98v4m0 3.98v4m0 3.97v4m0 3.97v4m0 3.98v3.98m0 4v3.97m0 4v3.97m0 4v3.97m0 3.98v4m0 3.97v4m0 3.97v4m0 3.97v3.98m0 3.98v4m0 3.98v3.98m0 4v3.97m0 3.98v3.98m0 4v3.98m0 3.98v4m0 3.97v3.98m0 3.98v4m0 3.97v4m0 3.98v4m0 3.98v3.98m0 4v3.97m0 4v3.97m0 4v3.98m0 3.98v4m0 3.97v4m0 3.97v4m0 3.97v4m0 3.98v3.98m0 4v3.97m0 4v3.97m0 4v3.97m0 4v3.98m0 3.98v4m0 3.97v4m0 3.97v4m0 3.97v4m0 4v3.97m0 4v3.97m0 4v3.97m0 4v4m0 3.97v4m0 3.97v4m0 3.97v4m0 3.98v4m0 3.98v3.98m0 4V978m0 4v3.98m0 4v3.97m0 4v3.98m0 3.98v4m0 3.98v4m0 3.97v4m0 3.97v4m0 3.98v3.98m0 4v3.97m0 4v3.97m0 4v3.97m0 3.98v4m0 3.97v4m0 3.97v4m0 3.97v3.98m0 3.98v4m0 3.98v3.98m0 4v1.98" stroke="#333" fill="none"/><path d="M1420.5 290.5h-1v-.5h1z" fill="#333"/><path d="M1420 1119.5v.5" stroke="#333" fill="none"/><path d="M1004.3 975.63h-27.42v-1h27.42zm155.2 0h-43.3v-1h43.3zM976.38 979.76l-14.26-4.63 14.26-4.64z" fill="#333"/><path d="M976.88 980.45l-16.38-5.32 16.38-5.33zm-13.14-5.32l12.14 3.95v-7.9zM1160 975.63h-.5v-1h.5z" fill="#333"/><use xlink:href="#w" transform="matrix(1,0,0,1,1004.299999999999,964.3279615237783) translate(0.005000000000002558 14.4)"/><use xlink:href="#x" transform="matrix(1,0,0,1,1004.299999999999,964.3279615237783) translate(92.905 14.4)"/><path d="M1223.27 781h-62.77v-1h62.77zm180.35 0h-98.4v-1h98.4zM1160.5 781h-.5v-1h.5zM1418.38 780.5l-14.26 4.63v-9.27z" fill="#333"/><path d="M1420 780.5l-16.38 5.32v-10.65zm-15.38 3.94l12.14-3.95-12.14-3.95z" fill="#333"/><use xlink:href="#y" transform="matrix(1,0,0,1,1223.269096528435,769.6941074644637) translate(0.005000000000002558 14.4)"/><use xlink:href="#x" transform="matrix(1,0,0,1,1223.269096528435,769.6941074644637) translate(62.955000000000005 14.4)"/><path d="M1205 881.3h-28.62v-1h28.6zm214.5 0h-102.6v-1h102.6zM1175.88 885.44l-14.26-4.63 14.26-4.63z" fill="#333"/><path d="M1176.38 886.13L1160 880.8l16.38-5.32zm-13.14-5.32l12.14 3.95v-7.9zM1420 881.3h-.5v-1h.5z" fill="#333"/><use xlink:href="#w" transform="matrix(1,0,0,1,1204.994523412269,870.0054014796489) translate(0.005000000000002558 14.4)"/><use xlink:href="#x" transform="matrix(1,0,0,1,1204.994523412269,870.0054014796489) translate(92.905 14.4)"/><path d="M618.44 739.07h284.68" stroke="#333" fill="none"/><path d="M618.45 739.57h-.5v-1h.5z" fill="#333"/><path d="M917.88 739.07l-14.26 4.64v-9.26z" stroke="#333" fill="#333"/><use xlink:href="#z" transform="matrix(1,0,0,1,664.2437499999991,713.4720308313276) translate(0.0049999999999954525 14.4)"/><path d="M919 979.12H634.32" stroke="#333" fill="none"/><path d="M919.5 979.62h-.5v-1h.5z" fill="#333"/><path d="M619.56 979.12l14.26-4.63v9.26z" stroke="#333" fill="#333"/><use xlink:href="#w" transform="matrix(1,0,0,1,712.768749999999,983.120450837816) translate(0.005000000000002558 14.4)"/><use xlink:href="#x" transform="matrix(1,0,0,1,712.768749999999,983.120450837816) translate(92.905 14.4)"/><path d="M400 485c0-2.76 2.24-5 5-5h110c2.76 0 5 2.24 5 5v50c0 2.76-2.24 5-5 5H405c-2.76 0-5-2.24-5-5z" stroke="#000" fill="#fff"/><use xlink:href="#A" transform="matrix(1,0,0,1,404.9999999999991,485) translate(48 17.525)"/><use xlink:href="#B" transform="matrix(1,0,0,1,404.9999999999991,485) translate(15.024999999999999 39.125)"/><use xlink:href="#C" transform="matrix(1,0,0,1,404.9999999999991,485) translate(20.025 39.125)"/><path d="M521 510h39.55" stroke="#333" fill="none"/><path d="M521 510.5h-.5v-1h.5z" fill="#333"/><path d="M575.32 510l-14.27 4.64v-9.28z" stroke="#333" fill="#333"/><path d="M961 756.04h182.62" stroke="#333" fill="none"/><path d="M961 756.54h-.5v-1h.5z" fill="#333"/><path d="M1158.38 756.04l-14.26 4.64v-9.28z" stroke="#333" fill="#333"/><use xlink:href="#D" transform="matrix(1,0,0,1,1048.249999999999,730.4401104159858) translate(0.005000000000000782 14.4)"/><path d="M976.88 813.93h182.62" stroke="#333" fill="none"/><path d="M962.12 813.93l14.26-4.63v9.27z" stroke="#333" fill="#333"/><path d="M1159.5 813.93h.5" stroke="#333" fill="none"/><g><use xlink:href="#y" transform="matrix(1,0,0,1,1019.2749999999991,788.3312054695256) translate(0.005000000000002558 14.4)"/><use xlink:href="#x" transform="matrix(1,0,0,1,1019.2749999999991,788.3312054695256) translate(62.955000000000005 14.4)"/></g><path d="M919 814.93H634.32" stroke="#333" fill="none"/><path d="M919.5 815.43h-.5v-1h.5z" fill="#333"/><path d="M619.56 814.93l14.26-4.64v9.26z" stroke="#333" fill="#333"/><g><use xlink:href="#y" transform="matrix(1,0,0,1,727.7437499999991,789.3293277980346) translate(0.005000000000002558 14.4)"/><use xlink:href="#x" transform="matrix(1,0,0,1,727.7437499999991,789.3293277980346) translate(62.955000000000005 14.4)"/></g><path d="M618.44 936.7h284.68" stroke="#333" fill="none"/><path d="M618.45 937.2h-.5v-1h.5z" fill="#333"/><path d="M917.88 936.7l-14.26 4.64v-9.28z" stroke="#333" fill="#333"/><g><use xlink:href="#E" transform="matrix(1,0,0,1,746.8187499999991,911.1002518761703) translate(0.004999999999999005 14.4)"/></g><path d="M1143.62 940.7H961v-1h182.62zM961 940.7h-.5v-1h.5zM1158.38 940.2l-14.26 4.63v-9.27z" fill="#333"/><path d="M1160 940.2l-16.38 5.32v-10.65zm-15.38 3.94l12.14-3.95-12.14-3.95z" fill="#333"/><defs><path fill="#333" d="M24-231v-30h32v30H24zM24 0v-190h32V0H24" id="F"/><path fill="#333" d="M117-194c89-4 53 116 60 194h-32v-121c0-31-8-49-39-48C34-167 62-67 57 0H25l-1-190h30c1 10-1 24 2 32 11-22 29-35 61-36" id="G"/><path fill="#333" d="M101-234c-31-9-42 10-38 44h38v23H63V0H32v-167H5v-23h27c-7-52 17-82 69-68v24" id="H"/><path fill="#333" d="M84 4C-5 8 30-112 23-190h32v120c0 31 7 50 39 49 72-2 45-101 50-169h31l1 190h-30c-1-10 1-25-2-33-11 22-28 36-60 37" id="I"/><path fill="#333" d="M114-163C36-179 61-72 57 0H25l-1-190h30c1 12-1 29 2 39 6-27 23-49 58-41v29" id="J"/><path fill="#333" d="M141-36C126-15 110 5 73 4 37 3 15-17 15-53c-1-64 63-63 125-63 3-35-9-54-41-54-24 1-41 7-42 31l-33-3c5-37 33-52 76-52 45 0 72 20 72 64v82c-1 20 7 32 28 27v20c-31 9-61-2-59-35zM48-53c0 20 12 33 32 33 41-3 63-29 60-74-43 2-92-5-92 41" id="K"/><g id="a"><use transform="matrix(0.05,0,0,0.05,0,0)" xlink:href="#F"/><use transform="matrix(0.05,0,0,0.05,3.95,0)" xlink:href="#G"/><use transform="matrix(0.05,0,0,0.05,13.949999999999998,0)" xlink:href="#H"/><use transform="matrix(0.05,0,0,0.05,18.95,0)" xlink:href="#I"/><use transform="matrix(0.05,0,0,0.05,28.950000000000003,0)" xlink:href="#J"/><use transform="matrix(0.05,0,0,0.05,34.9,0)" xlink:href="#K"/><path fill="#333" d="M-.9 1.25h46.7v1.32H-.9z"/></g><path fill="#333" d="M39-94c74 12-11 154 75 146v23c-44 4-70-10-70-52C44-23 55-84 6-82v-22c81 4-7-162 84-157h24v23c-82-15-2 131-75 144" id="L"/><path fill="#333" d="M85-194c31 0 48 13 60 33l-1-100h32l1 261h-30c-2-10 0-23-3-31C134-8 116 4 85 4 32 4 16-35 15-94c0-66 23-100 70-100zm9 24c-40 0-46 34-46 75 0 40 6 74 45 74 42 0 51-32 51-76 0-42-9-74-50-73" id="M"/><path fill="#333" d="M68-38c1 34 0 65-14 84H32c9-13 17-26 17-46H33v-38h35" id="N"/><path fill="#333" d="M135-143c-3-34-86-38-87 0 15 53 115 12 119 90S17 21 10-45l28-5c4 36 97 45 98 0-10-56-113-15-118-90-4-57 82-63 122-42 12 7 21 19 24 35" id="O"/><path fill="#333" d="M100-194c63 0 86 42 84 106H49c0 40 14 67 53 68 26 1 43-12 49-29l28 8c-11 28-37 45-77 45C44 4 14-33 15-96c1-61 26-98 85-98zm52 81c6-60-76-77-97-28-3 7-6 17-6 28h103" id="P"/><path fill="#333" d="M96-169c-40 0-48 33-48 73s9 75 48 75c24 0 41-14 43-38l32 2c-6 37-31 61-74 61-59 0-76-41-82-99-10-93 101-131 147-64 4 7 5 14 7 22l-32 3c-4-21-16-35-41-35" id="Q"/><path fill="#333" d="M59-47c-2 24 18 29 38 22v24C64 9 27 4 27-40v-127H5v-23h24l9-43h21v43h35v23H59v120" id="R"/><path fill="#333" d="M76-40C78 24 84 88 6 75V52C86 64 9-79 80-94c-40-6-34-59-34-106 1-29-11-41-40-38v-23c44-4 70 10 70 52 0 47-12 108 38 105v22c-26 1-39 14-38 42" id="S"/><g id="b"><use transform="matrix(0.05,0,0,0.05,0,0)" xlink:href="#L"/><use transform="matrix(0.05,0,0,0.05,6,0)" xlink:href="#F"/><use transform="matrix(0.05,0,0,0.05,9.95,0)" xlink:href="#M"/><use transform="matrix(0.05,0,0,0.05,19.95,0)" xlink:href="#N"/><use transform="matrix(0.05,0,0,0.05,24.95,0)" xlink:href="#O"/><use transform="matrix(0.05,0,0,0.05,33.95,0)" xlink:href="#P"/><use transform="matrix(0.05,0,0,0.05,43.95,0)" xlink:href="#Q"/><use transform="matrix(0.05,0,0,0.05,52.95,0)" xlink:href="#J"/><use transform="matrix(0.05,0,0,0.05,58.900000000000006,0)" xlink:href="#P"/><use transform="matrix(0.05,0,0,0.05,68.9,0)" xlink:href="#R"/><use transform="matrix(0.05,0,0,0.05,73.9,0)" xlink:href="#S"/><path fill="#333" d="M-.9 1.25h81.7v1.32H-.9z"/></g><path fill="#fafafa" d="M266 0h-40l-56-210L115 0H75L2-248h35L96-30l15-64 43-154h32l59 218 59-218h35" id="T"/><path fill="#fafafa" d="M141-36C126-15 110 5 73 4 37 3 15-17 15-53c-1-64 63-63 125-63 3-35-9-54-41-54-24 1-41 7-42 31l-33-3c5-37 33-52 76-52 45 0 72 20 72 64v82c-1 20 7 32 28 27v20c-31 9-61-2-59-35zM48-53c0 20 12 33 32 33 41-3 63-29 60-74-43 2-92-5-92 41" id="U"/><path fill="#fafafa" d="M24 0v-261h32V0H24" id="V"/><path fill="#fafafa" d="M100-194c63 0 86 42 84 106H49c0 40 14 67 53 68 26 1 43-12 49-29l28 8c-11 28-37 45-77 45C44 4 14-33 15-96c1-61 26-98 85-98zm52 81c6-60-76-77-97-28-3 7-6 17-6 28h103" id="W"/><path fill="#fafafa" d="M59-47c-2 24 18 29 38 22v24C64 9 27 4 27-40v-127H5v-23h24l9-43h21v43h35v23H59v120" id="X"/><g id="c"><use transform="matrix(0.05,0,0,0.05,0,0)" xlink:href="#T"/><use transform="matrix(0.05,0,0,0.05,16.3,0)" xlink:href="#U"/><use transform="matrix(0.05,0,0,0.05,26.3,0)" xlink:href="#V"/><use transform="matrix(0.05,0,0,0.05,30.25,0)" xlink:href="#V"/><use transform="matrix(0.05,0,0,0.05,34.2,0)" xlink:href="#W"/><use transform="matrix(0.05,0,0,0.05,44.2,0)" xlink:href="#X"/><path fill="#fafafa" d="M-.9 1.25h51v1.32h-51z"/></g><path fill="#fafafa" d="M87 75C49 33 22-17 22-94c0-76 28-126 65-167h31c-38 41-64 92-64 168S80 34 118 75H87" id="Y"/><path fill="#fafafa" d="M96-169c-40 0-48 33-48 73s9 75 48 75c24 0 41-14 43-38l32 2c-6 37-31 61-74 61-59 0-76-41-82-99-10-93 101-131 147-64 4 7 5 14 7 22l-32 3c-4-21-16-35-41-35" id="Z"/><path fill="#fafafa" d="M100-194c62-1 85 37 85 99 1 63-27 99-86 99S16-35 15-95c0-66 28-99 85-99zM99-20c44 1 53-31 53-75 0-43-8-75-51-75s-53 32-53 75 10 74 51 75" id="aa"/><path fill="#fafafa" d="M84 4C-5 8 30-112 23-190h32v120c0 31 7 50 39 49 72-2 45-101 50-169h31l1 190h-30c-1-10 1-25-2-33-11 22-28 36-60 37" id="ab"/><path fill="#fafafa" d="M117-194c89-4 53 116 60 194h-32v-121c0-31-8-49-39-48C34-167 62-67 57 0H25l-1-190h30c1 10-1 24 2 32 11-22 29-35 61-36" id="ac"/><g id="d"><use transform="matrix(0.05,0,0,0.05,0,0)" xlink:href="#Y"/><use transform="matrix(0.05,0,0,0.05,5.95,0)" xlink:href="#U"/><use transform="matrix(0.05,0,0,0.05,15.949999999999998,0)" xlink:href="#Z"/><use transform="matrix(0.05,0,0,0.05,24.95,0)" xlink:href="#Z"/><use transform="matrix(0.05,0,0,0.05,33.95,0)" xlink:href="#aa"/><use transform="matrix(0.05,0,0,0.05,43.95,0)" xlink:href="#ab"/><use transform="matrix(0.05,0,0,0.05,53.95,0)" xlink:href="#ac"/><use transform="matrix(0.05,0,0,0.05,63.95,0)" xlink:href="#X"/><path fill="#fafafa" d="M-.9 1.25h75.75v1.32H-.9z"/></g><path fill="#fafafa" d="M206 0h-36l-40-164L89 0H53L-1-190h32L70-26l43-164h34l41 164 42-164h31" id="ad"/><path fill="#fafafa" d="M114-163C36-179 61-72 57 0H25l-1-190h30c1 12-1 29 2 39 6-27 23-49 58-41v29" id="ae"/><path fill="#fafafa" d="M115-194c55 1 70 41 70 98S169 2 115 4C84 4 66-9 55-30l1 105H24l-1-265h31l2 30c10-21 28-34 59-34zm-8 174c40 0 45-34 45-75s-6-73-45-74c-42 0-51 32-51 76 0 43 10 73 51 73" id="af"/><path fill="#fafafa" d="M33-261c38 41 65 92 65 168S71 34 33 75H2C39 34 66-17 66-93S39-220 2-261h31" id="ag"/><g id="e"><use transform="matrix(0.05,0,0,0.05,0,0)" xlink:href="#ad"/><use transform="matrix(0.05,0,0,0.05,12.950000000000001,0)" xlink:href="#ae"/><use transform="matrix(0.05,0,0,0.05,18.900000000000002,0)" xlink:href="#U"/><use transform="matrix(0.05,0,0,0.05,28.900000000000002,0)" xlink:href="#af"/><use transform="matrix(0.05,0,0,0.05,38.900000000000006,0)" xlink:href="#af"/><use transform="matrix(0.05,0,0,0.05,48.900000000000006,0)" xlink:href="#W"/><use transform="matrix(0.05,0,0,0.05,58.900000000000006,0)" xlink:href="#ae"/><use transform="matrix(0.05,0,0,0.05,64.85000000000001,0)" xlink:href="#ag"/><path fill="#fafafa" d="M-.9 1.25h72.6v1.32H-.9z"/></g><path fill="#333" d="M33 0v-248h34V0H33" id="ah"/><g id="f"><use transform="matrix(0.05,0,0,0.05,0,0)" xlink:href="#ah"/><use transform="matrix(0.05,0,0,0.05,5,0)" xlink:href="#G"/><use transform="matrix(0.05,0,0,0.05,15,0)" xlink:href="#H"/><use transform="matrix(0.05,0,0,0.05,20,0)" xlink:href="#I"/><use transform="matrix(0.05,0,0,0.05,30,0)" xlink:href="#J"/><use transform="matrix(0.05,0,0,0.05,35.95,0)" xlink:href="#K"/><path fill="#333" d="M-.9 1.25h52.75v1.32H-.9z"/></g><path fill="#333" d="M87 75C49 33 22-17 22-94c0-76 28-126 65-167h31c-38 41-64 92-64 168S80 34 118 75H87" id="ai"/><path fill="#333" d="M115-194c55 1 70 41 70 98S169 2 115 4C84 4 66-9 55-30l1 105H24l-1-265h31l2 30c10-21 28-34 59-34zm-8 174c40 0 45-34 45-75s-6-73-45-74c-42 0-51 32-51 76 0 43 10 73 51 73" id="aj"/><path fill="#333" d="M33-261c38 41 65 92 65 168S71 34 33 75H2C39 34 66-17 66-93S39-220 2-261h31" id="ak"/><g id="g"><use transform="matrix(0.05,0,0,0.05,0,0)" xlink:href="#ai"/><use transform="matrix(0.05,0,0,0.05,5.95,0)" xlink:href="#K"/><use transform="matrix(0.05,0,0,0.05,15.949999999999998,0)" xlink:href="#aj"/><use transform="matrix(0.05,0,0,0.05,25.950000000000003,0)" xlink:href="#F"/><use transform="matrix(0.05,0,0,0.05,29.899999999999995,0)" xlink:href="#ak"/><path fill="#333" d="M-.9 1.25h37.65v1.32H-.9z"/></g><path fill="#fafafa" d="M30-248c87 1 191-15 191 75 0 78-77 80-158 76V0H30v-248zm33 125c57 0 124 11 124-50 0-59-68-47-124-48v98" id="al"/><path fill="#fafafa" d="M108 0H70L1-190h34L89-25l56-165h34" id="am"/><path fill="#fafafa" d="M24-231v-30h32v30H24zM24 0v-190h32V0H24" id="an"/><path fill="#fafafa" d="M85-194c31 0 48 13 60 33l-1-100h32l1 261h-30c-2-10 0-23-3-31C134-8 116 4 85 4 32 4 16-35 15-94c0-66 23-100 70-100zm9 24c-40 0-46 34-46 75 0 40 6 74 45 74 42 0 51-32 51-76 0-42-9-74-50-73" id="ao"/><g id="h"><use transform="matrix(0.05,0,0,0.05,0,0)" xlink:href="#al"/><use transform="matrix(0.05,0,0,0.05,12,0)" xlink:href="#ae"/><use transform="matrix(0.05,0,0,0.05,17.95,0)" xlink:href="#aa"/><use transform="matrix(0.05,0,0,0.05,27.950000000000003,0)" xlink:href="#am"/><use transform="matrix(0.05,0,0,0.05,36.95,0)" xlink:href="#an"/><use transform="matrix(0.05,0,0,0.05,40.900000000000006,0)" xlink:href="#ao"/><use transform="matrix(0.05,0,0,0.05,50.900000000000006,0)" xlink:href="#W"/><use transform="matrix(0.05,0,0,0.05,60.900000000000006,0)" xlink:href="#ae"/><path fill="#fafafa" d="M-.9 1.25h68.65v1.32H-.9z"/></g><path fill="#fafafa" d="M141 0L90-78 38 0H4l68-98-65-92h35l48 74 47-74h35l-64 92 68 98h-35" id="ap"/><path fill="#fafafa" d="M33 0v-38h34V0H33" id="aq"/><path fill="#fafafa" d="M24-231v-30h32v30H24zM-9 49c24 4 33-6 33-30v-209h32V24c2 40-23 58-65 49V49" id="ar"/><path fill="#fafafa" d="M135-143c-3-34-86-38-87 0 15 53 115 12 119 90S17 21 10-45l28-5c4 36 97 45 98 0-10-56-113-15-118-90-4-57 82-63 122-42 12 7 21 19 24 35" id="as"/><g id="i"><use transform="matrix(0.05,0,0,0.05,0,0)" xlink:href="#an"/><use transform="matrix(0.05,0,0,0.05,3.95,0)" xlink:href="#ac"/><use transform="matrix(0.05,0,0,0.05,13.949999999999998,0)" xlink:href="#ao"/><use transform="matrix(0.05,0,0,0.05,23.95,0)" xlink:href="#W"/><use transform="matrix(0.05,0,0,0.05,33.95,0)" xlink:href="#ap"/><use transform="matrix(0.05,0,0,0.05,42.95,0)" xlink:href="#aq"/><use transform="matrix(0.05,0,0,0.05,47.95,0)" xlink:href="#ar"/><use transform="matrix(0.05,0,0,0.05,51.900000000000006,0)" xlink:href="#as"/><path fill="#fafafa" d="M-.9 1.25h62.7v1.32H-.9z"/></g><path fill="#333" d="M100-194c62-1 85 37 85 99 1 63-27 99-86 99S16-35 15-95c0-66 28-99 85-99zM99-20c44 1 53-31 53-75 0-43-8-75-51-75s-53 32-53 75 10 74 51 75" id="at"/><path fill="#333" d="M33 0v-38h34V0H33" id="au"/><path fill="#333" d="M24-231v-30h32v30H24zM-9 49c24 4 33-6 33-30v-209h32V24c2 40-23 58-65 49V49" id="av"/><g id="j"><use transform="matrix(0.05,0,0,0.05,0,0)" xlink:href="#G"/><use transform="matrix(0.05,0,0,0.05,10,0)" xlink:href="#at"/><use transform="matrix(0.05,0,0,0.05,20,0)" xlink:href="#M"/><use transform="matrix(0.05,0,0,0.05,30,0)" xlink:href="#P"/><use transform="matrix(0.05,0,0,0.05,40,0)" xlink:href="#au"/><use transform="matrix(0.05,0,0,0.05,45,0)" xlink:href="#av"/><use transform="matrix(0.05,0,0,0.05,48.95,0)" xlink:href="#O"/></g><path fill="#333" d="M24 0v-261h32V0H24" id="aw"/><g id="k"><use transform="matrix(0.05,0,0,0.05,0,0)" xlink:href="#Q"/><use transform="matrix(0.05,0,0,0.05,9,0)" xlink:href="#at"/><use transform="matrix(0.05,0,0,0.05,19,0)" xlink:href="#G"/><use transform="matrix(0.05,0,0,0.05,29,0)" xlink:href="#O"/><use transform="matrix(0.05,0,0,0.05,38,0)" xlink:href="#at"/><use transform="matrix(0.05,0,0,0.05,48,0)" xlink:href="#aw"/><use transform="matrix(0.05,0,0,0.05,51.95,0)" xlink:href="#P"/></g><g id="l"><use transform="matrix(0.05,0,0,0.05,0,0)" xlink:href="#K"/><use transform="matrix(0.05,0,0,0.05,10,0)" xlink:href="#aj"/><use transform="matrix(0.05,0,0,0.05,20,0)" xlink:href="#aj"/><use transform="matrix(0.05,0,0,0.05,30,0)" xlink:href="#aw"/><use transform="matrix(0.05,0,0,0.05,33.95,0)" xlink:href="#F"/><use transform="matrix(0.05,0,0,0.05,37.900000000000006,0)" xlink:href="#Q"/><use transform="matrix(0.05,0,0,0.05,46.900000000000006,0)" xlink:href="#K"/><use transform="matrix(0.05,0,0,0.05,56.900000000000006,0)" xlink:href="#R"/><use transform="matrix(0.05,0,0,0.05,61.900000000000006,0)" xlink:href="#F"/><use transform="matrix(0.05,0,0,0.05,65.85000000000001,0)" xlink:href="#at"/><use transform="matrix(0.05,0,0,0.05,75.85000000000001,0)" xlink:href="#G"/></g><path fill="#333" d="M106-169C34-169 62-67 57 0H25v-261h32l-1 103c12-21 28-36 61-36 89 0 53 116 60 194h-32v-121c2-32-8-49-39-48" id="ax"/><g id="m"><use transform="matrix(0.05,0,0,0.05,0,0)" xlink:href="#P"/><use transform="matrix(0.05,0,0,0.05,10,0)" xlink:href="#R"/><use transform="matrix(0.05,0,0,0.05,15,0)" xlink:href="#ax"/><use transform="matrix(0.05,0,0,0.05,25,0)" xlink:href="#P"/><use transform="matrix(0.05,0,0,0.05,35,0)" xlink:href="#J"/><use transform="matrix(0.05,0,0,0.05,40.95,0)" xlink:href="#O"/><use transform="matrix(0.05,0,0,0.05,49.95,0)" xlink:href="#au"/><use transform="matrix(0.05,0,0,0.05,54.95,0)" xlink:href="#av"/><use transform="matrix(0.05,0,0,0.05,58.900000000000006,0)" xlink:href="#O"/></g><path fill="#333" d="M115-194c53 0 69 39 70 98 0 66-23 100-70 100C84 3 66-7 56-30L54 0H23l1-261h32v101c10-23 28-34 59-34zm-8 174c40 0 45-34 45-75 0-40-5-75-45-74-42 0-51 32-51 76 0 43 10 73 51 73" id="ay"/><path fill="#333" d="M179-190L93 31C79 59 56 82 12 73V49c39 6 53-20 64-50L1-190h34L92-34l54-156h33" id="az"/><g id="n"><use transform="matrix(0.05,0,0,0.05,0,0)" xlink:href="#aw"/><use transform="matrix(0.05,0,0,0.05,3.95,0)" xlink:href="#F"/><use transform="matrix(0.05,0,0,0.05,7.9,0)" xlink:href="#ay"/><use transform="matrix(0.05,0,0,0.05,17.9,0)" xlink:href="#J"/><use transform="matrix(0.05,0,0,0.05,23.849999999999998,0)" xlink:href="#K"/><use transform="matrix(0.05,0,0,0.05,33.849999999999994,0)" xlink:href="#J"/><use transform="matrix(0.05,0,0,0.05,39.8,0)" xlink:href="#az"/></g><g id="o"><use transform="matrix(0.05,0,0,0.05,0,0)" xlink:href="#K"/><use transform="matrix(0.05,0,0,0.05,10,0)" xlink:href="#Q"/><use transform="matrix(0.05,0,0,0.05,19,0)" xlink:href="#Q"/><use transform="matrix(0.05,0,0,0.05,28,0)" xlink:href="#at"/><use transform="matrix(0.05,0,0,0.05,38,0)" xlink:href="#I"/><use transform="matrix(0.05,0,0,0.05,48,0)" xlink:href="#G"/><use transform="matrix(0.05,0,0,0.05,58,0)" xlink:href="#R"/><path fill="#333" d="M-.9 1.25h64.8v1.32H-.9z"/></g><path fill="#333" d="M108 0H70L1-190h34L89-25l56-165h34" id="aA"/><path fill="#333" d="M194 0L95-120 63-95V0H30v-248h33v124l119-124h40L117-140 236 0h-42" id="aB"/><g id="p"><use transform="matrix(0.05,0,0,0.05,0,0)" xlink:href="#L"/><use transform="matrix(0.05,0,0,0.05,6,0)" xlink:href="#K"/><use transform="matrix(0.05,0,0,0.05,16,0)" xlink:href="#M"/><use transform="matrix(0.05,0,0,0.05,26,0)" xlink:href="#M"/><use transform="matrix(0.05,0,0,0.05,36,0)" xlink:href="#J"/><use transform="matrix(0.05,0,0,0.05,40.95,0)" xlink:href="#N"/><use transform="matrix(0.05,0,0,0.05,45.95,0)" xlink:href="#aj"/><use transform="matrix(0.05,0,0,0.05,55.95,0)" xlink:href="#aA"/><use transform="matrix(0.05,0,0,0.05,64.95,0)" xlink:href="#R"/><use transform="matrix(0.05,0,0,0.05,69.95,0)" xlink:href="#aB"/><use transform="matrix(0.05,0,0,0.05,81.95,0)" xlink:href="#P"/><use transform="matrix(0.05,0,0,0.05,91.95,0)" xlink:href="#az"/><use transform="matrix(0.05,0,0,0.05,100.95,0)" xlink:href="#S"/><path fill="#333" d="M-.9 1.25h108.75v1.32H-.9z"/></g><path fill="#333" d="M206 0h-36l-40-164L89 0H53L-1-190h32L70-26l43-164h34l41 164 42-164h31" id="aC"/><g id="q"><use transform="matrix(0.05,0,0,0.05,0,0)" xlink:href="#G"/><use transform="matrix(0.05,0,0,0.05,10,0)" xlink:href="#P"/><use transform="matrix(0.05,0,0,0.05,20,0)" xlink:href="#aC"/><use transform="matrix(0.05,0,0,0.05,32.95,0)" xlink:href="#ai"/><use transform="matrix(0.05,0,0,0.05,38.900000000000006,0)" xlink:href="#F"/><use transform="matrix(0.05,0,0,0.05,42.85000000000001,0)" xlink:href="#G"/><use transform="matrix(0.05,0,0,0.05,52.85,0)" xlink:href="#H"/><use transform="matrix(0.05,0,0,0.05,57.85,0)" xlink:href="#I"/><use transform="matrix(0.05,0,0,0.05,67.85000000000001,0)" xlink:href="#J"/><use transform="matrix(0.05,0,0,0.05,73.80000000000001,0)" xlink:href="#K"/><use transform="matrix(0.05,0,0,0.05,83.80000000000001,0)" xlink:href="#ak"/></g><g id="r"><use transform="matrix(0.05,0,0,0.05,0,0)" xlink:href="#G"/><use transform="matrix(0.05,0,0,0.05,10,0)" xlink:href="#P"/><use transform="matrix(0.05,0,0,0.05,20,0)" xlink:href="#aC"/><use transform="matrix(0.05,0,0,0.05,32.95,0)" xlink:href="#ai"/><use transform="matrix(0.05,0,0,0.05,38.900000000000006,0)" xlink:href="#K"/><use transform="matrix(0.05,0,0,0.05,48.900000000000006,0)" xlink:href="#Q"/><use transform="matrix(0.05,0,0,0.05,57.900000000000006,0)" xlink:href="#Q"/><use transform="matrix(0.05,0,0,0.05,66.9,0)" xlink:href="#at"/><use transform="matrix(0.05,0,0,0.05,76.9,0)" xlink:href="#I"/><use transform="matrix(0.05,0,0,0.05,86.9,0)" xlink:href="#G"/><use transform="matrix(0.05,0,0,0.05,96.9,0)" xlink:href="#R"/><use transform="matrix(0.05,0,0,0.05,101.9,0)" xlink:href="#N"/><use transform="matrix(0.05,0,0,0.05,106.9,0)" xlink:href="#aj"/><use transform="matrix(0.05,0,0,0.05,116.9,0)" xlink:href="#J"/><use transform="matrix(0.05,0,0,0.05,122.85000000000001,0)" xlink:href="#at"/><use transform="matrix(0.05,0,0,0.05,132.85000000000002,0)" xlink:href="#aA"/><use transform="matrix(0.05,0,0,0.05,141.85000000000002,0)" xlink:href="#F"/><use transform="matrix(0.05,0,0,0.05,145.8,0)" xlink:href="#M"/><use transform="matrix(0.05,0,0,0.05,155.8,0)" xlink:href="#P"/><use transform="matrix(0.05,0,0,0.05,165.8,0)" xlink:href="#J"/><use transform="matrix(0.05,0,0,0.05,171.75,0)" xlink:href="#ak"/></g><path fill="#333" d="M127-220V0H93v-220H8v-28h204v28h-85" id="aD"/><g id="s"><use transform="matrix(0.07469135802469135,0,0,0.07469135802469135,0,0)" xlink:href="#aD"/><use transform="matrix(0.07469135802469135,0,0,0.07469135802469135,15.386419753086416,0)" xlink:href="#J"/><use transform="matrix(0.07469135802469135,0,0,0.07469135802469135,24.274691358024686,0)" xlink:href="#K"/><use transform="matrix(0.07469135802469135,0,0,0.07469135802469135,39.212962962962955,0)" xlink:href="#G"/><use transform="matrix(0.07469135802469135,0,0,0.07469135802469135,54.15123456790123,0)" xlink:href="#O"/><use transform="matrix(0.07469135802469135,0,0,0.07469135802469135,67.59567901234567,0)" xlink:href="#H"/><use transform="matrix(0.07469135802469135,0,0,0.07469135802469135,75.06481481481481,0)" xlink:href="#P"/><use transform="matrix(0.07469135802469135,0,0,0.07469135802469135,90.00308641975307,0)" xlink:href="#J"/></g><path fill="#333" d="M30 0v-248h187v28H63v79h144v27H63v87h162V0H30" id="aE"/><g id="t"><use transform="matrix(0.07469135802469135,0,0,0.07469135802469135,0,0)" xlink:href="#aE"/><use transform="matrix(0.07469135802469135,0,0,0.07469135802469135,17.925925925925924,0)" xlink:href="#R"/><use transform="matrix(0.07469135802469135,0,0,0.07469135802469135,25.395061728395056,0)" xlink:href="#ax"/><use transform="matrix(0.07469135802469135,0,0,0.07469135802469135,40.33333333333333,0)" xlink:href="#P"/><use transform="matrix(0.07469135802469135,0,0,0.07469135802469135,55.271604938271594,0)" xlink:href="#J"/></g><path fill="#333" d="M210-169c-67 3-38 105-44 169h-31v-121c0-29-5-50-35-48C34-165 62-65 56 0H25l-1-190h30c1 10-1 24 2 32 10-44 99-50 107 0 11-21 27-35 58-36 85-2 47 119 55 194h-31v-121c0-29-5-49-35-48" id="aF"/><g id="u"><use transform="matrix(0.05,0,0,0.05,0,0)" xlink:href="#aE"/><use transform="matrix(0.05,0,0,0.05,12,0)" xlink:href="#R"/><use transform="matrix(0.05,0,0,0.05,17,0)" xlink:href="#ax"/><use transform="matrix(0.05,0,0,0.05,27,0)" xlink:href="#P"/><use transform="matrix(0.05,0,0,0.05,37,0)" xlink:href="#J"/><use transform="matrix(0.05,0,0,0.05,42.95,0)" xlink:href="#P"/><use transform="matrix(0.05,0,0,0.05,52.95,0)" xlink:href="#I"/><use transform="matrix(0.05,0,0,0.05,62.95,0)" xlink:href="#aF"/><path fill="#333" d="M-.9 1.25h79.7v1.32H-.9z"/></g><path fill="#333" d="M160-131c35 5 61 23 61 61C221 17 115-2 30 0v-248c76 3 177-17 177 60 0 33-19 50-47 57zm-97-11c50-1 110 9 110-42 0-47-63-36-110-37v79zm0 115c55-2 124 14 124-45 0-56-70-42-124-44v89" id="aG"/><path fill="#333" d="M143 0L79-87 56-68V0H24v-261h32v163l83-92h37l-77 82L181 0h-38" id="aH"/><g id="v"><use transform="matrix(0.05,0,0,0.05,0,0)" xlink:href="#aG"/><use transform="matrix(0.05,0,0,0.05,12,0)" xlink:href="#aw"/><use transform="matrix(0.05,0,0,0.05,15.949999999999998,0)" xlink:href="#at"/><use transform="matrix(0.05,0,0,0.05,25.950000000000003,0)" xlink:href="#Q"/><use transform="matrix(0.05,0,0,0.05,34.95,0)" xlink:href="#aH"/><use transform="matrix(0.05,0,0,0.05,43.95,0)" xlink:href="#Q"/><use transform="matrix(0.05,0,0,0.05,52.95,0)" xlink:href="#ax"/><use transform="matrix(0.05,0,0,0.05,62.95,0)" xlink:href="#K"/><use transform="matrix(0.05,0,0,0.05,72.95,0)" xlink:href="#F"/><use transform="matrix(0.05,0,0,0.05,76.9,0)" xlink:href="#G"/><path fill="#333" d="M-.9 1.25h88.7v1.32H-.9z"/></g><path fill="#333" d="M26 75v-336h71v23H56V52h41v23H26" id="aI"/><g id="w"><use transform="matrix(0.05,0,0,0.05,0,0)" xlink:href="#aI"/><use transform="matrix(0.05,0,0,0.05,5,0)" xlink:href="#Q"/><use transform="matrix(0.05,0,0,0.05,14,0)" xlink:href="#at"/><use transform="matrix(0.05,0,0,0.05,24,0)" xlink:href="#aF"/><use transform="matrix(0.05,0,0,0.05,38.95,0)" xlink:href="#aj"/><use transform="matrix(0.05,0,0,0.05,48.95,0)" xlink:href="#aw"/><use transform="matrix(0.05,0,0,0.05,52.900000000000006,0)" xlink:href="#P"/><use transform="matrix(0.05,0,0,0.05,62.900000000000006,0)" xlink:href="#R"/><use transform="matrix(0.05,0,0,0.05,67.9,0)" xlink:href="#P"/><use transform="matrix(0.05,0,0,0.05,77.9,0)" xlink:href="#M"/></g><path fill="#333" d="M141 0L90-78 38 0H4l68-98-65-92h35l48 74 47-74h35l-64 92 68 98h-35" id="aJ"/><path fill="#333" d="M3 75V52h41v-290H3v-23h71V75H3" id="aK"/><g id="x"><use transform="matrix(0.05,0,0,0.05,0,0)" xlink:href="#R"/><use transform="matrix(0.05,0,0,0.05,5,0)" xlink:href="#aJ"/><use transform="matrix(0.05,0,0,0.05,14,0)" xlink:href="#aK"/></g><path fill="#333" d="M177-190C167-65 218 103 67 71c-23-6-38-20-44-43l32-5c15 47 100 32 89-28v-30C133-14 115 1 83 1 29 1 15-40 15-95c0-56 16-97 71-98 29-1 48 16 59 35 1-10 0-23 2-32h30zM94-22c36 0 50-32 50-73 0-42-14-75-50-75-39 0-46 34-46 75s6 73 46 73" id="aL"/><g id="y"><use transform="matrix(0.05,0,0,0.05,0,0)" xlink:href="#aI"/><use transform="matrix(0.05,0,0,0.05,5,0)" xlink:href="#O"/><use transform="matrix(0.05,0,0,0.05,14,0)" xlink:href="#F"/><use transform="matrix(0.05,0,0,0.05,17.95,0)" xlink:href="#aL"/><use transform="matrix(0.05,0,0,0.05,27.950000000000003,0)" xlink:href="#G"/><use transform="matrix(0.05,0,0,0.05,37.95,0)" xlink:href="#P"/><use transform="matrix(0.05,0,0,0.05,47.95,0)" xlink:href="#M"/></g><g id="z"><use transform="matrix(0.05,0,0,0.05,0,0)" xlink:href="#aC"/><use transform="matrix(0.05,0,0,0.05,12.950000000000001,0)" xlink:href="#K"/><use transform="matrix(0.05,0,0,0.05,22.950000000000003,0)" xlink:href="#aw"/><use transform="matrix(0.05,0,0,0.05,26.900000000000002,0)" xlink:href="#aw"/><use transform="matrix(0.05,0,0,0.05,30.85,0)" xlink:href="#P"/><use transform="matrix(0.05,0,0,0.05,40.85,0)" xlink:href="#R"/><use transform="matrix(0.05,0,0,0.05,45.85,0)" xlink:href="#au"/><use transform="matrix(0.05,0,0,0.05,50.85,0)" xlink:href="#O"/><use transform="matrix(0.05,0,0,0.05,59.85,0)" xlink:href="#P"/><use transform="matrix(0.05,0,0,0.05,69.85,0)" xlink:href="#G"/><use transform="matrix(0.05,0,0,0.05,79.85,0)" xlink:href="#M"/><use transform="matrix(0.05,0,0,0.05,89.85,0)" xlink:href="#aD"/><use transform="matrix(0.05,0,0,0.05,100.14999999999999,0)" xlink:href="#J"/><use transform="matrix(0.05,0,0,0.05,106.09999999999998,0)" xlink:href="#K"/><use transform="matrix(0.05,0,0,0.05,116.09999999999998,0)" xlink:href="#G"/><use transform="matrix(0.05,0,0,0.05,126.09999999999998,0)" xlink:href="#O"/><use transform="matrix(0.05,0,0,0.05,135.1,0)" xlink:href="#K"/><use transform="matrix(0.05,0,0,0.05,145.1,0)" xlink:href="#Q"/><use transform="matrix(0.05,0,0,0.05,154.1,0)" xlink:href="#R"/><use transform="matrix(0.05,0,0,0.05,159.1,0)" xlink:href="#F"/><use transform="matrix(0.05,0,0,0.05,163.04999999999998,0)" xlink:href="#at"/><use transform="matrix(0.05,0,0,0.05,173.04999999999998,0)" xlink:href="#G"/><use transform="matrix(0.05,0,0,0.05,183.04999999999998,0)" xlink:href="#ai"/><use transform="matrix(0.05,0,0,0.05,188.99999999999997,0)" xlink:href="#R"/><use transform="matrix(0.05,0,0,0.05,193.99999999999997,0)" xlink:href="#aJ"/><use transform="matrix(0.05,0,0,0.05,202.99999999999997,0)" xlink:href="#ak"/></g><g id="A"><use transform="matrix(0.05,0,0,0.05,0,0)" xlink:href="#R"/><use transform="matrix(0.05,0,0,0.05,5,0)" xlink:href="#aJ"/><path fill="#333" d="M-.9 1.25h15.8v1.32H-.9z"/></g><path fill="#333" d="M-.9 1.25h6.8v1.32H-.9z" id="B"/><g id="C"><use transform="matrix(0.05,0,0,0.05,0,0)" xlink:href="#L"/><use transform="matrix(0.05,0,0,0.05,6,0)" xlink:href="#R"/><use transform="matrix(0.05,0,0,0.05,11,0)" xlink:href="#at"/><use transform="matrix(0.05,0,0,0.05,21,0)" xlink:href="#N"/><use transform="matrix(0.05,0,0,0.05,26,0)" xlink:href="#aA"/><use transform="matrix(0.05,0,0,0.05,35,0)" xlink:href="#K"/><use transform="matrix(0.05,0,0,0.05,45,0)" xlink:href="#aw"/><use transform="matrix(0.05,0,0,0.05,48.95,0)" xlink:href="#I"/><use transform="matrix(0.05,0,0,0.05,58.95,0)" xlink:href="#P"/><use transform="matrix(0.05,0,0,0.05,68.95,0)" xlink:href="#S"/><path fill="#333" d="M-.9 1.25h76.75v1.32H-.9z"/></g><g id="D"><use transform="matrix(0.05,0,0,0.05,0,0)" xlink:href="#aI"/><use transform="matrix(0.05,0,0,0.05,5,0)" xlink:href="#R"/><use transform="matrix(0.05,0,0,0.05,10,0)" xlink:href="#aJ"/><use transform="matrix(0.05,0,0,0.05,19,0)" xlink:href="#aK"/></g><g id="E"><use transform="matrix(0.05,0,0,0.05,0,0)" xlink:href="#aC"/><use transform="matrix(0.05,0,0,0.05,12.950000000000001,0)" xlink:href="#K"/><use transform="matrix(0.05,0,0,0.05,22.950000000000003,0)" xlink:href="#F"/><use transform="matrix(0.05,0,0,0.05,26.900000000000002,0)" xlink:href="#R"/><use transform="matrix(0.05,0,0,0.05,31.900000000000002,0)" xlink:href="#ai"/><use transform="matrix(0.05,0,0,0.05,37.85,0)" xlink:href="#ak"/></g></defs></g></svg>