<svg xmlns="http://www.w3.org/2000/svg" xmlns:xlink="http://www.w3.org/1999/xlink" xmlns:lucid="lucid" width="1160" height="1180"><g transform="translate(-389.9999999999991 -40)" lucid:page-tab-id="0_0"><path d="M490 335c0-2.76 2.24-5 5-5h110c2.76 0 5 2.24 5 5v50c0 2.76-2.24 5-5 5H495c-2.76 0-5-2.24-5-5z" stroke="#000" fill="#fff"/><use xlink:href="#a" transform="matrix(1,0,0,1,494.9999999999991,335) translate(32.55 17.525)"/><use xlink:href="#b" transform="matrix(1,0,0,1,494.9999999999991,335) translate(15.049999999999997 39.125)"/><path d="M1349.5 235c0-2.76 2.24-5 5-5h150c2.76 0 5 2.24 5 5v60c0 2.76-2.24 5-5 5h-150c-2.76 0-5-2.24-5-5z" stroke="#000" stroke-opacity="0" fill="#ff6b49"/><use xlink:href="#c" transform="matrix(1,0,0,1,1354.499999999999,235) translate(31.599999999999994 33.15)"/><use xlink:href="#d" transform="matrix(1,0,0,1,1354.499999999999,235) translate(82.55 33.15)"/><path d="M798.37 235c0-2.76 2.24-5 5-5h90c2.77 0 5 2.24 5 5v60c0 2.76-2.23 5-5 5h-90c-2.76 0-5-2.24-5-5z" stroke="#000" stroke-opacity="0" fill="#2535a0"/><use xlink:href="#e" transform="matrix(1,0,0,1,803.3749999999991,235) translate(11.574999999999996 33.15)"/><path d="M848.22 300.5v2m0 3.97v3.97m0 3.98v3.98m0 3.97v3.98m0 3.98v3.97m0 3.98v3.98m0 3.98v3.97m0 4v3.97m0 3.97v3.98m0 3.98v3.97m0 3.98v3.98m0 3.98V390m0 3.98v3.98m0 3.97v4m0 3.97v3.97m0 3.98v3.98m0 3.98v3.97m0 3.98v3.98m0 3.98v3.98m0 3.98v3.98m0 3.97v3.97m0 3.98v3.97m0 3.98v3.98m0 3.97v3.98m0 3.98v4m0 3.96v3.98m0 3.98v3.97m0 3.97v3.98m0 3.97v3.98m0 3.98v3.98m0 3.97v3.98m0 4v3.96m0 3.98v3.98m0 3.97v3.97m0 3.98v3.98m0 3.97v3.98m0 3.98v3.97m0 3.98v4m0 3.96v3.98m0 3.98v3.98m0 3.97v3.98m0 3.98v3.97m0 3.98v3.98m0 3.97v3.98m0 4v3.97m0 3.97v3.98m0 3.98v3.97m0 3.98v3.98m0 3.97v3.98m0 3.98v3.98m0 3.97v4m0 3.97v3.97m0 3.98v2l.26.62.63.26.64.26.26.63v1.98m0 3.98v3.97m0 3.98v4m0 3.96v3.98m0 3.98v3.98m0 3.97v3.98m0 3.98v3.97m0 3.98v3.98m0 3.97v3.98m0 4v3.97m0 3.97v3.98m0 3.98v3.97m0 3.98v3.98m0 3.97v3.98m0 3.98v3.98m0 3.97v4m0 3.97v3.97m0 3.98v3.98m0 3.97v3.98m0 3.98V869m0 3.98v3.98m0 3.98v3.97m0 4v3.97m0 3.97v3.98m0 3.98v3.98m0 3.97v3.98m0 3.98v3.98m0 3.98v3.98m0 3.97v4m0 3.97v3.98m0 3.97v3.98m0 3.98v3.97m0 3.98v3.98m0 3.98v3.98m0 3.98v3.98m0 3.97v3.97m0 3.98v3.97m0 3.98v3.98m0 3.98v3.97m0 3.98v4m0 3.96v3.98m0 3.98v3.97m0 3.97v3.98m0 3.98v3.97m0 3.98v3.98m0 3.97v3.98m0 4v3.96m0 3.98v3.98m0 3.98v3.97m0 3.98v3.98m0 3.97v3.98m0 3.98v3.97m0 3.98v2" stroke="#333" fill="none"/><path d="M848.72 300.5h-1v-.5h1z" fill="#333"/><path d="M850 1129.5v.5M1429.5 300.5v2m0 3.98v3.98m0 4v3.98m0 3.98v4m0 3.97v3.98m0 3.98v4m0 3.97v4m0 3.98v4m0 3.98v3.98m0 4v3.97m0 4v3.97m0 4v3.98m0 3.98v4m0 3.97v4m0 3.97v4m0 3.97v4m0 3.98v3.98m0 4V438m0 4v3.97m0 4v3.97m0 4v3.98m0 3.98v4m0 3.97v4m0 3.97v4m0 3.97v4m0 4v3.97m0 4v3.97m0 4v3.97m0 4v4m0 3.97v4m0 3.97v4m0 3.97v4m0 3.98v4m0 3.98v3.98m0 4v3.97m0 4v3.98m0 4v3.97m0 4v3.98m0 3.98v4m0 3.98v4m0 3.97v4m0 3.97v4m0 3.98v3.98m0 4v3.97m0 4v3.97m0 4v3.97m0 3.98v4m0 3.97v4m0 3.97v4m0 3.97v3.98m0 3.98v4m0 3.98v3.98m0 4v3.97m0 3.98v3.98m0 4v3.98m0 3.98v4m0 3.97v3.98m0 3.98v4m0 3.97v4m0 3.98v4m0 3.98v3.98m0 4v3.97m0 4v3.97m0 4v3.98m0 3.98v4m0 3.97v4m0 3.97v4m0 3.97v4m0 3.98v3.98m0 4v3.97m0 4v3.97m0 4v3.97m0 4v3.98m0 3.98v4m0 3.97v4m0 3.97v4m0 3.97v4m0 4v3.97m0 4v3.97m0 4v3.97m0 4v4m0 3.97v4m0 3.97v4m0 3.97v4m0 3.98v4m0 3.98v3.98m0 4V988m0 4v3.98m0 4v3.97m0 4v3.98m0 3.98v4m0 3.98v4m0 3.97v4m0 3.97v4m0 3.98v3.98m0 4v3.97m0 4v3.97m0 4v3.97m0 3.98v4m0 3.97v4m0 3.97v4m0 3.97v3.98m0 3.98v4m0 3.98v3.98m0 4v1.98" stroke="#333" fill="none"/><path d="M1430 300.5h-1v-.5h1z" fill="#333"/><path d="M1429.5 1129.5v.5" stroke="#333" fill="none"/><path d="M637.94 235c0-2.76 2.24-5 5-5h89c2.76 0 5 2.24 5 5v60c0 2.76-2.24 5-5 5h-89c-2.76 0-5-2.24-5-5z" stroke="#000" stroke-opacity="0" fill="#333"/><use xlink:href="#f" transform="matrix(1,0,0,1,642.9374999999973,235) translate(14.549999999999997 33.15)"/><path d="M687.44 300.5v13.12" stroke="#333" fill="none"/><path d="M687.94 300.5h-1v-.5h1z" fill="#333"/><path d="M687.44 328.38l-4.64-14.26h9.27z" stroke="#333" fill="#333"/><path d="M470 118c0-4.42 3.58-8 8-8h844c4.42 0 8 3.58 8 8v1024c0 4.42-3.58 8-8 8H478c-4.42 0-8-3.58-8-8z" stroke="#333" fill="#c1e4f7" fill-opacity=".19"/><use xlink:href="#g" transform="matrix(1,0,0,1,477.9999999999991,118) translate(314.125 15.6)"/><use xlink:href="#h" transform="matrix(1,0,0,1,477.9999999999991,118) translate(377.075 15.6)"/><use xlink:href="#i" transform="matrix(1,0,0,1,477.9999999999991,118) translate(444.025 15.6)"/><path d="M790 178c0-4.42 3.58-8 8-8h504c4.42 0 8 3.58 8 8v944c0 4.42-3.58 8-8 8H798c-4.42 0-8-3.58-8-8z" stroke="#333" fill="#c1e4f7" fill-opacity=".28"/><use xlink:href="#j" transform="matrix(1,0,0,1,797.9999999999991,178.0000000000001) translate(191.15 15.6)"/><use xlink:href="#k" transform="matrix(1,0,0,1,797.9999999999991,178.0000000000001) translate(264.05 15.6)"/><path d="M828.37 538c0-4.42 3.6-8 8-8h24c4.42 0 8 3.58 8 8v544c0 4.42-3.58 8-8 8h-24c-4.4 0-8-3.58-8-8zM667.44 338c0-4.42 3.58-8 8-8h24c4.42 0 8 3.58 8 8v744c0 4.42-3.58 8-8 8h-24c-4.42 0-8-3.58-8-8z" stroke="#333" fill="#fff"/><path d="M490 415c0-2.76 2.24-5 5-5h110c2.76 0 5 2.24 5 5v50c0 2.76-2.24 5-5 5H495c-2.76 0-5-2.24-5-5z" stroke="#000" fill="#fff"/><use xlink:href="#l" transform="matrix(1,0,0,1,494.9999999999991,415) translate(23.5 17.525)"/><use xlink:href="#m" transform="matrix(1,0,0,1,494.9999999999991,415) translate(1.5249999999999986 39.125)"/><path d="M611 360h39.55" stroke="#333" fill="none"/><path d="M611 360.5h-.5v-1h.5z" fill="#333"/><path d="M665.32 360l-14.27 4.64v-9.28z" stroke="#333" fill="#333"/><path d="M611 440h39.55" stroke="#333" fill="none"/><path d="M611 440.5h-.5v-1h.5z" fill="#333"/><path d="M665.32 440l-14.27 4.64v-9.28z" stroke="#333" fill="#333"/><path d="M708.44 532.67H813.5" stroke="#333" fill="none"/><path d="M708.45 533.17h-.5v-1h.5z" fill="#333"/><path d="M828.28 532.67L814 537.3v-9.27z" stroke="#333" fill="#333"/><use xlink:href="#n" transform="matrix(1,0,0,1,710.7139701645651,507.0666666666668) translate(0.005000000000002558 14.4)"/><path d="M708.44 699.33h284.68" stroke="#333" fill="none"/><path d="M708.45 699.83h-.5v-1h.5z" fill="#333"/><path d="M1007.88 699.33l-14.26 4.64v-9.27z" stroke="#333" fill="#333"/><use xlink:href="#o" transform="matrix(1,0,0,1,733.5944444444434,673.7333333333336) translate(0.0049999999999954525 14.4)"/><path d="M950 235c0-2.76 2.24-5 5-5h150c2.76 0 5 2.24 5 5v60c0 2.76-2.24 5-5 5H955c-2.76 0-5-2.24-5-5z" stroke="#000" stroke-opacity="0" fill="#2535a0"/><use xlink:href="#p" transform="matrix(1,0,0,1,954.9999999999991,235) translate(50.4 21.9)"/><use xlink:href="#q" transform="matrix(1,0,0,1,954.9999999999991,235) translate(2.625 43.5)"/><use xlink:href="#r" transform="matrix(1,0,0,1,954.9999999999991,235) translate(76.575 43.5)"/><path d="M1030.5 1129.5h-1v-2h1zm0-5.98h-1v-3.98h1zm0-7.97h-1v-4h1zm0-7.97h-1v-4h1zm0-7.97h-1v-3.98h1zm0-7.96h-1v-4h1zm0-7.97h-1v-4h1zm0-7.98h-1v-4h1zm0-7.98h-1v-3.98h1zm0-7.97h-1v-3.98h1zm0-7.97h-1v-3.98h1zm0-7.97h-1v-3.98h1zm0-7.96h-1v-4h1zm0-7.97h-1v-4h1zm0-7.97h-1v-4h1zm0-7.97h-1v-4h1zm0-7.98h-1v-3.98h1zm0-7.97h-1V992h1zm0-7.97h-1v-3.97h1zm0-7.96h-1v-3.98h1zm0-7.97h-1v-4h1zm0-7.97h-1v-4h1zm0-7.97h-1v-4h1zm0-7.97h-1v-4h1zm0-7.97h-1v-4h1zm0-8h-1v-3.97h1zm0-7.96h-1v-3.98h1zm0-7.97h-1v-3.98h1zm0-7.97h-1v-4h1zm0-7.97h-1v-4h1zm0-7.97h-1v-4h1zm0-7.97h-1v-4h1zm0-7.98h-1v-4h1zm0-7.98h-1v-3.98h1zm0-7.97h-1v-3.28h1zm0-24.88h-1v-3.03h1zm0-7h-1v-4h1zm0-7.98h-1v-4h1zm0-7.97h-1v-4h1zm0-7.97h-1v-4h1zm0-7.98h-1v-3.98h1zm0-7.97h-1v-3.98h1zm0-7.97h-1v-3.98h1zm0-7.97h-1v-4h1zm0-7.98h-1v-4h1zm0-7.97h-1v-4h1zm0-7.97h-1v-4h1zm0-7.97h-1v-3.98h1zm0-7.96h-1v-4h1zm0-7.98h-1v-3.98h1zm0-7.97h-1v-4h1zm0-7.98h-1v-3.98h1zm0-7.97h-1v-4h1zm0-7.97h-1v-4h1zm0-7.97h-1v-3.98h1zm0-7.96h-1v-4h1zm0-7.97h-1v-4h1zm0-7.98h-1v-4h1zm0-7.98h-1v-3.98h1zm0-7.97h-1v-3.98h1zm0-7.97h-1v-3.98h1zm0-7.97h-1v-3.98h1zm0-7.96h-1v-4h1zm0-7.97h-1v-4h1zm0-7.97h-1v-4h1zm0-7.97h-1v-4h1zm0-7.98h-1v-3.98h1zm0-7.97h-1v-3.98h1zm0-7.97h-1v-3.97h1zm0-7.96h-1v-3.98h1zm0-7.97h-1v-4h1zm0-7.97h-1v-4h1zm0-7.97h-1v-4h1zm0-7.97h-1v-4h1zm0-7.97h-1v-4h1zm0-8h-1v-3.97h1zm0-7.96h-1v-3.98h1zm0-7.97h-1v-3.98h1zm0-7.97h-1v-4h1zm0-7.97h-1v-4h1zm0-7.97h-1v-4h1zm0-7.97h-1v-4h1zm0-7.98h-1v-4h1zm0-7.98h-1v-3.98h1zm0-7.97h-1V442h1zm0-7.97h-1v-3.98h1zm0-7.97h-1v-3.98h1zm0-7.97h-1v-4h1zm0-7.97h-1v-4h1zm0-7.98h-1v-4h1zm0-7.97h-1v-4h1zm0-7.97h-1v-4h1zm0-7.98h-1v-3.98h1zm0-7.97h-1v-3.98h1zm0-7.97h-1v-3.98h1zm0-7.97h-1v-4h1zm0-7.98h-1v-4h1zm0-7.97h-1v-4h1zm0-7.97h-1v-4h1zm0-7.97h-1v-3.98h1zm0-7.96h-1v-4h1zm0-7.98h-1v-3.98h1zm0-7.97h-1v-2h1z" fill="#333"/><path d="M1030.5 300.5h-1v-.5h1zM1030.5 1130h-1v-.5h1z" fill="#333"/><use xlink:href="#s" transform="matrix(1,0,0,1,1013.5249999999991,835.5870375995449) translate(0.004999999999999005 14.4)"/><path d="M1010 678c0-4.42 3.58-8 8-8h24c4.42 0 8 3.58 8 8v404c0 4.42-3.58 8-8 8h-24c-4.42 0-8-3.58-8-8z" stroke="#333" fill="#fff"/><path d="M1130 235c0-2.76 2.24-5 5-5h150c2.76 0 5 2.24 5 5v60c0 2.76-2.24 5-5 5h-150c-2.76 0-5-2.24-5-5z" stroke="#000" stroke-opacity="0" fill="#2535a0"/><use xlink:href="#t" transform="matrix(1,0,0,1,1134.999999999999,235) translate(41.05 33.15)"/><path d="M1210 300.5v2m0 3.98v3.98m0 4v3.98m0 3.98v4m0 3.97v3.98m0 3.98v4m0 3.97v4m0 3.98v4m0 3.98v3.98m0 4v3.97m0 4v3.97m0 4v3.98m0 3.98v4m0 3.97v4m0 3.97v4m0 3.97v4m0 3.98v3.98m0 4V438m0 4v3.97m0 4v3.97m0 4v3.98m0 3.98v4m0 3.97v4m0 3.97v4m0 3.97v4m0 4v3.97m0 4v3.97m0 4v3.97m0 4v4m0 3.97v4m0 3.97v4m0 3.97v4m0 3.98v4m0 3.98v3.98m0 4v3.97m0 4v3.98m0 4v3.97m0 4v3.98m0 3.98v4m0 3.98v4m0 3.97v4m0 3.97v4m0 3.98v3.98m0 4v3.97m0 4v3.97m0 4v3.97m0 3.98v4m0 3.97v4m0 3.97v4m0 3.97v3.98m0 3.98v4m0 3.98v3.98m0 4v3.97m0 3.98v3.98m0 4v3.98m0 3.98v4m0 3.97v3.98m0 3.98v4m0 3.97v4m0 3.98v4m0 3.98v3.98m0 4v3.97m0 4v3.97m0 4v3.98m0 3.98v4m0 3.97v4m0 3.97v4m0 3.97v4m0 3.98v3.98m0 4v3.97m0 4v3.97m0 4v3.97m0 4v3.98m0 3.98v4m0 3.97v4m0 3.97v4m0 3.97v4m0 4v3.97m0 4v3.97m0 4v3.97m0 4v4m0 3.97v4m0 3.97v4m0 3.97v4m0 3.98v4m0 3.98v3.98m0 4V988m0 4v3.98m0 4v3.97m0 4v3.98m0 3.98v4m0 3.98v4m0 3.97v4m0 3.97v4m0 3.98v3.98m0 4v3.97m0 4v3.97m0 4v3.97m0 3.98v4m0 3.97v4m0 3.97v4m0 3.97v3.98m0 3.98v4m0 3.98v3.98m0 4v1.98" stroke="#333" fill="none"/><path d="M1210.5 300.5h-1v-.5h1z" fill="#333"/><path d="M1210 1129.5v.5" stroke="#333" fill="none"/><path d="M1190 818c0-4.42 3.58-8 8-8h24c4.42 0 8 3.58 8 8v264c0 4.42-3.58 8-8 8h-24c-4.42 0-8-3.58-8-8z" stroke="#333" fill="#fff"/><path d="M827.37 566.8h-4.9m-4.9 0h-9.82m-4.9 0H793m-4.9 0h-9.82m-4.9 0h-9.82m-4.9 0h-9.82m-4.9 0h-9.82m-4.9 0h-4.92" stroke="#333" fill="none"/><path d="M827.88 567.3h-.52v-1h.5z" fill="#333"/><path d="M709.56 566.8l14.26-4.62v9.27z" stroke="#333" fill="#333"/><use xlink:href="#u" transform="matrix(1,0,0,1,735.4812499999991,570.8113576618484) translate(0.005000000000002558 14.4)"/><path d="M1009 733.4h-5m-5.02 0h-10.02m-5 0h-10.03m-5 0H958.9m-5 0h-10.02m-5 0h-10.03m-5 0H913.8m-5 0h-10.03m-5.02 0h-10m-5.02 0h-10.02m-5 0h-10m-4.98 0h-9.95m-4.97 0h-9.95m-4.98 0h-9.96m-4.98 0H794m-4.97 0h-9.95m-4.98 0h-9.96m-4.97 0h-9.96m-4.97 0h-9.95m-4.98 0h-4.98" stroke="#333" fill="none"/><path d="M1009.5 733.9h-.5v-1h.5z" fill="#333"/><path d="M709.56 733.4l14.26-4.63v9.27z" stroke="#333" fill="#333"/><use xlink:href="#v" transform="matrix(1,0,0,1,952.852777777777,737.4078244740375) translate(0.004999999999999005 14.4)"/><path d="M1013.52 837.3H708.44v-1h305.08zm159.6 0h-126.64v-1h126.64z" fill="#333"/><path d="M708.45 837.3h-.5v-1h.5zM1187.88 836.8l-14.26 4.65v-9.27z" fill="#333"/><path d="M1189.5 836.8l-16.38 5.34V831.5zm-15.38 3.96l12.14-3.95-12.14-3.93z" fill="#333"/><use xlink:href="#w" transform="matrix(1,0,0,1,720.2361111111101,811.2125280126377) translate(0.0049999999999954525 14.4)"/><path d="M410 755c0-2.76 2.24-5 5-5h190c2.76 0 5 2.24 5 5v50c0 2.76-2.24 5-5 5H415c-2.76 0-5-2.24-5-5z" stroke="#000" fill="#fff"/><use xlink:href="#x" transform="matrix(1,0,0,1,414.9999999999991,755) translate(44.55 17.525)"/><use xlink:href="#y" transform="matrix(1,0,0,1,414.9999999999991,755) translate(17.125 39.125)"/><path d="M611 780h39.55" stroke="#333" fill="none"/><path d="M611 780.5h-.5v-1h.5z" fill="#333"/><path d="M665.32 780l-14.27 4.64v-9.28z" stroke="#333" fill="#333"/><path d="M1189 862.2h-5v-1h5zm-10 0h-10v-1h10zm-14.98 0h-10v-1h10zm-15 0h-10v-1h10zm-14.98 0h-10v-1h10zm-15 0h-9.98v-1h10zm-14.98 0h-10v-1h10zm-15 0h-9.98v-1h10zm-14.98 0h-10v-1h10zm-15 0h-9.98v-1h10zm-14.98 0h-10v-1h10zm-15 0h-9.98v-1h10zm-14.98 0h-10v-1h10zm-15 0h-9.98v-1h10zm-14.98 0h-10v-1h10zm-15 0h-9.98v-1h10zm-14.98 0h-10v-1h10zm-15 0h-9.98v-1h10zm-14.98 0h-10v-1h10zm-15 0h-9.98v-1h10zm-14.98 0h-10v-1h10zm-15 0h-9.98v-1h10zm-14.98 0h-10v-1h10zm-15 0h-9.98v-1h10zm-14.97 0h-10v-1h10zm-15 0h-10v-1h10zm-14.98 0h-10v-1h10zm-15 0h-10v-1h10zm-14.98 0h-10v-1h10zm-15 0h-10v-1h10zm-15 0h-10v-1h10zm-14.98 0h-5v-1h5zM1189.5 862.2h-.5v-1h.5zM723.82 866.34l-14.26-4.63 14.26-4.63z" fill="#333"/><path d="M724.32 867.03l-16.38-5.32 16.38-5.32zm-13.15-5.32l12.15 3.95v-7.9z" fill="#333"/><use xlink:href="#z" transform="matrix(1,0,0,1,916.7437499999991,865.7062529385969) translate(0.004999999999999005 14.4)"/><path d="M708.44 921.07h704.68" stroke="#333" fill="none"/><path d="M708.45 921.57h-.5v-1h.5z" fill="#333"/><path d="M1427.88 921.07l-14.26 4.63v-9.27z" stroke="#333" fill="#333"/><use xlink:href="#A" transform="matrix(1,0,0,1,724.9277777777769,895.4682123774228) translate(0.0049999999999954525 14.4)"/><path d="M724.32 970h5m5 0h10m5 0h10m4.98 0h10m5 0h10m5 0h9.98m5 0h10m5 0h10m5 0h9.98m5 0h10m5 0h10m5 0h9.98m5 0h10m5 0h10m5 0h9.98m5 0h10m5 0h10m5 0h9.98m5 0h10m5 0h10m5 0h9.98m5 0h10m5 0h10m5 0h9.98m5 0h10m5 0h10m5 0h9.98m5 0h10m5 0h10m5 0h9.98m5 0h10m5 0h10m4.98 0h10m5 0h10m5 0h10m4.98 0h10m5 0h10m5 0h10m4.98 0h10m5 0h10m5 0h10m4.98 0h10m5 0h10m5 0h10m4.98 0h10m5 0h10m5 0h9.98m5 0h5" stroke="#333" fill="none"/><path d="M709.56 970l14.26-4.64v9.28z" stroke="#333" fill="#333"/><path d="M1429 970h.5" stroke="#333" fill="none"/><use xlink:href="#B" transform="matrix(1,0,0,1,897.5757897781084,944.4) translate(0.0049999999999954525 14.4)"/><path d="M724.32 1039.8h5m4.98 0h10m4.98 0h9.98m5 0h9.97m5 0h9.98m5 0h9.98m5 0h9.98m5 0h9.97m5 0h9.97m5 0h9.98m5 0h9.97m5 0H894m5 0H909m5 0h9.97m5 0h9.98m5 0h9.97m5 0h9.97m4.98 0h10m4.98 0h9.98m5 0h9.97m5 0h10m4.98 0h9.98m5 0h9.98m5 0h9.98m5 0h10m5.02 0h10m5 0h10.02m5 0h10m5 0h10.02m5 0h10m5.02 0h10m5 0h10.02m5 0h10m5 0h10.02m5 0h10m5 0h10.02m5 0h10m5.02 0h10m5 0h10.02m5 0h10m5 0h10.02m5 0h10m5.02 0h10m5 0h10.02m5 0h10m5 0H1404m5 0h10m5.02 0h5" stroke="#333" fill="none"/><path d="M709.56 1039.8l14.26-4.64v9.27z" stroke="#333" fill="#333"/><path d="M1429 1039.8h.5" stroke="#333" fill="none"/><g><use xlink:href="#C" transform="matrix(1,0,0,1,888.0654124078375,1043.7921312550745) translate(0.0049999999999954525 14.4)"/></g><path d="M450 68c0-4.42 3.58-8 8-8h1064c4.42 0 8 3.58 8 8v1124c0 4.42-3.58 8-8 8H458c-4.42 0-8-3.58-8-8z" fill-opacity="0"/><path d="M454.07 61.18l.82-.55L458 60h5m5 0h9.98m5 0h10m4.98 0h10m5 0h9.98m5 0h9.98m5 0h10m5 0h9.98m5 0h9.98m5 0h10m4.98 0h10m5 0h9.98m5 0h10m4.98 0h10m5 0h9.98m5 0h9.98m5 0h10m5 0h9.98m5 0h9.98m5 0h10m4.98 0h10m5 0h9.98m5 0h10m4.98 0h10m5 0h9.98m5 0h9.98m5 0h10m4.98 0h10m5 0h9.98m5 0h10m4.98 0h10m5 0h9.98m5 0h9.98m5 0h10m5 0h9.98m5 0h9.98m5 0h10m4.98 0h10m5 0h9.98m5 0h10m4.98 0h10m5 0h9.98m5 0h9.98m5 0h10m4.98 0h10m5 0h9.98m5 0h10m4.98 0h10m5 0h9.98m5 0h10m4.98 0h10m5 0h9.98m5 0h9.98m5 0h10m4.98 0h10m5 0h9.98m5 0h10m4.98 0h10m5 0h9.98m5 0h9.98m5 0h10m5 0h9.98m5 0h9.98m5 0h10m4.98 0h10m5 0h9.98m5 0h10m4.98 0h10m5 0h9.98m5 0h9.98m5 0h10m4.98 0h5l3.1.63.83.55m2.9 2.9l.54.8.63 3.12v5m0 5v9.98m0 5v10m0 4.98v10m0 5v9.98m0 5v10m0 4.98v10m0 5v9.98m0 5v10m0 4.98v10m0 5v9.98m0 5v10m0 4.98v10m0 5v9.98m0 5v10m0 4.98v10m0 5v9.98m0 5v10m0 4.98v10m0 5v9.98m0 5v10m0 4.98v10m0 5v9.98m0 5v10m0 4.98v10m0 5v9.98m0 5v10m0 4.98v10m0 5v9.98m0 5v10m0 4.98v10m0 5v9.98m0 5v10m0 4.98v10m0 5v9.98m0 5v10m0 4.98v10m0 5v9.98m0 5v10m0 4.98v10m0 5v9.98m0 5v10m0 4.98v10m0 5v9.98m0 5v10m0 4.98v10m0 5v9.98m0 5v10m0 4.98v10m0 5v9.98m0 5v10m0 4.98v10m0 5v9.98m0 5v10m0 4.98v10m0 5v9.98m0 5v10m0 4.98v10m0 5v9.98m0 5v10m0 4.98v10m0 5v9.98m0 5v10m0 4.98v10m0 5v9.98m0 5v10m0 4.98v10m0 5v9.98m0 5v10m0 4.98v10m0 5v9.98m0 5v10m0 4.98v10m0 5v9.98m0 5v10m0 4.98v5l-.63 3.1-.55.83m-2.9 2.9l-.8.54-3.12.63h-5m-5 0h-9.98m-5 0h-10m-4.98 0h-10m-5 0h-9.98m-5 0h-9.98m-5 0h-10m-5 0h-9.98m-5 0h-9.98m-5 0h-10m-4.98 0h-10m-5 0h-9.98m-5 0h-10m-4.98 0h-10m-5 0h-9.98m-5 0h-9.98m-5 0h-10m-5 0h-9.98m-5 0h-9.98m-5 0h-10m-4.98 0h-10m-5 0h-9.98m-5 0h-10m-4.98 0h-10m-5 0h-9.98m-5 0h-9.98m-5 0h-10m-4.98 0h-10m-5 0h-9.98m-5 0h-10m-4.98 0h-10m-5 0h-9.98m-5 0h-9.98m-5 0h-10m-5 0h-9.98m-5 0h-9.98m-5 0h-10m-4.98 0h-10m-5 0h-9.98m-5 0h-10m-4.98 0h-10m-5 0h-9.98m-5 0h-9.98m-5 0h-10m-4.98 0h-10m-5 0h-9.98m-5 0h-10m-4.98 0h-10m-5 0h-9.98m-5 0h-10m-4.98 0h-10m-5 0h-9.98m-5 0h-9.98m-5 0h-10m-4.98 0h-10m-5 0h-9.98m-5 0h-10m-4.98 0h-10m-5 0h-9.98m-5 0h-9.98m-5 0h-10m-5 0h-9.98m-5 0h-9.98m-5 0h-10m-4.98 0h-10m-5 0h-9.98m-5 0h-10m-4.98 0h-10m-5 0h-9.98m-5 0H483m-5 0h-10m-4.98 0h-5l-3.1-.63-.83-.55m-2.9-2.9l-.54-.8-.63-3.12v-5m0-5v-9.98m0-5v-10m0-4.98v-10m0-5v-9.98m0-5v-10m0-4.98v-10m0-5v-9.98m0-5v-10m0-4.98v-10m0-5v-9.98m0-5v-10m0-4.98v-10m0-5v-9.98m0-5v-10m0-4.98v-10m0-5v-9.98m0-5v-10m0-4.98v-10m0-5v-9.98m0-5v-10m0-4.98v-10m0-5v-9.98m0-5v-10m0-4.98v-10m0-5v-9.98m0-5v-10m0-4.98v-10m0-5v-9.98m0-5v-10m0-4.98v-10m0-5v-9.98m0-5v-10m0-4.98v-10m0-5v-9.98m0-5v-10m0-4.98v-10m0-5v-9.98m0-5v-10m0-4.98v-10m0-5v-9.98m0-5v-10m0-4.98v-10m0-5v-9.98m0-5v-10m0-4.98v-10m0-5v-9.98m0-5v-10m0-4.98v-10m0-5v-9.98m0-5v-10m0-4.98v-10m0-5v-9.98m0-5v-10m0-4.98v-10m0-5v-9.98m0-5v-10m0-4.98v-10m0-5v-9.98m0-5v-10m0-4.98v-10m0-5v-9.98m0-5v-10m0-4.98v-10m0-5v-9.98m0-5v-10m0-4.98v-10m0-5v-9.98m0-5v-10m0-4.98v-10m0-5v-9.98m0-5v-10m0-4.98v-10m0-5V93m0-5v-10m0-4.98v-5l.63-3.1.55-.83" stroke="#333" fill="none"/><g><use xlink:href="#D" transform="matrix(1,0,0,1,457.9999999999991,68) translate(443.00524691358027 21.511111111111106)"/><use xlink:href="#E" transform="matrix(1,0,0,1,457.9999999999991,68) translate(549.3657407407408 21.511111111111106)"/></g><path d="M708.44 1011.06h704.68" stroke="#333" fill="none"/><path d="M708.45 1011.56h-.5v-1h.5z" fill="#333"/><path d="M1427.88 1011.06l-14.26 4.64v-9.27z" stroke="#333" fill="#333"/><g><use xlink:href="#F" transform="matrix(1,0,0,1,1046.818749999999,985.4616362077071) translate(0.004999999999999005 14.4)"/></g><defs><path fill="#333" d="M24-231v-30h32v30H24zM24 0v-190h32V0H24" id="G"/><path fill="#333" d="M117-194c89-4 53 116 60 194h-32v-121c0-31-8-49-39-48C34-167 62-67 57 0H25l-1-190h30c1 10-1 24 2 32 11-22 29-35 61-36" id="H"/><path fill="#333" d="M101-234c-31-9-42 10-38 44h38v23H63V0H32v-167H5v-23h27c-7-52 17-82 69-68v24" id="I"/><path fill="#333" d="M84 4C-5 8 30-112 23-190h32v120c0 31 7 50 39 49 72-2 45-101 50-169h31l1 190h-30c-1-10 1-25-2-33-11 22-28 36-60 37" id="J"/><path fill="#333" d="M114-163C36-179 61-72 57 0H25l-1-190h30c1 12-1 29 2 39 6-27 23-49 58-41v29" id="K"/><path fill="#333" d="M141-36C126-15 110 5 73 4 37 3 15-17 15-53c-1-64 63-63 125-63 3-35-9-54-41-54-24 1-41 7-42 31l-33-3c5-37 33-52 76-52 45 0 72 20 72 64v82c-1 20 7 32 28 27v20c-31 9-61-2-59-35zM48-53c0 20 12 33 32 33 41-3 63-29 60-74-43 2-92-5-92 41" id="L"/><g id="a"><use transform="matrix(0.05,0,0,0.05,0,0)" xlink:href="#G"/><use transform="matrix(0.05,0,0,0.05,3.95,0)" xlink:href="#H"/><use transform="matrix(0.05,0,0,0.05,13.949999999999998,0)" xlink:href="#I"/><use transform="matrix(0.05,0,0,0.05,18.95,0)" xlink:href="#J"/><use transform="matrix(0.05,0,0,0.05,28.950000000000003,0)" xlink:href="#K"/><use transform="matrix(0.05,0,0,0.05,34.9,0)" xlink:href="#L"/><path fill="#333" d="M-.9 1.25h46.7v1.32H-.9z"/></g><path fill="#333" d="M39-94c74 12-11 154 75 146v23c-44 4-70-10-70-52C44-23 55-84 6-82v-22c81 4-7-162 84-157h24v23c-82-15-2 131-75 144" id="M"/><path fill="#333" d="M85-194c31 0 48 13 60 33l-1-100h32l1 261h-30c-2-10 0-23-3-31C134-8 116 4 85 4 32 4 16-35 15-94c0-66 23-100 70-100zm9 24c-40 0-46 34-46 75 0 40 6 74 45 74 42 0 51-32 51-76 0-42-9-74-50-73" id="N"/><path fill="#333" d="M68-38c1 34 0 65-14 84H32c9-13 17-26 17-46H33v-38h35" id="O"/><path fill="#333" d="M135-143c-3-34-86-38-87 0 15 53 115 12 119 90S17 21 10-45l28-5c4 36 97 45 98 0-10-56-113-15-118-90-4-57 82-63 122-42 12 7 21 19 24 35" id="P"/><path fill="#333" d="M100-194c63 0 86 42 84 106H49c0 40 14 67 53 68 26 1 43-12 49-29l28 8c-11 28-37 45-77 45C44 4 14-33 15-96c1-61 26-98 85-98zm52 81c6-60-76-77-97-28-3 7-6 17-6 28h103" id="Q"/><path fill="#333" d="M96-169c-40 0-48 33-48 73s9 75 48 75c24 0 41-14 43-38l32 2c-6 37-31 61-74 61-59 0-76-41-82-99-10-93 101-131 147-64 4 7 5 14 7 22l-32 3c-4-21-16-35-41-35" id="R"/><path fill="#333" d="M59-47c-2 24 18 29 38 22v24C64 9 27 4 27-40v-127H5v-23h24l9-43h21v43h35v23H59v120" id="S"/><path fill="#333" d="M76-40C78 24 84 88 6 75V52C86 64 9-79 80-94c-40-6-34-59-34-106 1-29-11-41-40-38v-23c44-4 70 10 70 52 0 47-12 108 38 105v22c-26 1-39 14-38 42" id="T"/><g id="b"><use transform="matrix(0.05,0,0,0.05,0,0)" xlink:href="#M"/><use transform="matrix(0.05,0,0,0.05,6,0)" xlink:href="#G"/><use transform="matrix(0.05,0,0,0.05,9.95,0)" xlink:href="#N"/><use transform="matrix(0.05,0,0,0.05,19.95,0)" xlink:href="#O"/><use transform="matrix(0.05,0,0,0.05,24.95,0)" xlink:href="#P"/><use transform="matrix(0.05,0,0,0.05,33.95,0)" xlink:href="#Q"/><use transform="matrix(0.05,0,0,0.05,43.95,0)" xlink:href="#R"/><use transform="matrix(0.05,0,0,0.05,52.95,0)" xlink:href="#K"/><use transform="matrix(0.05,0,0,0.05,58.900000000000006,0)" xlink:href="#Q"/><use transform="matrix(0.05,0,0,0.05,68.9,0)" xlink:href="#S"/><use transform="matrix(0.05,0,0,0.05,73.9,0)" xlink:href="#T"/><path fill="#333" d="M-.9 1.25h81.7v1.32H-.9z"/></g><path fill="#333" d="M33 0v-248h34V0H33" id="U"/><g id="c"><use transform="matrix(0.05,0,0,0.05,0,0)" xlink:href="#U"/><use transform="matrix(0.05,0,0,0.05,5,0)" xlink:href="#H"/><use transform="matrix(0.05,0,0,0.05,15,0)" xlink:href="#I"/><use transform="matrix(0.05,0,0,0.05,20,0)" xlink:href="#J"/><use transform="matrix(0.05,0,0,0.05,30,0)" xlink:href="#K"/><use transform="matrix(0.05,0,0,0.05,35.95,0)" xlink:href="#L"/><path fill="#333" d="M-.9 1.25h52.75v1.32H-.9z"/></g><path fill="#333" d="M87 75C49 33 22-17 22-94c0-76 28-126 65-167h31c-38 41-64 92-64 168S80 34 118 75H87" id="V"/><path fill="#333" d="M115-194c55 1 70 41 70 98S169 2 115 4C84 4 66-9 55-30l1 105H24l-1-265h31l2 30c10-21 28-34 59-34zm-8 174c40 0 45-34 45-75s-6-73-45-74c-42 0-51 32-51 76 0 43 10 73 51 73" id="W"/><path fill="#333" d="M33-261c38 41 65 92 65 168S71 34 33 75H2C39 34 66-17 66-93S39-220 2-261h31" id="X"/><g id="d"><use transform="matrix(0.05,0,0,0.05,0,0)" xlink:href="#V"/><use transform="matrix(0.05,0,0,0.05,5.95,0)" xlink:href="#L"/><use transform="matrix(0.05,0,0,0.05,15.949999999999998,0)" xlink:href="#W"/><use transform="matrix(0.05,0,0,0.05,25.950000000000003,0)" xlink:href="#G"/><use transform="matrix(0.05,0,0,0.05,29.899999999999995,0)" xlink:href="#X"/><path fill="#333" d="M-.9 1.25h37.65v1.32H-.9z"/></g><path fill="#fafafa" d="M30-248c87 1 191-15 191 75 0 78-77 80-158 76V0H30v-248zm33 125c57 0 124 11 124-50 0-59-68-47-124-48v98" id="Y"/><path fill="#fafafa" d="M114-163C36-179 61-72 57 0H25l-1-190h30c1 12-1 29 2 39 6-27 23-49 58-41v29" id="Z"/><path fill="#fafafa" d="M100-194c62-1 85 37 85 99 1 63-27 99-86 99S16-35 15-95c0-66 28-99 85-99zM99-20c44 1 53-31 53-75 0-43-8-75-51-75s-53 32-53 75 10 74 51 75" id="aa"/><path fill="#fafafa" d="M108 0H70L1-190h34L89-25l56-165h34" id="ab"/><path fill="#fafafa" d="M24-231v-30h32v30H24zM24 0v-190h32V0H24" id="ac"/><path fill="#fafafa" d="M85-194c31 0 48 13 60 33l-1-100h32l1 261h-30c-2-10 0-23-3-31C134-8 116 4 85 4 32 4 16-35 15-94c0-66 23-100 70-100zm9 24c-40 0-46 34-46 75 0 40 6 74 45 74 42 0 51-32 51-76 0-42-9-74-50-73" id="ad"/><path fill="#fafafa" d="M100-194c63 0 86 42 84 106H49c0 40 14 67 53 68 26 1 43-12 49-29l28 8c-11 28-37 45-77 45C44 4 14-33 15-96c1-61 26-98 85-98zm52 81c6-60-76-77-97-28-3 7-6 17-6 28h103" id="ae"/><g id="e"><use transform="matrix(0.05,0,0,0.05,0,0)" xlink:href="#Y"/><use transform="matrix(0.05,0,0,0.05,12,0)" xlink:href="#Z"/><use transform="matrix(0.05,0,0,0.05,17.95,0)" xlink:href="#aa"/><use transform="matrix(0.05,0,0,0.05,27.950000000000003,0)" xlink:href="#ab"/><use transform="matrix(0.05,0,0,0.05,36.95,0)" xlink:href="#ac"/><use transform="matrix(0.05,0,0,0.05,40.900000000000006,0)" xlink:href="#ad"/><use transform="matrix(0.05,0,0,0.05,50.900000000000006,0)" xlink:href="#ae"/><use transform="matrix(0.05,0,0,0.05,60.900000000000006,0)" xlink:href="#Z"/><path fill="#fafafa" d="M-.9 1.25h68.65v1.32H-.9z"/></g><path fill="#fafafa" d="M117-194c89-4 53 116 60 194h-32v-121c0-31-8-49-39-48C34-167 62-67 57 0H25l-1-190h30c1 10-1 24 2 32 11-22 29-35 61-36" id="af"/><path fill="#fafafa" d="M141 0L90-78 38 0H4l68-98-65-92h35l48 74 47-74h35l-64 92 68 98h-35" id="ag"/><path fill="#fafafa" d="M33 0v-38h34V0H33" id="ah"/><path fill="#fafafa" d="M24-231v-30h32v30H24zM-9 49c24 4 33-6 33-30v-209h32V24c2 40-23 58-65 49V49" id="ai"/><path fill="#fafafa" d="M135-143c-3-34-86-38-87 0 15 53 115 12 119 90S17 21 10-45l28-5c4 36 97 45 98 0-10-56-113-15-118-90-4-57 82-63 122-42 12 7 21 19 24 35" id="aj"/><g id="f"><use transform="matrix(0.05,0,0,0.05,0,0)" xlink:href="#ac"/><use transform="matrix(0.05,0,0,0.05,3.95,0)" xlink:href="#af"/><use transform="matrix(0.05,0,0,0.05,13.949999999999998,0)" xlink:href="#ad"/><use transform="matrix(0.05,0,0,0.05,23.95,0)" xlink:href="#ae"/><use transform="matrix(0.05,0,0,0.05,33.95,0)" xlink:href="#ag"/><use transform="matrix(0.05,0,0,0.05,42.95,0)" xlink:href="#ah"/><use transform="matrix(0.05,0,0,0.05,47.95,0)" xlink:href="#ai"/><use transform="matrix(0.05,0,0,0.05,51.900000000000006,0)" xlink:href="#aj"/><path fill="#fafafa" d="M-.9 1.25h62.7v1.32H-.9z"/></g><path fill="#333" d="M100-194c62-1 85 37 85 99 1 63-27 99-86 99S16-35 15-95c0-66 28-99 85-99zM99-20c44 1 53-31 53-75 0-43-8-75-51-75s-53 32-53 75 10 74 51 75" id="ak"/><path fill="#333" d="M33 0v-38h34V0H33" id="al"/><path fill="#333" d="M24-231v-30h32v30H24zM-9 49c24 4 33-6 33-30v-209h32V24c2 40-23 58-65 49V49" id="am"/><g id="g"><use transform="matrix(0.05,0,0,0.05,0,0)" xlink:href="#H"/><use transform="matrix(0.05,0,0,0.05,10,0)" xlink:href="#ak"/><use transform="matrix(0.05,0,0,0.05,20,0)" xlink:href="#N"/><use transform="matrix(0.05,0,0,0.05,30,0)" xlink:href="#Q"/><use transform="matrix(0.05,0,0,0.05,40,0)" xlink:href="#al"/><use transform="matrix(0.05,0,0,0.05,45,0)" xlink:href="#am"/><use transform="matrix(0.05,0,0,0.05,48.95,0)" xlink:href="#P"/></g><path fill="#333" d="M24 0v-261h32V0H24" id="an"/><g id="h"><use transform="matrix(0.05,0,0,0.05,0,0)" xlink:href="#R"/><use transform="matrix(0.05,0,0,0.05,9,0)" xlink:href="#ak"/><use transform="matrix(0.05,0,0,0.05,19,0)" xlink:href="#H"/><use transform="matrix(0.05,0,0,0.05,29,0)" xlink:href="#P"/><use transform="matrix(0.05,0,0,0.05,38,0)" xlink:href="#ak"/><use transform="matrix(0.05,0,0,0.05,48,0)" xlink:href="#an"/><use transform="matrix(0.05,0,0,0.05,51.95,0)" xlink:href="#Q"/></g><g id="i"><use transform="matrix(0.05,0,0,0.05,0,0)" xlink:href="#L"/><use transform="matrix(0.05,0,0,0.05,10,0)" xlink:href="#W"/><use transform="matrix(0.05,0,0,0.05,20,0)" xlink:href="#W"/><use transform="matrix(0.05,0,0,0.05,30,0)" xlink:href="#an"/><use transform="matrix(0.05,0,0,0.05,33.95,0)" xlink:href="#G"/><use transform="matrix(0.05,0,0,0.05,37.900000000000006,0)" xlink:href="#R"/><use transform="matrix(0.05,0,0,0.05,46.900000000000006,0)" xlink:href="#L"/><use transform="matrix(0.05,0,0,0.05,56.900000000000006,0)" xlink:href="#S"/><use transform="matrix(0.05,0,0,0.05,61.900000000000006,0)" xlink:href="#G"/><use transform="matrix(0.05,0,0,0.05,65.85000000000001,0)" xlink:href="#ak"/><use transform="matrix(0.05,0,0,0.05,75.85000000000001,0)" xlink:href="#H"/></g><path fill="#333" d="M106-169C34-169 62-67 57 0H25v-261h32l-1 103c12-21 28-36 61-36 89 0 53 116 60 194h-32v-121c2-32-8-49-39-48" id="ao"/><g id="j"><use transform="matrix(0.05,0,0,0.05,0,0)" xlink:href="#Q"/><use transform="matrix(0.05,0,0,0.05,10,0)" xlink:href="#S"/><use transform="matrix(0.05,0,0,0.05,15,0)" xlink:href="#ao"/><use transform="matrix(0.05,0,0,0.05,25,0)" xlink:href="#Q"/><use transform="matrix(0.05,0,0,0.05,35,0)" xlink:href="#K"/><use transform="matrix(0.05,0,0,0.05,40.95,0)" xlink:href="#P"/><use transform="matrix(0.05,0,0,0.05,49.95,0)" xlink:href="#al"/><use transform="matrix(0.05,0,0,0.05,54.95,0)" xlink:href="#am"/><use transform="matrix(0.05,0,0,0.05,58.900000000000006,0)" xlink:href="#P"/></g><path fill="#333" d="M115-194c53 0 69 39 70 98 0 66-23 100-70 100C84 3 66-7 56-30L54 0H23l1-261h32v101c10-23 28-34 59-34zm-8 174c40 0 45-34 45-75 0-40-5-75-45-74-42 0-51 32-51 76 0 43 10 73 51 73" id="ap"/><path fill="#333" d="M179-190L93 31C79 59 56 82 12 73V49c39 6 53-20 64-50L1-190h34L92-34l54-156h33" id="aq"/><g id="k"><use transform="matrix(0.05,0,0,0.05,0,0)" xlink:href="#an"/><use transform="matrix(0.05,0,0,0.05,3.95,0)" xlink:href="#G"/><use transform="matrix(0.05,0,0,0.05,7.9,0)" xlink:href="#ap"/><use transform="matrix(0.05,0,0,0.05,17.9,0)" xlink:href="#K"/><use transform="matrix(0.05,0,0,0.05,23.849999999999998,0)" xlink:href="#L"/><use transform="matrix(0.05,0,0,0.05,33.849999999999994,0)" xlink:href="#K"/><use transform="matrix(0.05,0,0,0.05,39.8,0)" xlink:href="#aq"/></g><g id="l"><use transform="matrix(0.05,0,0,0.05,0,0)" xlink:href="#L"/><use transform="matrix(0.05,0,0,0.05,10,0)" xlink:href="#R"/><use transform="matrix(0.05,0,0,0.05,19,0)" xlink:href="#R"/><use transform="matrix(0.05,0,0,0.05,28,0)" xlink:href="#ak"/><use transform="matrix(0.05,0,0,0.05,38,0)" xlink:href="#J"/><use transform="matrix(0.05,0,0,0.05,48,0)" xlink:href="#H"/><use transform="matrix(0.05,0,0,0.05,58,0)" xlink:href="#S"/><path fill="#333" d="M-.9 1.25h64.8v1.32H-.9z"/></g><path fill="#333" d="M108 0H70L1-190h34L89-25l56-165h34" id="ar"/><path fill="#333" d="M194 0L95-120 63-95V0H30v-248h33v124l119-124h40L117-140 236 0h-42" id="as"/><g id="m"><use transform="matrix(0.05,0,0,0.05,0,0)" xlink:href="#M"/><use transform="matrix(0.05,0,0,0.05,6,0)" xlink:href="#L"/><use transform="matrix(0.05,0,0,0.05,16,0)" xlink:href="#N"/><use transform="matrix(0.05,0,0,0.05,26,0)" xlink:href="#N"/><use transform="matrix(0.05,0,0,0.05,36,0)" xlink:href="#K"/><use transform="matrix(0.05,0,0,0.05,40.95,0)" xlink:href="#O"/><use transform="matrix(0.05,0,0,0.05,45.95,0)" xlink:href="#W"/><use transform="matrix(0.05,0,0,0.05,55.95,0)" xlink:href="#ar"/><use transform="matrix(0.05,0,0,0.05,64.95,0)" xlink:href="#S"/><use transform="matrix(0.05,0,0,0.05,69.95,0)" xlink:href="#as"/><use transform="matrix(0.05,0,0,0.05,81.95,0)" xlink:href="#Q"/><use transform="matrix(0.05,0,0,0.05,91.95,0)" xlink:href="#aq"/><use transform="matrix(0.05,0,0,0.05,100.95,0)" xlink:href="#T"/><path fill="#333" d="M-.9 1.25h108.75v1.32H-.9z"/></g><path fill="#333" d="M206 0h-36l-40-164L89 0H53L-1-190h32L70-26l43-164h34l41 164 42-164h31" id="at"/><g id="n"><use transform="matrix(0.05,0,0,0.05,0,0)" xlink:href="#H"/><use transform="matrix(0.05,0,0,0.05,10,0)" xlink:href="#Q"/><use transform="matrix(0.05,0,0,0.05,20,0)" xlink:href="#at"/><use transform="matrix(0.05,0,0,0.05,32.95,0)" xlink:href="#V"/><use transform="matrix(0.05,0,0,0.05,38.900000000000006,0)" xlink:href="#G"/><use transform="matrix(0.05,0,0,0.05,42.85000000000001,0)" xlink:href="#H"/><use transform="matrix(0.05,0,0,0.05,52.85,0)" xlink:href="#I"/><use transform="matrix(0.05,0,0,0.05,57.85,0)" xlink:href="#J"/><use transform="matrix(0.05,0,0,0.05,67.85000000000001,0)" xlink:href="#K"/><use transform="matrix(0.05,0,0,0.05,73.80000000000001,0)" xlink:href="#L"/><use transform="matrix(0.05,0,0,0.05,83.80000000000001,0)" xlink:href="#X"/></g><g id="o"><use transform="matrix(0.05,0,0,0.05,0,0)" xlink:href="#H"/><use transform="matrix(0.05,0,0,0.05,10,0)" xlink:href="#Q"/><use transform="matrix(0.05,0,0,0.05,20,0)" xlink:href="#at"/><use transform="matrix(0.05,0,0,0.05,32.95,0)" xlink:href="#V"/><use transform="matrix(0.05,0,0,0.05,38.900000000000006,0)" xlink:href="#L"/><use transform="matrix(0.05,0,0,0.05,48.900000000000006,0)" xlink:href="#R"/><use transform="matrix(0.05,0,0,0.05,57.900000000000006,0)" xlink:href="#R"/><use transform="matrix(0.05,0,0,0.05,66.9,0)" xlink:href="#ak"/><use transform="matrix(0.05,0,0,0.05,76.9,0)" xlink:href="#J"/><use transform="matrix(0.05,0,0,0.05,86.9,0)" xlink:href="#H"/><use transform="matrix(0.05,0,0,0.05,96.9,0)" xlink:href="#S"/><use transform="matrix(0.05,0,0,0.05,101.9,0)" xlink:href="#O"/><use transform="matrix(0.05,0,0,0.05,106.9,0)" xlink:href="#W"/><use transform="matrix(0.05,0,0,0.05,116.9,0)" xlink:href="#K"/><use transform="matrix(0.05,0,0,0.05,122.85000000000001,0)" xlink:href="#ak"/><use transform="matrix(0.05,0,0,0.05,132.85000000000002,0)" xlink:href="#ar"/><use transform="matrix(0.05,0,0,0.05,141.85000000000002,0)" xlink:href="#G"/><use transform="matrix(0.05,0,0,0.05,145.8,0)" xlink:href="#N"/><use transform="matrix(0.05,0,0,0.05,155.8,0)" xlink:href="#Q"/><use transform="matrix(0.05,0,0,0.05,165.8,0)" xlink:href="#K"/><use transform="matrix(0.05,0,0,0.05,171.75,0)" xlink:href="#X"/></g><path fill="#fafafa" d="M266 0h-40l-56-210L115 0H75L2-248h35L96-30l15-64 43-154h32l59 218 59-218h35" id="au"/><path fill="#fafafa" d="M141-36C126-15 110 5 73 4 37 3 15-17 15-53c-1-64 63-63 125-63 3-35-9-54-41-54-24 1-41 7-42 31l-33-3c5-37 33-52 76-52 45 0 72 20 72 64v82c-1 20 7 32 28 27v20c-31 9-61-2-59-35zM48-53c0 20 12 33 32 33 41-3 63-29 60-74-43 2-92-5-92 41" id="av"/><path fill="#fafafa" d="M24 0v-261h32V0H24" id="aw"/><path fill="#fafafa" d="M59-47c-2 24 18 29 38 22v24C64 9 27 4 27-40v-127H5v-23h24l9-43h21v43h35v23H59v120" id="ax"/><g id="p"><use transform="matrix(0.05,0,0,0.05,0,0)" xlink:href="#au"/><use transform="matrix(0.05,0,0,0.05,16.3,0)" xlink:href="#av"/><use transform="matrix(0.05,0,0,0.05,26.3,0)" xlink:href="#aw"/><use transform="matrix(0.05,0,0,0.05,30.25,0)" xlink:href="#aw"/><use transform="matrix(0.05,0,0,0.05,34.2,0)" xlink:href="#ae"/><use transform="matrix(0.05,0,0,0.05,44.2,0)" xlink:href="#ax"/><path fill="#fafafa" d="M-.9 1.25h51v1.32h-51z"/></g><path fill="#fafafa" d="M87 75C49 33 22-17 22-94c0-76 28-126 65-167h31c-38 41-64 92-64 168S80 34 118 75H87" id="ay"/><path fill="#fafafa" d="M96-169c-40 0-48 33-48 73s9 75 48 75c24 0 41-14 43-38l32 2c-6 37-31 61-74 61-59 0-76-41-82-99-10-93 101-131 147-64 4 7 5 14 7 22l-32 3c-4-21-16-35-41-35" id="az"/><path fill="#fafafa" d="M84 4C-5 8 30-112 23-190h32v120c0 31 7 50 39 49 72-2 45-101 50-169h31l1 190h-30c-1-10 1-25-2-33-11 22-28 36-60 37" id="aA"/><g id="q"><use transform="matrix(0.05,0,0,0.05,0,0)" xlink:href="#ay"/><use transform="matrix(0.05,0,0,0.05,5.95,0)" xlink:href="#av"/><use transform="matrix(0.05,0,0,0.05,15.949999999999998,0)" xlink:href="#az"/><use transform="matrix(0.05,0,0,0.05,24.95,0)" xlink:href="#az"/><use transform="matrix(0.05,0,0,0.05,33.95,0)" xlink:href="#aa"/><use transform="matrix(0.05,0,0,0.05,43.95,0)" xlink:href="#aA"/><use transform="matrix(0.05,0,0,0.05,53.95,0)" xlink:href="#af"/><use transform="matrix(0.05,0,0,0.05,63.95,0)" xlink:href="#ax"/><path fill="#fafafa" d="M-.9 1.25h75.75v1.32H-.9z"/></g><path fill="#fafafa" d="M206 0h-36l-40-164L89 0H53L-1-190h32L70-26l43-164h34l41 164 42-164h31" id="aB"/><path fill="#fafafa" d="M115-194c55 1 70 41 70 98S169 2 115 4C84 4 66-9 55-30l1 105H24l-1-265h31l2 30c10-21 28-34 59-34zm-8 174c40 0 45-34 45-75s-6-73-45-74c-42 0-51 32-51 76 0 43 10 73 51 73" id="aC"/><path fill="#fafafa" d="M33-261c38 41 65 92 65 168S71 34 33 75H2C39 34 66-17 66-93S39-220 2-261h31" id="aD"/><g id="r"><use transform="matrix(0.05,0,0,0.05,0,0)" xlink:href="#aB"/><use transform="matrix(0.05,0,0,0.05,12.950000000000001,0)" xlink:href="#Z"/><use transform="matrix(0.05,0,0,0.05,18.900000000000002,0)" xlink:href="#av"/><use transform="matrix(0.05,0,0,0.05,28.900000000000002,0)" xlink:href="#aC"/><use transform="matrix(0.05,0,0,0.05,38.900000000000006,0)" xlink:href="#aC"/><use transform="matrix(0.05,0,0,0.05,48.900000000000006,0)" xlink:href="#ae"/><use transform="matrix(0.05,0,0,0.05,58.900000000000006,0)" xlink:href="#Z"/><use transform="matrix(0.05,0,0,0.05,64.85000000000001,0)" xlink:href="#aD"/><path fill="#fafafa" d="M-.9 1.25h72.6v1.32H-.9z"/></g><path fill="#333" d="M127-220V0H93v-220H8v-28h204v28h-85" id="aE"/><path fill="#333" d="M141 0L90-78 38 0H4l68-98-65-92h35l48 74 47-74h35l-64 92 68 98h-35" id="aF"/><g id="s"><use transform="matrix(0.05,0,0,0.05,0,0)" xlink:href="#aE"/><use transform="matrix(0.05,0,0,0.05,8.950000000000001,0)" xlink:href="#Q"/><use transform="matrix(0.05,0,0,0.05,18.950000000000003,0)" xlink:href="#aF"/><use transform="matrix(0.05,0,0,0.05,27.950000000000003,0)" xlink:href="#S"/></g><path fill="#fafafa" d="M212-179c-10-28-35-45-73-45-59 0-87 40-87 99 0 60 29 101 89 101 43 0 62-24 78-52l27 14C228-24 195 4 139 4 59 4 22-46 18-125c-6-104 99-153 187-111 19 9 31 26 39 46" id="aG"/><g id="t"><use transform="matrix(0.05,0,0,0.05,0,0)" xlink:href="#aG"/><use transform="matrix(0.05,0,0,0.05,12.950000000000001,0)" xlink:href="#aa"/><use transform="matrix(0.05,0,0,0.05,22.950000000000003,0)" xlink:href="#af"/><use transform="matrix(0.05,0,0,0.05,32.95,0)" xlink:href="#ax"/><use transform="matrix(0.05,0,0,0.05,37.95,0)" xlink:href="#Z"/><use transform="matrix(0.05,0,0,0.05,43.900000000000006,0)" xlink:href="#av"/><use transform="matrix(0.05,0,0,0.05,53.900000000000006,0)" xlink:href="#az"/><use transform="matrix(0.05,0,0,0.05,62.900000000000006,0)" xlink:href="#ax"/><path fill="#fafafa" d="M-.9 1.25h69.7v1.32H-.9z"/></g><g id="u"><use transform="matrix(0.05,0,0,0.05,0,0)" xlink:href="#W"/><use transform="matrix(0.05,0,0,0.05,10,0)" xlink:href="#K"/><use transform="matrix(0.05,0,0,0.05,15.949999999999998,0)" xlink:href="#ak"/><use transform="matrix(0.05,0,0,0.05,25.950000000000003,0)" xlink:href="#ar"/><use transform="matrix(0.05,0,0,0.05,34.95,0)" xlink:href="#G"/><use transform="matrix(0.05,0,0,0.05,38.900000000000006,0)" xlink:href="#N"/><use transform="matrix(0.05,0,0,0.05,48.900000000000006,0)" xlink:href="#Q"/><use transform="matrix(0.05,0,0,0.05,58.900000000000006,0)" xlink:href="#K"/></g><g id="v"><use transform="matrix(0.05,0,0,0.05,0,0)" xlink:href="#at"/><use transform="matrix(0.05,0,0,0.05,12.950000000000001,0)" xlink:href="#L"/><use transform="matrix(0.05,0,0,0.05,22.950000000000003,0)" xlink:href="#an"/><use transform="matrix(0.05,0,0,0.05,26.900000000000002,0)" xlink:href="#an"/><use transform="matrix(0.05,0,0,0.05,30.85,0)" xlink:href="#Q"/><use transform="matrix(0.05,0,0,0.05,40.85,0)" xlink:href="#S"/></g><path fill="#333" d="M205 0l-28-72H64L36 0H1l101-248h38L239 0h-34zm-38-99l-47-123c-12 45-31 82-46 123h93" id="aH"/><path fill="#333" d="M177-190C167-65 218 103 67 71c-23-6-38-20-44-43l32-5c15 47 100 32 89-28v-30C133-14 115 1 83 1 29 1 15-40 15-95c0-56 16-97 71-98 29-1 48 16 59 35 1-10 0-23 2-32h30zM94-22c36 0 50-32 50-73 0-42-14-75-50-75-39 0-46 34-46 75s6 73 46 73" id="aI"/><g id="w"><use transform="matrix(0.05,0,0,0.05,0,0)" xlink:href="#H"/><use transform="matrix(0.05,0,0,0.05,10,0)" xlink:href="#Q"/><use transform="matrix(0.05,0,0,0.05,20,0)" xlink:href="#at"/><use transform="matrix(0.05,0,0,0.05,32.95,0)" xlink:href="#V"/><use transform="matrix(0.05,0,0,0.05,38.900000000000006,0)" xlink:href="#R"/><use transform="matrix(0.05,0,0,0.05,47.900000000000006,0)" xlink:href="#ak"/><use transform="matrix(0.05,0,0,0.05,57.900000000000006,0)" xlink:href="#H"/><use transform="matrix(0.05,0,0,0.05,67.9,0)" xlink:href="#S"/><use transform="matrix(0.05,0,0,0.05,72.9,0)" xlink:href="#K"/><use transform="matrix(0.05,0,0,0.05,78.85000000000001,0)" xlink:href="#L"/><use transform="matrix(0.05,0,0,0.05,88.85000000000001,0)" xlink:href="#R"/><use transform="matrix(0.05,0,0,0.05,97.85000000000001,0)" xlink:href="#S"/><use transform="matrix(0.05,0,0,0.05,102.85000000000001,0)" xlink:href="#aH"/><use transform="matrix(0.05,0,0,0.05,114.85000000000001,0)" xlink:href="#K"/><use transform="matrix(0.05,0,0,0.05,120.80000000000001,0)" xlink:href="#aI"/><use transform="matrix(0.05,0,0,0.05,130.8,0)" xlink:href="#P"/><use transform="matrix(0.05,0,0,0.05,139.8,0)" xlink:href="#X"/></g><g id="x"><use transform="matrix(0.05,0,0,0.05,0,0)" xlink:href="#R"/><use transform="matrix(0.05,0,0,0.05,9,0)" xlink:href="#ak"/><use transform="matrix(0.05,0,0,0.05,19,0)" xlink:href="#H"/><use transform="matrix(0.05,0,0,0.05,29,0)" xlink:href="#S"/><use transform="matrix(0.05,0,0,0.05,34,0)" xlink:href="#K"/><use transform="matrix(0.05,0,0,0.05,39.95,0)" xlink:href="#L"/><use transform="matrix(0.05,0,0,0.05,49.95,0)" xlink:href="#R"/><use transform="matrix(0.05,0,0,0.05,58.95,0)" xlink:href="#S"/><use transform="matrix(0.05,0,0,0.05,63.95,0)" xlink:href="#aH"/><use transform="matrix(0.05,0,0,0.05,75.95,0)" xlink:href="#K"/><use transform="matrix(0.05,0,0,0.05,81.9,0)" xlink:href="#aI"/><use transform="matrix(0.05,0,0,0.05,91.9,0)" xlink:href="#P"/><path fill="#333" d="M-.9 1.25h102.7v1.32H-.9z"/></g><g id="y"><use transform="matrix(0.05,0,0,0.05,0,0)" xlink:href="#M"/><use transform="matrix(0.05,0,0,0.05,6,0)" xlink:href="#L"/><use transform="matrix(0.05,0,0,0.05,16,0)" xlink:href="#N"/><use transform="matrix(0.05,0,0,0.05,26,0)" xlink:href="#N"/><use transform="matrix(0.05,0,0,0.05,36,0)" xlink:href="#K"/><use transform="matrix(0.05,0,0,0.05,41.95,0)" xlink:href="#Q"/><use transform="matrix(0.05,0,0,0.05,51.95,0)" xlink:href="#P"/><use transform="matrix(0.05,0,0,0.05,60.95,0)" xlink:href="#P"/><use transform="matrix(0.05,0,0,0.05,69.95,0)" xlink:href="#O"/><use transform="matrix(0.05,0,0,0.05,74.95,0)" xlink:href="#L"/><use transform="matrix(0.05,0,0,0.05,84.95,0)" xlink:href="#ap"/><use transform="matrix(0.05,0,0,0.05,94.95,0)" xlink:href="#G"/><use transform="matrix(0.05,0,0,0.05,98.9,0)" xlink:href="#O"/><use transform="matrix(0.05,0,0,0.05,103.9,0)" xlink:href="#at"/><use transform="matrix(0.05,0,0,0.05,116.85000000000001,0)" xlink:href="#L"/><use transform="matrix(0.05,0,0,0.05,126.85000000000001,0)" xlink:href="#an"/><use transform="matrix(0.05,0,0,0.05,130.8,0)" xlink:href="#an"/><use transform="matrix(0.05,0,0,0.05,134.75,0)" xlink:href="#Q"/><use transform="matrix(0.05,0,0,0.05,144.75,0)" xlink:href="#S"/><use transform="matrix(0.05,0,0,0.05,149.75,0)" xlink:href="#T"/><path fill="#333" d="M-.9 1.25h157.55v1.32H-.9z"/></g><g id="z"><use transform="matrix(0.05,0,0,0.05,0,0)" xlink:href="#R"/><use transform="matrix(0.05,0,0,0.05,9,0)" xlink:href="#ak"/><use transform="matrix(0.05,0,0,0.05,19,0)" xlink:href="#H"/><use transform="matrix(0.05,0,0,0.05,29,0)" xlink:href="#S"/><use transform="matrix(0.05,0,0,0.05,34,0)" xlink:href="#K"/><use transform="matrix(0.05,0,0,0.05,39.95,0)" xlink:href="#L"/><use transform="matrix(0.05,0,0,0.05,49.95,0)" xlink:href="#R"/><use transform="matrix(0.05,0,0,0.05,58.95,0)" xlink:href="#S"/></g><path fill="#333" d="M210-169c-67 3-38 105-44 169h-31v-121c0-29-5-50-35-48C34-165 62-65 56 0H25l-1-190h30c1 10-1 24 2 32 10-44 99-50 107 0 11-21 27-35 58-36 85-2 47 119 55 194h-31v-121c0-29-5-49-35-48" id="aJ"/><g id="A"><use transform="matrix(0.05,0,0,0.05,0,0)" xlink:href="#R"/><use transform="matrix(0.05,0,0,0.05,9,0)" xlink:href="#ak"/><use transform="matrix(0.05,0,0,0.05,19,0)" xlink:href="#H"/><use transform="matrix(0.05,0,0,0.05,29,0)" xlink:href="#S"/><use transform="matrix(0.05,0,0,0.05,34,0)" xlink:href="#K"/><use transform="matrix(0.05,0,0,0.05,39.95,0)" xlink:href="#L"/><use transform="matrix(0.05,0,0,0.05,49.95,0)" xlink:href="#R"/><use transform="matrix(0.05,0,0,0.05,58.95,0)" xlink:href="#S"/><use transform="matrix(0.05,0,0,0.05,63.95,0)" xlink:href="#al"/><use transform="matrix(0.05,0,0,0.05,68.95,0)" xlink:href="#aJ"/><use transform="matrix(0.05,0,0,0.05,83.9,0)" xlink:href="#Q"/><use transform="matrix(0.05,0,0,0.05,93.9,0)" xlink:href="#S"/><use transform="matrix(0.05,0,0,0.05,98.9,0)" xlink:href="#ao"/><use transform="matrix(0.05,0,0,0.05,108.9,0)" xlink:href="#ak"/><use transform="matrix(0.05,0,0,0.05,118.9,0)" xlink:href="#N"/><use transform="matrix(0.05,0,0,0.05,128.9,0)" xlink:href="#V"/><use transform="matrix(0.05,0,0,0.05,134.85,0)" xlink:href="#aJ"/><use transform="matrix(0.05,0,0,0.05,149.79999999999998,0)" xlink:href="#Q"/><use transform="matrix(0.05,0,0,0.05,159.79999999999998,0)" xlink:href="#S"/><use transform="matrix(0.05,0,0,0.05,164.79999999999998,0)" xlink:href="#ao"/><use transform="matrix(0.05,0,0,0.05,174.79999999999998,0)" xlink:href="#ak"/><use transform="matrix(0.05,0,0,0.05,184.79999999999998,0)" xlink:href="#N"/><use transform="matrix(0.05,0,0,0.05,194.79999999999998,0)" xlink:href="#aH"/><use transform="matrix(0.05,0,0,0.05,206.79999999999995,0)" xlink:href="#K"/><use transform="matrix(0.05,0,0,0.05,212.74999999999997,0)" xlink:href="#aI"/><use transform="matrix(0.05,0,0,0.05,222.74999999999997,0)" xlink:href="#P"/><use transform="matrix(0.05,0,0,0.05,231.74999999999997,0)" xlink:href="#X"/></g><path fill="#333" d="M233-177c-1 41-23 64-60 70L243 0h-38l-65-103H63V0H30v-248c88 3 205-21 203 71zM63-129c60-2 137 13 137-47 0-61-80-42-137-45v92" id="aK"/><g id="B"><use transform="matrix(0.05,0,0,0.05,0,0)" xlink:href="#S"/><use transform="matrix(0.05,0,0,0.05,5,0)" xlink:href="#aF"/><use transform="matrix(0.05,0,0,0.05,14,0)" xlink:href="#aK"/><use transform="matrix(0.05,0,0,0.05,26.950000000000003,0)" xlink:href="#Q"/><use transform="matrix(0.05,0,0,0.05,36.95,0)" xlink:href="#R"/><use transform="matrix(0.05,0,0,0.05,45.95,0)" xlink:href="#Q"/><use transform="matrix(0.05,0,0,0.05,55.95,0)" xlink:href="#G"/><use transform="matrix(0.05,0,0,0.05,59.900000000000006,0)" xlink:href="#W"/><use transform="matrix(0.05,0,0,0.05,69.9,0)" xlink:href="#S"/><use transform="matrix(0.05,0,0,0.05,74.9,0)" xlink:href="#M"/><use transform="matrix(0.05,0,0,0.05,80.9,0)" xlink:href="#ao"/><use transform="matrix(0.05,0,0,0.05,90.9,0)" xlink:href="#L"/><use transform="matrix(0.05,0,0,0.05,100.9,0)" xlink:href="#P"/><use transform="matrix(0.05,0,0,0.05,109.9,0)" xlink:href="#ao"/><use transform="matrix(0.05,0,0,0.05,119.9,0)" xlink:href="#O"/><use transform="matrix(0.05,0,0,0.05,124.9,0)" xlink:href="#al"/><use transform="matrix(0.05,0,0,0.05,129.9,0)" xlink:href="#al"/><use transform="matrix(0.05,0,0,0.05,134.9,0)" xlink:href="#al"/><use transform="matrix(0.05,0,0,0.05,139.9,0)" xlink:href="#T"/></g><g id="C"><use transform="matrix(0.05,0,0,0.05,0,0)" xlink:href="#S"/><use transform="matrix(0.05,0,0,0.05,5,0)" xlink:href="#aF"/><use transform="matrix(0.05,0,0,0.05,14,0)" xlink:href="#aK"/><use transform="matrix(0.05,0,0,0.05,26.950000000000003,0)" xlink:href="#Q"/><use transform="matrix(0.05,0,0,0.05,36.95,0)" xlink:href="#P"/><use transform="matrix(0.05,0,0,0.05,45.95,0)" xlink:href="#J"/><use transform="matrix(0.05,0,0,0.05,55.95,0)" xlink:href="#an"/><use transform="matrix(0.05,0,0,0.05,59.900000000000006,0)" xlink:href="#S"/><use transform="matrix(0.05,0,0,0.05,64.9,0)" xlink:href="#M"/><use transform="matrix(0.05,0,0,0.05,70.9,0)" xlink:href="#K"/><use transform="matrix(0.05,0,0,0.05,76.85000000000001,0)" xlink:href="#Q"/><use transform="matrix(0.05,0,0,0.05,86.85000000000001,0)" xlink:href="#P"/><use transform="matrix(0.05,0,0,0.05,95.85000000000001,0)" xlink:href="#J"/><use transform="matrix(0.05,0,0,0.05,105.85000000000001,0)" xlink:href="#an"/><use transform="matrix(0.05,0,0,0.05,109.80000000000001,0)" xlink:href="#S"/><use transform="matrix(0.05,0,0,0.05,114.80000000000001,0)" xlink:href="#O"/><use transform="matrix(0.05,0,0,0.05,119.80000000000001,0)" xlink:href="#al"/><use transform="matrix(0.05,0,0,0.05,124.80000000000001,0)" xlink:href="#al"/><use transform="matrix(0.05,0,0,0.05,129.8,0)" xlink:href="#al"/><use transform="matrix(0.05,0,0,0.05,134.8,0)" xlink:href="#T"/></g><g id="D"><use transform="matrix(0.07469135802469135,0,0,0.07469135802469135,0,0)" xlink:href="#aE"/><use transform="matrix(0.07469135802469135,0,0,0.07469135802469135,15.386419753086416,0)" xlink:href="#K"/><use transform="matrix(0.07469135802469135,0,0,0.07469135802469135,24.274691358024686,0)" xlink:href="#L"/><use transform="matrix(0.07469135802469135,0,0,0.07469135802469135,39.212962962962955,0)" xlink:href="#H"/><use transform="matrix(0.07469135802469135,0,0,0.07469135802469135,54.15123456790123,0)" xlink:href="#P"/><use transform="matrix(0.07469135802469135,0,0,0.07469135802469135,67.59567901234567,0)" xlink:href="#I"/><use transform="matrix(0.07469135802469135,0,0,0.07469135802469135,75.06481481481481,0)" xlink:href="#Q"/><use transform="matrix(0.07469135802469135,0,0,0.07469135802469135,90.00308641975307,0)" xlink:href="#K"/></g><path fill="#333" d="M143 0L79-87 56-68V0H24v-261h32v163l83-92h37l-77 82L181 0h-38" id="aL"/><g id="E"><use transform="matrix(0.07469135802469135,0,0,0.07469135802469135,0,0)" xlink:href="#aE"/><use transform="matrix(0.07469135802469135,0,0,0.07469135802469135,13.36975308641975,0)" xlink:href="#ak"/><use transform="matrix(0.07469135802469135,0,0,0.07469135802469135,28.30802469135802,0)" xlink:href="#aL"/><use transform="matrix(0.07469135802469135,0,0,0.07469135802469135,41.752469135802464,0)" xlink:href="#Q"/><use transform="matrix(0.07469135802469135,0,0,0.07469135802469135,56.690740740740736,0)" xlink:href="#H"/></g><g id="F"><use transform="matrix(0.05,0,0,0.05,0,0)" xlink:href="#at"/><use transform="matrix(0.05,0,0,0.05,12.950000000000001,0)" xlink:href="#L"/><use transform="matrix(0.05,0,0,0.05,22.950000000000003,0)" xlink:href="#G"/><use transform="matrix(0.05,0,0,0.05,26.900000000000002,0)" xlink:href="#S"/><use transform="matrix(0.05,0,0,0.05,31.900000000000002,0)" xlink:href="#V"/><use transform="matrix(0.05,0,0,0.05,37.85,0)" xlink:href="#X"/></g></defs></g></svg>