<svg xmlns="http://www.w3.org/2000/svg" xmlns:xlink="http://www.w3.org/1999/xlink" xmlns:lucid="lucid" width="1820" height="1180"><g transform="translate(-20 -20)" lucid:page-tab-id="0_0"><path d="M708.37 225c0-2.76 2.24-5 5-5h90c2.77 0 5 2.24 5 5v60c0 2.76-2.23 5-5 5h-90c-2.76 0-5-2.24-5-5z" stroke="#000" stroke-opacity="0" fill="#2535a0"/><use xlink:href="#a" transform="matrix(1,0,0,1,713.3749999999991,225) translate(11.574999999999996 33.15)"/><path d="M760.5 1119.5h-1v-2h1zm0-5.97h-1v-3.97h1zm0-7.95h-1v-3.98h1zm0-7.95h-1v-3.98h1zm0-7.96h-1v-3.97h1zm0-7.95h-1v-3.98h1zm0-7.96h-1v-3.97h1zm0-7.95h-1v-3.97h1zm0-7.94h-1v-3.98h1zm0-7.96h-1v-3.97h1zm0-7.95h-1v-3.98h1zm0-7.96h-1V1030h1zm0-7.96h-1v-3.98h1zm0-7.95h-1v-4h1zm0-7.97h-1v-3.97h1zm0-7.95h-1v-3.98h1zm0-7.96h-1v-3.97h1zm0-7.95h-1v-3.98h1zm0-7.95h-1v-3.98h1zm0-7.96h-1v-3.98h1zm0-7.95h-1v-3.97h1zm0-7.95h-1v-3.97h1zm0-7.95h-1v-3.98h1zm0-7.95h-1v-3.98h1zm0-7.96h-1v-4h1zm0-7.96h-1v-3.98h1zm0-7.96h-1v-3.97h1zm0-7.95h-1v-3.98h1zm0-7.95h-1v-3.98h1zm0-7.96h-1v-3.98h1zm0-7.95h-1v-3.98h1zm0-7.96h-1v-3.96h1zm0-7.94h-1v-3.98h1zm0-7.95h-1v-3.97h1zm0-7.95h-1v-3.98h1zm0-7.95h-1v-3.98h1zm0-7.96h-1v-3.97h1zm0-7.95h-1v-4h1zm0-7.96h-1v-3.98h1zm0-7.96h-1v-3.98h1zm0-7.95h-1v-3.98h1zm0-7.96h-1v-3.97h1zm0-7.95h-1v-3.98h1zm0-7.95h-1v-3.98h1zm0-7.96h-1v-3.97h1zm0-7.94h-1v-3.98h1zm0-7.96h-1v-3.97h1zm0-7.95h-1v-3.98h1zm0-7.95h-1v-3.98h1zm0-7.96h-1v-3.98h1zm0-7.95h-1v-4h1zm0-7.97h-1v-3.97h1zM758.72 704l.14.36 1.26.52.38.9v2.1h-1v-1.9l-.14-.34-1.26-.52-.38-.9v-2.1h1zm0-5.86h-1v-3.97h1zm0-7.95h-1v-4h1zm0-7.96h-1v-3.98h1zm0-7.96h-1v-3.98h1zm0-7.95h-1v-3.98h1zm0-7.96h-1v-3.97h1zm0-7.95h-1v-3.98h1zm0-7.95h-1v-3.98h1zm0-7.96h-1v-3.97h1zm0-7.94h-1v-3.98h1zm0-31.82h-1v-3.98h1zm0-7.95h-1v-4h1zm0-7.97h-1v-3.06h1zm0-24.4h-1V551h1zm0-7.4h-1v-4h1zm0-31.83h-1v-3.98h1zm0-7.95h-1v-3.98h1zm0-7.96h-1v-3.98h1zm0-7.96h-1v-3.98h1zm0-7.95h-1v-4h1zm0-7.97h-1v-3.98h1zm0-7.95h-1v-3.98h1zm0-7.96h-1v-3.97h1zm0-7.95h-1v-3.98h1zm0-7.95h-1v-3.98h1zm0-7.96h-1v-3.98h1zm0-7.95h-1v-3.97h1zm0-7.95h-1v-3.97h1zm0-7.95h-1v-3.98h1zm0-7.96h-1v-3.97h1zm0-7.95h-1v-4h1zm0-7.96h-1v-3.98h1zm0-7.96h-1V376h1zm0-7.95h-1v-3.98h1zm0-7.96h-1v-3.97h1zm0-7.95h-1v-3.98h1zm0-7.95h-1v-3.98h1zm0-7.96h-1v-3.96h1zm0-7.94h-1v-3.98h1zm0-7.96h-1v-3.97h1zm0-7.95h-1v-3.98h1zm0-7.95h-1v-3.98h1zm0-7.96h-1v-3.97h1zm0-7.95h-1v-2h1z" fill="#333"/><path d="M758.72 290.5h-1v-.5h1zM760.5 1120h-1v-.5h1z" fill="#333"/><path d="M1480 290.5v2m0 3.98v3.98m0 4v3.98m0 3.98v4m0 3.97v3.98m0 3.98v4m0 3.97v4m0 3.98v4m0 3.98v3.98m0 4v3.97m0 4v3.97m0 4v3.98m0 3.98v4m0 3.97v4m0 3.97v4m0 3.97v4m0 3.98v3.98m0 4V428m0 4v3.97m0 4v3.97m0 4v3.98m0 3.98v4m0 3.97v4m0 3.97v4m0 3.97v4m0 4v3.97m0 4v3.97m0 4v3.97m0 4v4m0 3.97v4m0 3.97v4m0 3.97v4m0 3.98v4m0 3.98v3.98m0 4v3.97m0 4v3.98m0 4v3.97m0 4v3.98m0 3.98v4m0 3.98v4m0 3.97v4m0 3.97v4m0 3.98v3.98m0 4v3.97m0 4v3.97m0 4v3.97m0 3.98v4m0 3.97v4m0 3.97v4m0 3.97v3.98m0 3.98v4m0 3.98v3.98m0 4V707m0 3.98v3.98m0 4v3.98m0 3.98v4m0 3.97v3.98m0 3.98v4m0 3.97v4m0 3.98v4m0 3.98v3.98m0 4v3.97m0 4v3.97m0 4v3.98m0 3.98v4m0 3.97v4m0 3.97v4m0 3.97v4m0 3.98v3.98m0 4v3.97m0 4v3.97m0 4v3.97m0 4v3.98m0 3.98v4m0 3.97v4m0 3.97v4m0 3.97v4m0 4v3.97m0 4v3.97m0 4v3.97m0 4v3.98m0 4v3.98m0 3.98v4m0 3.97v4m0 3.98v4m0 3.97v4m0 3.98V978m0 4v3.98m0 4v3.97m0 4v3.97m0 4v3.98m0 3.98v4m0 3.97v4m0 3.97v4m0 3.97v3.98m0 4v3.97m0 4v3.97m0 4v3.97m0 3.98v3.98m0 4v3.98m0 3.98v4m0 3.97v3.98m0 3.98v4m0 3.98v3.98m0 4v1.98" stroke="#333" fill="none"/><path d="M1480.5 290.5h-1v-.5h1z" fill="#333"/><path d="M1480 1119.5v.5" stroke="#333" fill="none"/><path d="M500 225c0-2.76 2.24-5 5-5h89c2.76 0 5 2.24 5 5v60c0 2.76-2.24 5-5 5h-89c-2.76 0-5-2.24-5-5z" stroke="#000" stroke-opacity="0" fill="#333"/><use xlink:href="#b" transform="matrix(1,0,0,1,505,225) translate(14.549999999999997 33.15)"/><path d="M549.5 290.5v52.62" stroke="#333" fill="none"/><path d="M550 290.5h-1v-.5h1z" fill="#333"/><path d="M549.5 357.88l-4.64-14.26h9.28z" stroke="#333" fill="#333"/><path d="M320 108c0-4.42 3.58-8 8-8h1044c4.42 0 8 3.58 8 8v1024c0 4.42-3.58 8-8 8H328c-4.42 0-8-3.58-8-8z" stroke="#333" fill="#c1e4f7" fill-opacity=".19"/><use xlink:href="#c" transform="matrix(1,0,0,1,328,108) translate(442.15 15.6)"/><use xlink:href="#d" transform="matrix(1,0,0,1,328,108) translate(507.09999999999997 15.6)"/><use xlink:href="#e" transform="matrix(1,0,0,1,328,108) translate(544.1 15.6)"/><path d="M700 168c0-4.42 3.58-8 8-8h604c4.42 0 8 3.58 8 8v944c0 4.42-3.58 8-8 8H708c-4.42 0-8-3.58-8-8z" stroke="#333" fill="#c1e4f7" fill-opacity=".28"/><use xlink:href="#f" transform="matrix(1,0,0,1,707.9999999999991,168) translate(241.65 15.6)"/><use xlink:href="#g" transform="matrix(1,0,0,1,707.9999999999991,168) translate(314.55 15.6)"/><path d="M738.37 428c0-4.42 3.6-8 8-8h24c4.42 0 8 3.58 8 8v644c0 4.42-3.58 8-8 8h-24c-4.4 0-8-3.58-8-8zM529.5 368c0-4.42 3.58-8 8-8h24c4.42 0 8 3.58 8 8v704c0 4.42-3.58 8-8 8h-24c-4.42 0-8-3.58-8-8z" stroke="#333" fill="#fff"/><path d="M120 365c0-2.76 2.24-5 5-5h110c2.76 0 5 2.24 5 5v50c0 2.76-2.24 5-5 5H125c-2.76 0-5-2.24-5-5z" stroke="#000" fill="#fff"/><use xlink:href="#h" transform="matrix(1,0,0,1,125,365) translate(23.5 17.525)"/><use xlink:href="#i" transform="matrix(1,0,0,1,125,365) translate(1.5249999999999986 39.125)"/><path d="M590.06 429.8H570.5v-1h19.56zm131.43 0h-3.7v-1h3.7zM570.5 429.8h-.5v-1h.5zM736.26 429.3L722 433.93v-9.27z" fill="#333"/><path d="M737.87 429.3l-16.38 5.32v-10.65zm-15.38 3.94l12.14-3.94-12.15-3.95z" fill="#333"/><use xlink:href="#j" transform="matrix(1,0,0,1,590.0625000000005,418.4966751918158) translate(0.005000000000002558 14.4)"/><path d="M612.44 529.76H570.5v-1h41.94zm290.68 0H790.14v-1h112.98zM570.5 529.76h-.5v-1h.5zM917.88 529.26l-14.26 4.64v-9.27z" fill="#333"/><path d="M919.5 529.26l-16.38 5.33v-10.66zm-15.38 3.95l12.14-3.94-12.14-3.94z" fill="#333"/><use xlink:href="#k" transform="matrix(1,0,0,1,612.4351662404091,518.4647058823532) translate(0.0049999999999954525 14.4)"/><path d="M40 48c0-4.42 3.58-8 8-8h1764c4.42 0 8 3.58 8 8v1124c0 4.42-3.58 8-8 8H48c-4.42 0-8-3.58-8-8z" fill-opacity="0"/><path d="M44.07 41.18l.82-.55L48 40h4.98m5 0h9.95m5 0h9.95m4.98 0h9.97m4.98 0h9.98m4.98 0h9.97m4.98 0h9.98m4.98 0h9.97m4.98 0h9.98m4.98 0h9.97m4.98 0h9.97m5 0h9.95m5 0h9.95m5 0h9.95m5 0h9.95m4.98 0h9.97m4.98 0h9.97m4.98 0h9.97m4.98 0h9.97m4.98 0h9.97m4.98 0h9.97m4.98 0h9.97m4.98 0h9.96m5 0h9.95m5 0h9.96m5 0h9.95m5 0h9.96m4.98 0h9.97m5 0h9.96m4.98 0h9.97m5 0h9.96m4.98 0h9.97m5 0h9.96m4.98 0h9.97m5 0h9.95m5 0h9.95m5 0h9.95m5 0h9.95m4.98 0h9.97m4.98 0H636m4.98 0h9.97m4.98 0h9.97m4.98 0h9.97m4.98 0h9.97m4.98 0h9.97m4.98 0h9.96m4.98 0h9.96m5 0h9.95m4.98 0h9.96m5 0h9.95m4.97 0h9.97m4.98 0h9.97m4.97 0h9.97m4.98 0h9.97m4.97 0h9.97m4.98 0h9.97m4.97 0h9.97m4.98 0h9.96m5 0h9.95m5 0h9.95m5 0h9.95m5 0h9.95m4.98 0h9.97m4.98 0h9.98m4.98 0h9.97m4.98 0h9.98m4.98 0h9.97m4.98 0h9.98m4.98 0h9.97m4.98 0h9.97m5 0h9.95m5 0h9.95m5 0h9.95m5 0h9.95m4.98 0h9.97m4.98 0h9.97m4.98 0h9.97m4.98 0h9.97m4.98 0h9.97m4.98 0h9.97m4.98 0h9.97m4.98 0h9.96m5 0h9.95m5 0h9.96m5 0h9.95m5 0h9.96m4.98 0h9.97m5 0h9.96m4.98 0h9.97m5 0h9.96m4.98 0h9.97m5 0h9.96m4.98 0h9.97m5 0h9.95m5 0h9.95m5 0h9.95m5 0h9.95m4.98 0h9.97m4.98 0h9.97m4.98 0h9.97m4.98 0h9.97m4.98 0h9.97m4.98 0h9.97m4.98 0h9.97m4.98 0h9.96m4.98 0h9.96m5 0h9.95m4.98 0h9.96m5 0h9.95m4.97 0h9.97m4.98 0h9.97m4.97 0h9.97m4.98 0h9.97m4.97 0h9.97m4.98 0h9.97m4.97 0h9.97m4.98 0h9.96m5 0h9.95m5 0h4.97l3.1.63.83.55m2.9 2.9l.54.8.63 3.12v5m0 5v9.98m0 5v10m0 4.98v10m0 5v9.98m0 5v10m0 4.98v10m0 5v9.98m0 5v10m0 4.98v10m0 5v9.98m0 5v10m0 4.98v10m0 5v9.98m0 5v10m0 4.98v10m0 5v9.98m0 5v10m0 4.98v10m0 5v9.98m0 5v10m0 4.98v10m0 5v9.98m0 5v10m0 4.98v10m0 5v9.98m0 5v10m0 4.98v10m0 5v9.98m0 5v10m0 4.98v10m0 5v9.98m0 5v10m0 4.98v10m0 5v9.98m0 5v10m0 4.98v10m0 5v9.98m0 5v10m0 4.98v10m0 5v9.98m0 5v10m0 4.98v10m0 5v9.98m0 5v10m0 4.98v10m0 5v9.98m0 5v10m0 4.98v10m0 5v9.98m0 5v10m0 4.98v10m0 5v9.98m0 5v10m0 4.98v10m0 5v9.98m0 5v10m0 4.98v10m0 5v9.98m0 5v10m0 4.98v10m0 5v9.98m0 5v10m0 4.98v10m0 5v9.98m0 5v10m0 4.98v10m0 5v9.98m0 5v10m0 4.98v10m0 5v9.98m0 5v10m0 4.98v10m0 5v9.98m0 5v10m0 4.98v5l-.63 3.1-.55.83m-2.9 2.9l-.8.54-3.12.63h-4.98m-5 0h-9.95m-5 0h-9.95m-4.98 0h-9.97m-4.98 0h-9.98m-4.98 0h-9.97m-4.98 0h-9.98m-4.98 0h-9.97m-4.98 0h-9.98m-4.98 0h-9.97m-4.98 0h-9.97m-5 0h-9.95m-5 0h-9.95m-5 0h-9.95m-5 0h-9.95m-4.98 0h-9.97m-4.98 0h-9.97m-4.98 0h-9.97m-4.98 0h-9.97m-4.98 0h-9.97m-4.98 0h-9.97m-4.98 0h-9.97m-4.98 0h-9.96m-5 0h-9.95m-5 0h-9.96m-5 0h-9.95m-5 0h-9.96m-4.98 0h-9.97m-5 0h-9.96m-4.98 0h-9.97m-5 0h-9.96m-4.98 0h-9.97m-5 0h-9.96m-4.98 0h-9.97m-5 0h-9.95m-5 0h-9.95m-5 0h-9.95m-5 0h-9.95m-4.98 0h-9.97m-4.98 0H1224m-4.98 0h-9.97m-4.98 0h-9.97m-4.98 0h-9.97m-4.98 0h-9.97m-4.98 0h-9.97m-4.98 0h-9.96m-4.98 0h-9.96m-5 0h-9.95m-4.98 0h-9.96m-5 0h-9.95m-4.97 0h-9.97m-4.98 0h-9.97m-4.97 0h-9.97m-4.98 0h-9.97m-4.97 0h-9.97m-4.98 0h-9.97m-4.97 0h-9.97m-4.98 0h-9.96m-5 0h-9.95m-5 0h-9.95m-5 0h-9.95m-5 0h-9.95m-4.98 0h-9.97m-4.98 0h-9.98m-4.98 0h-9.97m-4.98 0h-9.98m-4.98 0h-9.97m-4.98 0h-9.98m-4.98 0h-9.97m-4.98 0h-9.97m-5 0h-9.95m-5 0h-9.95m-5 0h-9.95m-5 0h-9.95m-4.98 0h-9.97m-4.98 0h-9.97m-4.98 0h-9.97m-4.98 0h-9.97m-4.98 0h-9.97m-4.98 0h-9.97m-4.98 0h-9.97m-4.98 0h-9.96m-5 0h-9.95m-5 0h-9.96m-5 0h-9.95m-5 0h-9.96m-4.98 0h-9.97m-5 0h-9.96m-4.98 0h-9.97m-5 0h-9.96m-4.98 0h-9.97m-5 0h-9.96m-4.98 0h-9.97m-5 0h-9.95m-5 0h-9.95m-5 0h-9.95m-5 0h-9.95m-4.98 0h-9.97m-4.98 0H342m-4.98 0h-9.97m-4.98 0h-9.97m-4.98 0h-9.97m-4.98 0h-9.97m-4.98 0h-9.97m-4.98 0h-9.96m-4.98 0h-9.96m-5 0h-9.95m-4.98 0h-9.96m-5 0h-9.95m-4.97 0h-9.97m-4.98 0h-9.97m-4.97 0h-9.97m-4.98 0h-9.97m-4.97 0h-9.97m-4.98 0h-9.97m-4.97 0h-9.97m-4.98 0h-9.96m-5 0h-9.95m-5 0H48l-3.1-.63-.83-.55m-2.9-2.9l-.54-.8L40 1172v-5m0-5v-9.98m0-5v-10m0-4.98v-10m0-5v-9.98m0-5v-10m0-4.98v-10m0-5v-9.98m0-5v-10m0-4.98v-10m0-5v-9.98m0-5v-10m0-4.98v-10m0-5v-9.98m0-5v-10m0-4.98v-10m0-5v-9.98m0-5v-10m0-4.98v-10m0-5v-9.98m0-5v-10m0-4.98v-10m0-5v-9.98m0-5v-10m0-4.98v-10m0-5v-9.98m0-5v-10m0-4.98v-10m0-5v-9.98m0-5v-10m0-4.98v-10m0-5v-9.98m0-5v-10m0-4.98v-10m0-5v-9.98m0-5v-10m0-4.98v-10m0-5v-9.98m0-5v-10m0-4.98v-10m0-5v-9.98m0-5v-10m0-4.98v-10m0-5v-9.98m0-5v-10m0-4.98v-10m0-5v-9.98m0-5v-10m0-4.98v-10m0-5v-9.98m0-5v-10m0-4.98v-10m0-5v-9.98m0-5v-10m0-4.98v-10m0-5v-9.98m0-5v-10m0-4.98v-10m0-5v-9.98m0-5v-10m0-4.98v-10m0-5v-9.98m0-5v-10m0-4.98v-10m0-5v-9.98m0-5v-10m0-4.98v-10m0-5v-9.98m0-5v-10m0-4.98v-10m0-5v-9.98m0-5v-10m0-4.98v-10m0-5V73m0-5v-10M40 53v-5l.63-3.1.55-.83" stroke="#333" fill="none"/><use xlink:href="#l" transform="matrix(1,0,0,1,48,48) translate(790.2416666666667 21.511111111111106)"/><use xlink:href="#m" transform="matrix(1,0,0,1,48,48) translate(872.3274691358024 21.511111111111106)"/><path d="M1620 225c0-2.76 2.24-5 5-5h150c2.76 0 5 2.24 5 5v60c0 2.76-2.24 5-5 5h-150c-2.76 0-5-2.24-5-5z" stroke="#000" stroke-opacity="0" fill="#ccc"/><use xlink:href="#n" transform="matrix(1,0,0,1,1624.999999999999,225.00000000000017) translate(36.05 21.9)"/><use xlink:href="#o" transform="matrix(1,0,0,1,1624.999999999999,225.00000000000017) translate(31.549999999999997 43.5)"/><path d="M1700 290.5v2m0 3.98v3.98m0 4v3.98m0 3.98v4m0 3.97v3.98m0 3.98v4m0 3.97v4m0 3.98v4m0 3.98v3.98m0 4v3.97m0 4v3.97m0 4v3.98m0 3.98v4m0 3.97v4m0 3.97v4m0 3.97v4m0 3.98v3.98m0 4V428m0 4v3.97m0 4v3.97m0 4v3.98m0 3.98v4m0 3.97v4m0 3.97v4m0 3.97v4m0 4v3.97m0 4v3.97m0 4v3.97m0 4v4m0 3.97v4m0 3.97v4m0 3.97v4m0 3.98v4m0 3.98v3.98m0 4v3.97m0 4v3.98m0 4v3.97m0 4v3.98m0 3.98v4m0 3.98v4m0 3.97v4m0 3.97v4m0 3.98v3.98m0 4v3.97m0 4v3.97m0 4v3.97m0 3.98v4m0 3.97v4m0 3.97v4m0 3.97v3.98m0 3.98v4m0 3.98v3.98m0 4v3.97m0 3.98v3.98m0 4v3.98m0 3.98v4m0 3.97v3.98m0 3.98v4m0 3.97v4m0 3.98v4m0 3.98v3.98m0 4v3.97m0 4v3.97m0 4v3.98m0 3.98v4m0 3.97v4m0 3.97v4m0 3.97v4m0 3.98v3.98m0 4v3.97m0 4v3.97m0 4v3.97m0 4v3.98m0 3.98v4m0 3.97v4m0 3.97v4m0 3.97v4m0 4v3.97m0 4v3.97m0 4v3.97m0 4v4m0 3.97v4m0 3.97v4m0 3.97v4m0 3.98v4m0 3.98v3.98m0 4V978m0 4v3.98m0 4v3.97m0 4v3.98m0 3.98v4m0 3.98v4m0 3.97v4m0 3.97v4m0 3.98v3.98m0 4v3.97m0 4v3.97m0 4v3.97m0 3.98v4m0 3.97v4m0 3.97v4m0 3.97v3.98m0 3.98v4m0 3.98v3.98m0 4v1.98" stroke="#333" fill="none"/><path d="M1700.5 290.5h-1v-.5h1z" fill="#333"/><path d="M1700 1119.5v.5" stroke="#333" fill="none"/><path d="M1683.62 780v1h-74.44v-1zm-203.12 1v-1h46.73v1zM1480.5 781h-.5v-1h.5zM1698.38 780.5l-14.26 4.63v-9.27z" fill="#333"/><path d="M1700 780.5l-16.38 5.32v-10.65zm-15.38 3.94l12.14-3.95-12.14-3.95z" fill="#333"/><use xlink:href="#p" transform="matrix(1,0,0,1,1527.2319441552004,769.6931074644643) translate(0.005000000000002558 14.4)"/><use xlink:href="#q" transform="matrix(1,0,0,1,1527.2319441552004,769.6931074644643) translate(62.955000000000005 14.4)"/><path d="M1160.5 756.04h303.12M1160.5 756.04h-.5" stroke="#333" fill="none"/><path d="M1478.38 756.04l-14.26 4.63v-9.27z" stroke="#333" fill="#333"/><use xlink:href="#r" transform="matrix(1,0,0,1,1307.99992837947,730.4391323689704) translate(0.005000000000000782 14.4)"/><path d="M100 225c0-2.76 2.24-5 5-5h150c2.76 0 5 2.24 5 5v60c0 2.76-2.24 5-5 5H105c-2.76 0-5-2.24-5-5z" stroke="#000" stroke-opacity="0" fill="#c7e8ac"/><use xlink:href="#s" transform="matrix(1,0,0,1,105,225) translate(56.05 33.15)"/><path d="M180 290.5v2m0 3.98v3.98m0 4v3.98m0 3.98v4m0 3.97v3.98m0 3.98v4m0 3.97v4m0 3.98v4m0 3.98v3.98m0 4v3.97m0 4v3.97m0 4v3.98m0 3.98v4m0 3.97v4m0 3.97v4m0 3.97v4m0 3.98v3.98m0 4V428m0 4v3.97m0 4v3.97m0 4v3.98m0 3.98v4m0 3.97v4m0 3.97v4m0 3.97v4m0 4v3.97m0 4v3.97m0 4v3.97m0 4v4m0 3.97v4m0 3.97v4m0 3.97v4m0 3.98v4m0 3.98v3.98m0 4v3.97m0 4v3.98m0 4v3.97m0 4v3.98m0 3.98v4m0 3.98v4m0 3.97v4m0 3.97v4m0 3.98v3.98m0 4v3.97m0 4v3.97m0 4v3.97m0 3.98v4m0 3.97v4m0 3.97v4m0 3.97v3.98m0 3.98v4m0 3.98v3.98m0 4v3.97m0 3.98v3.98m0 4v3.98m0 3.98v4m0 3.97v3.98m0 3.98v4m0 3.97v4m0 3.98v4m0 3.98v3.98m0 4v3.97m0 4v3.97m0 4v3.98m0 3.98v4m0 3.97v4m0 3.97v4m0 3.97v4m0 3.98v3.98m0 4v3.97m0 4v3.97m0 4v3.97m0 4v3.98m0 3.98v4m0 3.97v4m0 3.97v4m0 3.97v4m0 4v3.97m0 4v3.97m0 4v3.97m0 4v4m0 3.97v4m0 3.97v4m0 3.97v4m0 3.98v4m0 3.98v3.98m0 4V978m0 4v3.98m0 4v3.97m0 4v3.98m0 3.98v4m0 3.98v4m0 3.97v4m0 3.97v4m0 3.98v3.98m0 4v3.97m0 4v3.97m0 4v3.97m0 3.98v4m0 3.97v4m0 3.97v4m0 3.97v3.98m0 3.98v4m0 3.98v3.98m0 4v1.98" stroke="#333" fill="none"/><path d="M180.5 290.5h-1v-.5h1z" fill="#333"/><path d="M180 1119.5v.5" stroke="#333" fill="none"/><path d="M736.88 460.48H588.5v-2h148.38z" fill="#5e5e5e"/><path d="M737.88 460.48h-1.03v-2h1.02zM587.5 464.1l-14.26-4.62 14.26-4.64z" fill="#5e5e5e"/><path d="M588.5 465.5l-18.5-6.02 18.5-6.02zm-12.03-6.02l10.03 3.25v-6.5z" fill="#5e5e5e"/><use xlink:href="#t" transform="matrix(1,0,0,1,621.9128086419757,463.47570332480825) translate(0 14.222222222222223)"/><path d="M722.1 566.1H588.5v-2h133.6zm196.4 0H767.4v-2h151.1z" fill="#5e5e5e"/><path d="M919.5 566.1h-1.03v-2h1.03zM587.5 569.74l-14.26-4.64 14.26-4.63z" fill="#5e5e5e"/><path d="M588.5 571.1l-18.5-6 18.5-6zm-12.03-6l10.03 3.26v-6.52z" fill="#5e5e5e"/><use xlink:href="#u" transform="matrix(1,0,0,1,722.1080246913584,554.4356351236148) translate(0 14.222222222222223)"/><path d="M510.5 730h-269" stroke="#5e5e5e" stroke-width="2" fill="none"/><path d="M525.76 730l-14.26 4.64v-9.28z" stroke="#5e5e5e" stroke-width="2" fill="#5e5e5e"/><path d="M241.53 731h-1.03v-2h1.03z" fill="#5e5e5e"/><path d="M120 705c0-2.76 2.24-5 5-5h110c2.76 0 5 2.24 5 5v50c0 2.76-2.24 5-5 5H125c-2.76 0-5-2.24-5-5z" stroke="#000" fill="#fff"/><use xlink:href="#v" transform="matrix(1,0,0,1,125,705) translate(38 30.025)"/><path d="M120 1005c0-2.76 2.24-5 5-5h110c2.76 0 5 2.24 5 5v50c0 2.76-2.24 5-5 5H125c-2.76 0-5-2.24-5-5z" stroke="#000" fill="#fff"/><use xlink:href="#w" transform="matrix(1,0,0,1,125,1005) translate(28.049999999999997 30.025)"/><path d="M528 1031H259" stroke="#5e5e5e" stroke-width="2" fill="none"/><path d="M529 1032h-1.03v-2H529z" fill="#5e5e5e"/><path d="M243.74 1031l14.26-4.64v9.27z" stroke="#5e5e5e" stroke-width="2" fill="#5e5e5e"/><use xlink:href="#x" transform="matrix(1,0,0,1,334.4290123456799,1034.9910485933503) translate(0 14.222222222222223)"/><use xlink:href="#y" transform="matrix(1,0,0,1,334.4290123456799,1034.9910485933503) translate(81.87654320987656 14.222222222222223)"/><path d="M860 225c0-2.76 2.24-5 5-5h150c2.76 0 5 2.24 5 5v60c0 2.76-2.24 5-5 5H865c-2.76 0-5-2.24-5-5z" stroke="#000" stroke-opacity="0" fill="#2535a0"/><use xlink:href="#z" transform="matrix(1,0,0,1,864.9999999999991,225) translate(50.4 21.9)"/><use xlink:href="#A" transform="matrix(1,0,0,1,864.9999999999991,225) translate(2.625 43.5)"/><use xlink:href="#B" transform="matrix(1,0,0,1,864.9999999999991,225) translate(76.575 43.5)"/><path d="M940.5 1119.5h-1v-2h1zm0-5.98h-1v-3.98h1zm0-7.97h-1v-4h1zm0-7.97h-1v-4h1zm0-7.97h-1v-3.98h1zm0-7.96h-1v-4h1zm0-7.97h-1v-4h1zm0-7.98h-1v-4h1zm0-7.98h-1v-3.98h1zm0-7.97h-1v-3.98h1zm0-7.97h-1v-3.98h1zm0-7.97h-1v-3.98h1zm0-7.96h-1v-4h1zm0-7.97h-1v-4h1zm0-7.97h-1v-4h1zm0-7.97h-1v-4h1zm0-7.98h-1v-3.98h1zm0-7.97h-1V982h1zm0-7.97h-1v-3.97h1zm0-7.96h-1v-3.98h1zm0-7.97h-1v-4h1zm0-7.97h-1v-4h1zm0-7.97h-1v-4h1zm0-7.97h-1v-4h1zm0-7.97h-1v-4h1zm0-8h-1v-3.97h1zm0-7.96h-1v-3.98h1zm0-7.97h-1v-3.98h1zm0-7.97h-1v-4h1zm0-7.97h-1v-4h1zm0-7.97h-1v-4h1zm0-7.97h-1v-4h1zm0-7.98h-1v-4h1zm0-7.98h-1v-3.98h1zm0-7.97h-1v-3.98h1zm0-7.97h-1v-3.98h1zm0-7.97h-1v-3.98h1zm0-7.97h-1v-4h1zm0-7.97h-1v-4h1zm0-7.98h-1v-4h1zm0-7.97h-1v-4h1zm0-7.97h-1v-4h1zm0-7.98h-1v-3.98h1zm0-7.97h-1v-3.98h1zm0-7.97h-1v-3.98h1zm0-7.97h-1v-4h1zm0-7.98h-1v-4h1zm0-26.55h-1v-1.35h1zm0-5.33h-1v-4h1zm0-7.98h-1v-3.98h1zm0-7.97h-1v-4h1zm0-7.98h-1v-3.98h1zm0-7.97h-1v-4h1zm0-7.97h-1v-4h1zm0-7.97h-1v-3.98h1zm0-7.96h-1v-4h1zm0-7.97h-1v-4h1zm0-7.98h-1v-4h1zm0-7.98h-1v-3.98h1zm0-7.97h-1v-3.98h1zm0-7.97h-1v-3.98h1zm0-7.97h-1v-3.98h1zm0-7.96h-1v-4h1zm0-7.97h-1v-4h1zm0-7.97h-1v-4h1zm0-7.97h-1v-4h1zm0-7.98h-1v-3.98h1zm0-7.97h-1v-3.98h1zm0-7.97h-1v-3.97h1zm0-7.96h-1v-3.98h1zm0-7.97h-1v-4h1zm0-7.97h-1v-4h1zm0-7.97h-1v-4h1zm0-7.97h-1v-4h1zm0-7.97h-1v-4h1zm0-8h-1v-3.97h1zm0-7.96h-1v-3.98h1zm0-7.97h-1v-3.98h1zm0-7.97h-1v-4h1zm0-7.97h-1v-4h1zm0-7.97h-1v-4h1zm0-7.97h-1v-4h1zm0-7.98h-1v-4h1zm0-7.98h-1v-3.98h1zm0-7.97h-1V432h1zm0-7.97h-1v-3.98h1zm0-7.97h-1v-3.98h1zm0-7.97h-1v-4h1zm0-7.97h-1v-4h1zm0-7.98h-1v-4h1zm0-7.97h-1v-4h1zm0-7.97h-1v-4h1zm0-7.98h-1v-3.98h1zm0-7.97h-1v-3.98h1zm0-7.97h-1v-3.98h1zm0-7.97h-1v-4h1zm0-7.98h-1v-4h1zm0-7.97h-1v-4h1zm0-7.97h-1v-4h1zm0-7.97h-1v-3.98h1zm0-7.96h-1v-4h1zm0-7.98h-1v-3.98h1zm0-7.97h-1v-2h1z" fill="#333"/><path d="M940.5 290.5h-1v-.5h1zM940.5 1120h-1v-.5h1z" fill="#333"/><path d="M920 528c0-4.42 3.58-8 8-8h24c4.42 0 8 3.58 8 8v544c0 4.42-3.58 8-8 8h-24c-4.42 0-8-3.58-8-8z" stroke="#333" fill="#fff"/><path d="M1080 225c0-2.76 2.24-5 5-5h150c2.76 0 5 2.24 5 5v60c0 2.76-2.24 5-5 5h-150c-2.76 0-5-2.24-5-5z" stroke="#000" stroke-opacity="0" fill="#2535a0"/><use xlink:href="#C" transform="matrix(1,0,0,1,1084.999999999999,225) translate(41.05 21.9)"/><use xlink:href="#D" transform="matrix(1,0,0,1,1084.999999999999,225) translate(75 43.5)"/><path d="M1160 290.5v2m0 3.98v3.98m0 4v3.98m0 3.98v4m0 3.97v3.98m0 3.98v4m0 3.97v4m0 3.98v4m0 3.98v3.98m0 4v3.97m0 4v3.97m0 4v3.98m0 3.98v4m0 3.97v4m0 3.97v4m0 3.97v4m0 3.98v3.98m0 4V428m0 4v3.97m0 4v3.97m0 4v3.98m0 3.98v4m0 3.97v4m0 3.97v4m0 3.97v4m0 4v3.97m0 4v3.97m0 4v3.97m0 4v4m0 3.97v4m0 3.97v4m0 3.97v4m0 3.98v4m0 3.98v3.98m0 4v3.97m0 4v3.98m0 4v3.97m0 4v3.98m0 3.98v4m0 3.98v4m0 3.97v4m0 3.97v4m0 3.98v3.98m0 4v3.97m0 4v3.97m0 4v3.97m0 3.98v4m0 3.97v4m0 3.97v4m0 3.97v3.98m0 3.98v4m0 3.98v3.98m0 4v3.97m0 3.98v3.98m0 4v3.98m0 3.98v4m0 3.97v3.98m0 3.98v4m0 3.97v4m0 3.98v4m0 3.98v3.98m0 4v3.97m0 4v3.97m0 4v3.98m0 3.98v4m0 3.97v4m0 3.97v4m0 3.97v4m0 3.98v3.98m0 4v3.97m0 4v3.97m0 4v3.97m0 4v3.98m0 3.98v4m0 3.97v4m0 3.97v4m0 3.97v4m0 4v3.97m0 4v3.97m0 4v3.97m0 4v4m0 3.97v4m0 3.97v4m0 3.97v4m0 3.98v4m0 3.98v3.98m0 4V978m0 4v3.98m0 4v3.97m0 4v3.98m0 3.98v4m0 3.98v4m0 3.97v4m0 3.97v4m0 3.98v3.98m0 4v3.97m0 4v3.97m0 4v3.97m0 3.98v4m0 3.97v4m0 3.97v4m0 3.97v3.98m0 3.98v4m0 3.98v3.98m0 4v1.98" stroke="#333" fill="none"/><path d="M1160.5 290.5h-1v-.5h1z" fill="#333"/><path d="M1160 1119.5v.5" stroke="#333" fill="none"/><path d="M1140 608c0-4.42 3.58-8 8-8h24c4.42 0 8 3.58 8 8v464c0 4.42-3.58 8-8 8h-24c-4.42 0-8-3.58-8-8z" stroke="#333" fill="#fff"/><path d="M650.08 609.48H571v-2h79.08zm470.92 0H845.3v-2H1121z" fill="#5e5e5e"/><path d="M571.03 609.48H570v-2h1.03zM1136.26 608.48l-14.26 4.64v-9.27z" fill="#5e5e5e"/><path d="M1139.5 608.48l-18.5 6.02v-12.03zm-16.5 3.26l10.03-3.26-10.03-3.25z" fill="#5e5e5e"/><use xlink:href="#E" transform="matrix(1,0,0,1,650.0804837232802,597.8179880647913) translate(0 14.222222222222223)"/><path d="M800.98 656.64H588.5v-2h212.48zm337.52 0H864.14v-2h274.36z" fill="#5e5e5e"/><path d="M1139.5 656.64h-1.03v-2h1.03zM587.5 660.27l-14.26-4.63L587.5 651z" fill="#5e5e5e"/><path d="M588.5 661.65l-18.5-6 18.5-6.02zm-12.03-6l10.03 3.25v-6.52z" fill="#5e5e5e"/><use xlink:href="#F" transform="matrix(1,0,0,1,800.9836917053458,644.9727195225918) translate(0 14.222222222222223)"/><path d="M762.88 739.57H570.5v-1h192.38zm360.24 0h-176.5v-1h176.5zM570.5 739.57h-.5v-1h.5zM1137.88 739.07l-14.26 4.64v-9.26z" fill="#333"/><path d="M1139.5 739.07l-16.38 5.33v-10.65zm-15.38 3.95l12.14-3.95-12.14-3.95z" fill="#333"/><use xlink:href="#G" transform="matrix(1,0,0,1,762.8750000000005,728.2720308313276) translate(0.0049999999999954525 14.4)"/><path d="M833.12 860.35H571v-2h262.12zm287.88 0H876.38v-2H1121z" fill="#5e5e5e"/><path d="M571.03 860.35H570v-2h1.03zM1136.26 859.35l-14.26 4.63v-9.27z" fill="#5e5e5e"/><path d="M1139.5 859.35l-18.5 6v-12zm-16.5 3.26l10.03-3.25-10.03-3.26z" fill="#5e5e5e"/><use xlink:href="#H" transform="matrix(1,0,0,1,833.1203703703708,848.6811594202898) translate(0 14.222222222222223)"/><path d="M1247.85 873.55h-66.35v-2h66.35zm213.65 0h-48.85v-2h48.85z" fill="#5e5e5e"/><path d="M1181.53 873.55h-1.03v-2h1.03zM1476.76 872.55l-14.26 4.64v-9.3z" fill="#5e5e5e"/><path d="M1480 872.55l-18.5 6v-12zm-16.5 3.26l10.03-3.25-10.03-3.26z" fill="#5e5e5e"/><use xlink:href="#I" transform="matrix(1,0,0,1,1247.854938271604,861.8839842284744) translate(0 14.222222222222223)"/><use xlink:href="#J" transform="matrix(1,0,0,1,1247.854938271604,861.8839842284744) translate(86.81481481481481 14.222222222222223)"/><use xlink:href="#K" transform="matrix(1,0,0,1,1247.854938271604,861.8839842284744) translate(105.58024691358024 14.222222222222223)"/><path d="M1001.07 959.82h-414.7v-1h414.7zm698.43 0h-586.53v-1h586.53zM585.88 963.95l-14.26-4.63 14.26-4.64z" fill="#333"/><path d="M586.38 964.64L570 959.32l16.38-5.33zm-13.14-5.32l12.14 3.94v-7.9zM1700 959.82h-.5v-1h.5z" fill="#333"/><g><use xlink:href="#L" transform="matrix(1,0,0,1,1001.0704603580564,948.5158567774936) translate(0.005000000000002558 14.4)"/><use xlink:href="#q" transform="matrix(1,0,0,1,1001.0704603580564,948.5158567774936) translate(92.905 14.4)"/></g><path d="M984.02 815.43H586.4v-1h397.64zm495.48 0h-413.53v-1h413.53zM1480 815.43h-.5v-1h.5zM585.88 819.56l-14.26-4.63 14.26-4.64z" fill="#333"/><path d="M586.38 820.25L570 814.93l16.38-5.32zm-13.14-5.32l12.14 3.95v-7.9z" fill="#333"/><g><use xlink:href="#p" transform="matrix(1,0,0,1,984.0250000000004,804.1288277980349) translate(0.005000000000002558 14.4)"/><use xlink:href="#q" transform="matrix(1,0,0,1,984.0250000000004,804.1288277980349) translate(62.955000000000005 14.4)"/></g><path d="M1400 225c0-2.76 2.24-5 5-5h150c2.76 0 5 2.24 5 5v60c0 2.76-2.24 5-5 5h-150c-2.76 0-5-2.24-5-5z" stroke="#000" stroke-opacity="0" fill="#ff6b49"/><g><use xlink:href="#M" transform="matrix(1,0,0,1,1405,225.00000000000017) translate(31.599999999999994 33.15)"/><use xlink:href="#N" transform="matrix(1,0,0,1,1405,225.00000000000017) translate(82.55 33.15)"/></g><path d="M241.5 390h269" stroke="#5e5e5e" stroke-width="2" fill="none"/><path d="M241.53 391h-1.03v-2h1.03z" fill="#5e5e5e"/><path d="M525.76 390l-14.26 4.64v-9.28z" stroke="#5e5e5e" stroke-width="2" fill="#5e5e5e"/><defs><path fill="#fafafa" d="M30-248c87 1 191-15 191 75 0 78-77 80-158 76V0H30v-248zm33 125c57 0 124 11 124-50 0-59-68-47-124-48v98" id="O"/><path fill="#fafafa" d="M114-163C36-179 61-72 57 0H25l-1-190h30c1 12-1 29 2 39 6-27 23-49 58-41v29" id="P"/><path fill="#fafafa" d="M100-194c62-1 85 37 85 99 1 63-27 99-86 99S16-35 15-95c0-66 28-99 85-99zM99-20c44 1 53-31 53-75 0-43-8-75-51-75s-53 32-53 75 10 74 51 75" id="Q"/><path fill="#fafafa" d="M108 0H70L1-190h34L89-25l56-165h34" id="R"/><path fill="#fafafa" d="M24-231v-30h32v30H24zM24 0v-190h32V0H24" id="S"/><path fill="#fafafa" d="M85-194c31 0 48 13 60 33l-1-100h32l1 261h-30c-2-10 0-23-3-31C134-8 116 4 85 4 32 4 16-35 15-94c0-66 23-100 70-100zm9 24c-40 0-46 34-46 75 0 40 6 74 45 74 42 0 51-32 51-76 0-42-9-74-50-73" id="T"/><path fill="#fafafa" d="M100-194c63 0 86 42 84 106H49c0 40 14 67 53 68 26 1 43-12 49-29l28 8c-11 28-37 45-77 45C44 4 14-33 15-96c1-61 26-98 85-98zm52 81c6-60-76-77-97-28-3 7-6 17-6 28h103" id="U"/><g id="a"><use transform="matrix(0.05,0,0,0.05,0,0)" xlink:href="#O"/><use transform="matrix(0.05,0,0,0.05,12,0)" xlink:href="#P"/><use transform="matrix(0.05,0,0,0.05,17.95,0)" xlink:href="#Q"/><use transform="matrix(0.05,0,0,0.05,27.950000000000003,0)" xlink:href="#R"/><use transform="matrix(0.05,0,0,0.05,36.95,0)" xlink:href="#S"/><use transform="matrix(0.05,0,0,0.05,40.900000000000006,0)" xlink:href="#T"/><use transform="matrix(0.05,0,0,0.05,50.900000000000006,0)" xlink:href="#U"/><use transform="matrix(0.05,0,0,0.05,60.900000000000006,0)" xlink:href="#P"/><path fill="#fafafa" d="M-.9 1.25h68.65v1.32H-.9z"/></g><path fill="#fafafa" d="M117-194c89-4 53 116 60 194h-32v-121c0-31-8-49-39-48C34-167 62-67 57 0H25l-1-190h30c1 10-1 24 2 32 11-22 29-35 61-36" id="V"/><path fill="#fafafa" d="M141 0L90-78 38 0H4l68-98-65-92h35l48 74 47-74h35l-64 92 68 98h-35" id="W"/><path fill="#fafafa" d="M33 0v-38h34V0H33" id="X"/><path fill="#fafafa" d="M24-231v-30h32v30H24zM-9 49c24 4 33-6 33-30v-209h32V24c2 40-23 58-65 49V49" id="Y"/><path fill="#fafafa" d="M135-143c-3-34-86-38-87 0 15 53 115 12 119 90S17 21 10-45l28-5c4 36 97 45 98 0-10-56-113-15-118-90-4-57 82-63 122-42 12 7 21 19 24 35" id="Z"/><g id="b"><use transform="matrix(0.05,0,0,0.05,0,0)" xlink:href="#S"/><use transform="matrix(0.05,0,0,0.05,3.95,0)" xlink:href="#V"/><use transform="matrix(0.05,0,0,0.05,13.949999999999998,0)" xlink:href="#T"/><use transform="matrix(0.05,0,0,0.05,23.95,0)" xlink:href="#U"/><use transform="matrix(0.05,0,0,0.05,33.95,0)" xlink:href="#W"/><use transform="matrix(0.05,0,0,0.05,42.95,0)" xlink:href="#X"/><use transform="matrix(0.05,0,0,0.05,47.95,0)" xlink:href="#Y"/><use transform="matrix(0.05,0,0,0.05,51.900000000000006,0)" xlink:href="#Z"/><path fill="#fafafa" d="M-.9 1.25h62.7v1.32H-.9z"/></g><path fill="#333" d="M137 0h-34L2-248h35l83 218 83-218h36" id="aa"/><path fill="#333" d="M100-194c62-1 85 37 85 99 1 63-27 99-86 99S16-35 15-95c0-66 28-99 85-99zM99-20c44 1 53-31 53-75 0-43-8-75-51-75s-53 32-53 75 10 74 51 75" id="ab"/><path fill="#333" d="M59-47c-2 24 18 29 38 22v24C64 9 27 4 27-40v-127H5v-23h24l9-43h21v43h35v23H59v120" id="ac"/><path fill="#333" d="M141-36C126-15 110 5 73 4 37 3 15-17 15-53c-1-64 63-63 125-63 3-35-9-54-41-54-24 1-41 7-42 31l-33-3c5-37 33-52 76-52 45 0 72 20 72 64v82c-1 20 7 32 28 27v20c-31 9-61-2-59-35zM48-53c0 20 12 33 32 33 41-3 63-29 60-74-43 2-92-5-92 41" id="ad"/><path fill="#333" d="M115-194c53 0 69 39 70 98 0 66-23 100-70 100C84 3 66-7 56-30L54 0H23l1-261h32v101c10-23 28-34 59-34zm-8 174c40 0 45-34 45-75 0-40-5-75-45-74-42 0-51 32-51 76 0 43 10 73 51 73" id="ae"/><path fill="#333" d="M24 0v-261h32V0H24" id="af"/><path fill="#333" d="M100-194c63 0 86 42 84 106H49c0 40 14 67 53 68 26 1 43-12 49-29l28 8c-11 28-37 45-77 45C44 4 14-33 15-96c1-61 26-98 85-98zm52 81c6-60-76-77-97-28-3 7-6 17-6 28h103" id="ag"/><g id="c"><use transform="matrix(0.05,0,0,0.05,0,0)" xlink:href="#aa"/><use transform="matrix(0.05,0,0,0.05,11,0)" xlink:href="#ab"/><use transform="matrix(0.05,0,0,0.05,21,0)" xlink:href="#ac"/><use transform="matrix(0.05,0,0,0.05,26,0)" xlink:href="#ad"/><use transform="matrix(0.05,0,0,0.05,36,0)" xlink:href="#ae"/><use transform="matrix(0.05,0,0,0.05,46,0)" xlink:href="#af"/><use transform="matrix(0.05,0,0,0.05,49.95,0)" xlink:href="#ag"/></g><path fill="#333" d="M205 0l-28-72H64L36 0H1l101-248h38L239 0h-34zm-38-99l-47-123c-12 45-31 82-46 123h93" id="ah"/><path fill="#333" d="M115-194c55 1 70 41 70 98S169 2 115 4C84 4 66-9 55-30l1 105H24l-1-265h31l2 30c10-21 28-34 59-34zm-8 174c40 0 45-34 45-75s-6-73-45-74c-42 0-51 32-51 76 0 43 10 73 51 73" id="ai"/><g id="d"><use transform="matrix(0.05,0,0,0.05,0,0)" xlink:href="#ah"/><use transform="matrix(0.05,0,0,0.05,12,0)" xlink:href="#ai"/><use transform="matrix(0.05,0,0,0.05,22,0)" xlink:href="#ai"/></g><path fill="#333" d="M87 75C49 33 22-17 22-94c0-76 28-126 65-167h31c-38 41-64 92-64 168S80 34 118 75H87" id="aj"/><path fill="#333" d="M212-179c-10-28-35-45-73-45-59 0-87 40-87 99 0 60 29 101 89 101 43 0 62-24 78-52l27 14C228-24 195 4 139 4 59 4 22-46 18-125c-6-104 99-153 187-111 19 9 31 26 39 46" id="ak"/><path fill="#333" d="M24-231v-30h32v30H24zM24 0v-190h32V0H24" id="al"/><path fill="#333" d="M117-194c89-4 53 116 60 194h-32v-121c0-31-8-49-39-48C34-167 62-67 57 0H25l-1-190h30c1 10-1 24 2 32 11-22 29-35 61-36" id="am"/><path fill="#333" d="M33-261c38 41 65 92 65 168S71 34 33 75H2C39 34 66-17 66-93S39-220 2-261h31" id="an"/><g id="e"><use transform="matrix(0.05,0,0,0.05,0,0)" xlink:href="#aj"/><use transform="matrix(0.05,0,0,0.05,5.95,0)" xlink:href="#ak"/><use transform="matrix(0.05,0,0,0.05,18.900000000000002,0)" xlink:href="#af"/><use transform="matrix(0.05,0,0,0.05,22.85,0)" xlink:href="#al"/><use transform="matrix(0.05,0,0,0.05,26.8,0)" xlink:href="#ag"/><use transform="matrix(0.05,0,0,0.05,36.8,0)" xlink:href="#am"/><use transform="matrix(0.05,0,0,0.05,46.8,0)" xlink:href="#ac"/><use transform="matrix(0.05,0,0,0.05,51.79999999999999,0)" xlink:href="#an"/></g><path fill="#333" d="M106-169C34-169 62-67 57 0H25v-261h32l-1 103c12-21 28-36 61-36 89 0 53 116 60 194h-32v-121c2-32-8-49-39-48" id="ao"/><path fill="#333" d="M114-163C36-179 61-72 57 0H25l-1-190h30c1 12-1 29 2 39 6-27 23-49 58-41v29" id="ap"/><path fill="#333" d="M135-143c-3-34-86-38-87 0 15 53 115 12 119 90S17 21 10-45l28-5c4 36 97 45 98 0-10-56-113-15-118-90-4-57 82-63 122-42 12 7 21 19 24 35" id="aq"/><path fill="#333" d="M33 0v-38h34V0H33" id="ar"/><path fill="#333" d="M24-231v-30h32v30H24zM-9 49c24 4 33-6 33-30v-209h32V24c2 40-23 58-65 49V49" id="as"/><g id="f"><use transform="matrix(0.05,0,0,0.05,0,0)" xlink:href="#ag"/><use transform="matrix(0.05,0,0,0.05,10,0)" xlink:href="#ac"/><use transform="matrix(0.05,0,0,0.05,15,0)" xlink:href="#ao"/><use transform="matrix(0.05,0,0,0.05,25,0)" xlink:href="#ag"/><use transform="matrix(0.05,0,0,0.05,35,0)" xlink:href="#ap"/><use transform="matrix(0.05,0,0,0.05,40.95,0)" xlink:href="#aq"/><use transform="matrix(0.05,0,0,0.05,49.95,0)" xlink:href="#ar"/><use transform="matrix(0.05,0,0,0.05,54.95,0)" xlink:href="#as"/><use transform="matrix(0.05,0,0,0.05,58.900000000000006,0)" xlink:href="#aq"/></g><path fill="#333" d="M179-190L93 31C79 59 56 82 12 73V49c39 6 53-20 64-50L1-190h34L92-34l54-156h33" id="at"/><g id="g"><use transform="matrix(0.05,0,0,0.05,0,0)" xlink:href="#af"/><use transform="matrix(0.05,0,0,0.05,3.95,0)" xlink:href="#al"/><use transform="matrix(0.05,0,0,0.05,7.9,0)" xlink:href="#ae"/><use transform="matrix(0.05,0,0,0.05,17.9,0)" xlink:href="#ap"/><use transform="matrix(0.05,0,0,0.05,23.849999999999998,0)" xlink:href="#ad"/><use transform="matrix(0.05,0,0,0.05,33.849999999999994,0)" xlink:href="#ap"/><use transform="matrix(0.05,0,0,0.05,39.8,0)" xlink:href="#at"/></g><path fill="#333" d="M96-169c-40 0-48 33-48 73s9 75 48 75c24 0 41-14 43-38l32 2c-6 37-31 61-74 61-59 0-76-41-82-99-10-93 101-131 147-64 4 7 5 14 7 22l-32 3c-4-21-16-35-41-35" id="au"/><path fill="#333" d="M84 4C-5 8 30-112 23-190h32v120c0 31 7 50 39 49 72-2 45-101 50-169h31l1 190h-30c-1-10 1-25-2-33-11 22-28 36-60 37" id="av"/><g id="h"><use transform="matrix(0.05,0,0,0.05,0,0)" xlink:href="#ad"/><use transform="matrix(0.05,0,0,0.05,10,0)" xlink:href="#au"/><use transform="matrix(0.05,0,0,0.05,19,0)" xlink:href="#au"/><use transform="matrix(0.05,0,0,0.05,28,0)" xlink:href="#ab"/><use transform="matrix(0.05,0,0,0.05,38,0)" xlink:href="#av"/><use transform="matrix(0.05,0,0,0.05,48,0)" xlink:href="#am"/><use transform="matrix(0.05,0,0,0.05,58,0)" xlink:href="#ac"/><path fill="#333" d="M-.9 1.25h64.8v1.32H-.9z"/></g><path fill="#333" d="M39-94c74 12-11 154 75 146v23c-44 4-70-10-70-52C44-23 55-84 6-82v-22c81 4-7-162 84-157h24v23c-82-15-2 131-75 144" id="aw"/><path fill="#333" d="M85-194c31 0 48 13 60 33l-1-100h32l1 261h-30c-2-10 0-23-3-31C134-8 116 4 85 4 32 4 16-35 15-94c0-66 23-100 70-100zm9 24c-40 0-46 34-46 75 0 40 6 74 45 74 42 0 51-32 51-76 0-42-9-74-50-73" id="ax"/><path fill="#333" d="M68-38c1 34 0 65-14 84H32c9-13 17-26 17-46H33v-38h35" id="ay"/><path fill="#333" d="M108 0H70L1-190h34L89-25l56-165h34" id="az"/><path fill="#333" d="M194 0L95-120 63-95V0H30v-248h33v124l119-124h40L117-140 236 0h-42" id="aA"/><path fill="#333" d="M76-40C78 24 84 88 6 75V52C86 64 9-79 80-94c-40-6-34-59-34-106 1-29-11-41-40-38v-23c44-4 70 10 70 52 0 47-12 108 38 105v22c-26 1-39 14-38 42" id="aB"/><g id="i"><use transform="matrix(0.05,0,0,0.05,0,0)" xlink:href="#aw"/><use transform="matrix(0.05,0,0,0.05,6,0)" xlink:href="#ad"/><use transform="matrix(0.05,0,0,0.05,16,0)" xlink:href="#ax"/><use transform="matrix(0.05,0,0,0.05,26,0)" xlink:href="#ax"/><use transform="matrix(0.05,0,0,0.05,36,0)" xlink:href="#ap"/><use transform="matrix(0.05,0,0,0.05,40.95,0)" xlink:href="#ay"/><use transform="matrix(0.05,0,0,0.05,45.95,0)" xlink:href="#ai"/><use transform="matrix(0.05,0,0,0.05,55.95,0)" xlink:href="#az"/><use transform="matrix(0.05,0,0,0.05,64.95,0)" xlink:href="#ac"/><use transform="matrix(0.05,0,0,0.05,69.95,0)" xlink:href="#aA"/><use transform="matrix(0.05,0,0,0.05,81.95,0)" xlink:href="#ag"/><use transform="matrix(0.05,0,0,0.05,91.95,0)" xlink:href="#at"/><use transform="matrix(0.05,0,0,0.05,100.95,0)" xlink:href="#aB"/><path fill="#333" d="M-.9 1.25h108.75v1.32H-.9z"/></g><path fill="#333" d="M206 0h-36l-40-164L89 0H53L-1-190h32L70-26l43-164h34l41 164 42-164h31" id="aC"/><path fill="#333" d="M210-169c-67 3-38 105-44 169h-31v-121c0-29-5-50-35-48C34-165 62-65 56 0H25l-1-190h30c1 10-1 24 2 32 10-44 99-50 107 0 11-21 27-35 58-36 85-2 47 119 55 194h-31v-121c0-29-5-49-35-48" id="aD"/><path fill="#333" d="M143 0L79-87 56-68V0H24v-261h32v163l83-92h37l-77 82L181 0h-38" id="aE"/><g id="j"><use transform="matrix(0.05,0,0,0.05,0,0)" xlink:href="#am"/><use transform="matrix(0.05,0,0,0.05,10,0)" xlink:href="#ag"/><use transform="matrix(0.05,0,0,0.05,20,0)" xlink:href="#aC"/><use transform="matrix(0.05,0,0,0.05,32.95,0)" xlink:href="#aj"/><use transform="matrix(0.05,0,0,0.05,38.900000000000006,0)" xlink:href="#aD"/><use transform="matrix(0.05,0,0,0.05,53.85,0)" xlink:href="#ag"/><use transform="matrix(0.05,0,0,0.05,63.85,0)" xlink:href="#ac"/><use transform="matrix(0.05,0,0,0.05,68.85000000000001,0)" xlink:href="#ad"/><use transform="matrix(0.05,0,0,0.05,78.85000000000001,0)" xlink:href="#aD"/><use transform="matrix(0.05,0,0,0.05,93.80000000000001,0)" xlink:href="#ad"/><use transform="matrix(0.05,0,0,0.05,103.80000000000001,0)" xlink:href="#aq"/><use transform="matrix(0.05,0,0,0.05,112.80000000000001,0)" xlink:href="#aE"/><use transform="matrix(0.05,0,0,0.05,121.80000000000001,0)" xlink:href="#an"/></g><g id="k"><use transform="matrix(0.05,0,0,0.05,0,0)" xlink:href="#am"/><use transform="matrix(0.05,0,0,0.05,10,0)" xlink:href="#ag"/><use transform="matrix(0.05,0,0,0.05,20,0)" xlink:href="#aC"/><use transform="matrix(0.05,0,0,0.05,32.95,0)" xlink:href="#aj"/><use transform="matrix(0.05,0,0,0.05,38.900000000000006,0)" xlink:href="#ad"/><use transform="matrix(0.05,0,0,0.05,48.900000000000006,0)" xlink:href="#au"/><use transform="matrix(0.05,0,0,0.05,57.900000000000006,0)" xlink:href="#au"/><use transform="matrix(0.05,0,0,0.05,66.9,0)" xlink:href="#ab"/><use transform="matrix(0.05,0,0,0.05,76.9,0)" xlink:href="#av"/><use transform="matrix(0.05,0,0,0.05,86.9,0)" xlink:href="#am"/><use transform="matrix(0.05,0,0,0.05,96.9,0)" xlink:href="#ac"/><use transform="matrix(0.05,0,0,0.05,101.9,0)" xlink:href="#ay"/><use transform="matrix(0.05,0,0,0.05,106.9,0)" xlink:href="#ai"/><use transform="matrix(0.05,0,0,0.05,116.9,0)" xlink:href="#ap"/><use transform="matrix(0.05,0,0,0.05,122.85000000000001,0)" xlink:href="#ab"/><use transform="matrix(0.05,0,0,0.05,132.85000000000002,0)" xlink:href="#az"/><use transform="matrix(0.05,0,0,0.05,141.85000000000002,0)" xlink:href="#al"/><use transform="matrix(0.05,0,0,0.05,145.8,0)" xlink:href="#ax"/><use transform="matrix(0.05,0,0,0.05,155.8,0)" xlink:href="#ag"/><use transform="matrix(0.05,0,0,0.05,165.8,0)" xlink:href="#ap"/><use transform="matrix(0.05,0,0,0.05,171.75,0)" xlink:href="#an"/></g><path fill="#333" d="M177-190C167-65 218 103 67 71c-23-6-38-20-44-43l32-5c15 47 100 32 89-28v-30C133-14 115 1 83 1 29 1 15-40 15-95c0-56 16-97 71-98 29-1 48 16 59 35 1-10 0-23 2-32h30zM94-22c36 0 50-32 50-73 0-42-14-75-50-75-39 0-46 34-46 75s6 73 46 73" id="aF"/><g id="l"><use transform="matrix(0.07469135802469135,0,0,0.07469135802469135,0,0)" xlink:href="#aa"/><use transform="matrix(0.07469135802469135,0,0,0.07469135802469135,16.432098765432098,0)" xlink:href="#ab"/><use transform="matrix(0.07469135802469135,0,0,0.07469135802469135,31.370370370370367,0)" xlink:href="#ac"/><use transform="matrix(0.07469135802469135,0,0,0.07469135802469135,38.8395061728395,0)" xlink:href="#al"/><use transform="matrix(0.07469135802469135,0,0,0.07469135802469135,44.740123456790116,0)" xlink:href="#am"/><use transform="matrix(0.07469135802469135,0,0,0.07469135802469135,59.678395061728374,0)" xlink:href="#aF"/></g><g id="m"><use transform="matrix(0.07469135802469135,0,0,0.07469135802469135,0,0)" xlink:href="#ak"/><use transform="matrix(0.07469135802469135,0,0,0.07469135802469135,19.34506172839506,0)" xlink:href="#ab"/><use transform="matrix(0.07469135802469135,0,0,0.07469135802469135,34.28333333333333,0)" xlink:href="#am"/><use transform="matrix(0.07469135802469135,0,0,0.07469135802469135,49.2216049382716,0)" xlink:href="#ac"/><use transform="matrix(0.07469135802469135,0,0,0.07469135802469135,56.69074074074073,0)" xlink:href="#ap"/><use transform="matrix(0.07469135802469135,0,0,0.07469135802469135,65.579012345679,0)" xlink:href="#ad"/><use transform="matrix(0.07469135802469135,0,0,0.07469135802469135,80.51728395061727,0)" xlink:href="#au"/><use transform="matrix(0.07469135802469135,0,0,0.07469135802469135,93.96172839506171,0)" xlink:href="#ac"/></g><path fill="#333" d="M30 0v-248h187v28H63v79h144v27H63v87h162V0H30" id="aG"/><g id="n"><use transform="matrix(0.05,0,0,0.05,0,0)" xlink:href="#aG"/><use transform="matrix(0.05,0,0,0.05,12,0)" xlink:href="#ac"/><use transform="matrix(0.05,0,0,0.05,17,0)" xlink:href="#ao"/><use transform="matrix(0.05,0,0,0.05,27,0)" xlink:href="#ag"/><use transform="matrix(0.05,0,0,0.05,37,0)" xlink:href="#ap"/><use transform="matrix(0.05,0,0,0.05,42.95,0)" xlink:href="#ag"/><use transform="matrix(0.05,0,0,0.05,52.95,0)" xlink:href="#av"/><use transform="matrix(0.05,0,0,0.05,62.95,0)" xlink:href="#aD"/><path fill="#333" d="M-.9 1.25h79.7v1.32H-.9z"/></g><path fill="#333" d="M160-131c35 5 61 23 61 61C221 17 115-2 30 0v-248c76 3 177-17 177 60 0 33-19 50-47 57zm-97-11c50-1 110 9 110-42 0-47-63-36-110-37v79zm0 115c55-2 124 14 124-45 0-56-70-42-124-44v89" id="aH"/><g id="o"><use transform="matrix(0.05,0,0,0.05,0,0)" xlink:href="#aH"/><use transform="matrix(0.05,0,0,0.05,12,0)" xlink:href="#af"/><use transform="matrix(0.05,0,0,0.05,15.949999999999998,0)" xlink:href="#ab"/><use transform="matrix(0.05,0,0,0.05,25.950000000000003,0)" xlink:href="#au"/><use transform="matrix(0.05,0,0,0.05,34.95,0)" xlink:href="#aE"/><use transform="matrix(0.05,0,0,0.05,43.95,0)" xlink:href="#au"/><use transform="matrix(0.05,0,0,0.05,52.95,0)" xlink:href="#ao"/><use transform="matrix(0.05,0,0,0.05,62.95,0)" xlink:href="#ad"/><use transform="matrix(0.05,0,0,0.05,72.95,0)" xlink:href="#al"/><use transform="matrix(0.05,0,0,0.05,76.9,0)" xlink:href="#am"/><path fill="#333" d="M-.9 1.25h88.7v1.32H-.9z"/></g><path fill="#333" d="M26 75v-336h71v23H56V52h41v23H26" id="aI"/><g id="p"><use transform="matrix(0.05,0,0,0.05,0,0)" xlink:href="#aI"/><use transform="matrix(0.05,0,0,0.05,5,0)" xlink:href="#aq"/><use transform="matrix(0.05,0,0,0.05,14,0)" xlink:href="#al"/><use transform="matrix(0.05,0,0,0.05,17.95,0)" xlink:href="#aF"/><use transform="matrix(0.05,0,0,0.05,27.950000000000003,0)" xlink:href="#am"/><use transform="matrix(0.05,0,0,0.05,37.95,0)" xlink:href="#ag"/><use transform="matrix(0.05,0,0,0.05,47.95,0)" xlink:href="#ax"/></g><path fill="#333" d="M141 0L90-78 38 0H4l68-98-65-92h35l48 74 47-74h35l-64 92 68 98h-35" id="aJ"/><path fill="#333" d="M3 75V52h41v-290H3v-23h71V75H3" id="aK"/><g id="q"><use transform="matrix(0.05,0,0,0.05,0,0)" xlink:href="#ac"/><use transform="matrix(0.05,0,0,0.05,5,0)" xlink:href="#aJ"/><use transform="matrix(0.05,0,0,0.05,14,0)" xlink:href="#aK"/></g><g id="r"><use transform="matrix(0.05,0,0,0.05,0,0)" xlink:href="#aI"/><use transform="matrix(0.05,0,0,0.05,5,0)" xlink:href="#ac"/><use transform="matrix(0.05,0,0,0.05,10,0)" xlink:href="#aJ"/><use transform="matrix(0.05,0,0,0.05,19,0)" xlink:href="#aK"/></g><path fill="#333" d="M232-93c-1 65-40 97-104 97C67 4 28-28 28-90v-158h33c8 89-33 224 67 224 102 0 64-133 71-224h33v155" id="aL"/><g id="s"><use transform="matrix(0.05,0,0,0.05,0,0)" xlink:href="#aL"/><use transform="matrix(0.05,0,0,0.05,12.950000000000001,0)" xlink:href="#aq"/><use transform="matrix(0.05,0,0,0.05,21.950000000000003,0)" xlink:href="#ag"/><use transform="matrix(0.05,0,0,0.05,31.950000000000003,0)" xlink:href="#ap"/><path fill="#333" d="M-.9 1.25h39.7v1.32H-.9z"/></g><g id="t"><use transform="matrix(0.04938271604938272,0,0,0.04938271604938272,0,0)" xlink:href="#ai"/><use transform="matrix(0.04938271604938272,0,0,0.04938271604938272,9.876543209876544,0)" xlink:href="#ap"/><use transform="matrix(0.04938271604938272,0,0,0.04938271604938272,15.753086419753087,0)" xlink:href="#ab"/><use transform="matrix(0.04938271604938272,0,0,0.04938271604938272,25.629629629629633,0)" xlink:href="#az"/><use transform="matrix(0.04938271604938272,0,0,0.04938271604938272,34.51851851851852,0)" xlink:href="#al"/><use transform="matrix(0.04938271604938272,0,0,0.04938271604938272,38.41975308641975,0)" xlink:href="#ax"/><use transform="matrix(0.04938271604938272,0,0,0.04938271604938272,48.2962962962963,0)" xlink:href="#ag"/><use transform="matrix(0.04938271604938272,0,0,0.04938271604938272,58.17283950617284,0)" xlink:href="#ap"/></g><g id="u"><use transform="matrix(0.04938271604938272,0,0,0.04938271604938272,0,0)" xlink:href="#aC"/><use transform="matrix(0.04938271604938272,0,0,0.04938271604938272,12.790123456790125,0)" xlink:href="#ad"/><use transform="matrix(0.04938271604938272,0,0,0.04938271604938272,22.66666666666667,0)" xlink:href="#af"/><use transform="matrix(0.04938271604938272,0,0,0.04938271604938272,26.567901234567902,0)" xlink:href="#af"/><use transform="matrix(0.04938271604938272,0,0,0.04938271604938272,30.46913580246914,0)" xlink:href="#ag"/><use transform="matrix(0.04938271604938272,0,0,0.04938271604938272,40.345679012345684,0)" xlink:href="#ac"/></g><g id="v"><use transform="matrix(0.05,0,0,0.05,0,0)" xlink:href="#az"/><use transform="matrix(0.05,0,0,0.05,9,0)" xlink:href="#ab"/><use transform="matrix(0.05,0,0,0.05,19,0)" xlink:href="#ac"/><use transform="matrix(0.05,0,0,0.05,24,0)" xlink:href="#ag"/><path fill="#333" d="M-.9 1.25h35.8v1.32H-.9z"/></g><g id="w"><use transform="matrix(0.05,0,0,0.05,0,0)" xlink:href="#ap"/><use transform="matrix(0.05,0,0,0.05,5.95,0)" xlink:href="#ag"/><use transform="matrix(0.05,0,0,0.05,15.949999999999998,0)" xlink:href="#au"/><use transform="matrix(0.05,0,0,0.05,24.95,0)" xlink:href="#ag"/><use transform="matrix(0.05,0,0,0.05,34.95,0)" xlink:href="#al"/><use transform="matrix(0.05,0,0,0.05,38.900000000000006,0)" xlink:href="#ai"/><use transform="matrix(0.05,0,0,0.05,48.900000000000006,0)" xlink:href="#ac"/><path fill="#333" d="M-.9 1.25h55.7v1.32H-.9z"/></g><g id="x"><use transform="matrix(0.04938271604938272,0,0,0.04938271604938272,0,0)" xlink:href="#aI"/><use transform="matrix(0.04938271604938272,0,0,0.04938271604938272,4.938271604938272,0)" xlink:href="#au"/><use transform="matrix(0.04938271604938272,0,0,0.04938271604938272,13.827160493827162,0)" xlink:href="#ab"/><use transform="matrix(0.04938271604938272,0,0,0.04938271604938272,23.703703703703706,0)" xlink:href="#aD"/><use transform="matrix(0.04938271604938272,0,0,0.04938271604938272,38.46913580246914,0)" xlink:href="#ai"/><use transform="matrix(0.04938271604938272,0,0,0.04938271604938272,48.345679012345684,0)" xlink:href="#af"/><use transform="matrix(0.04938271604938272,0,0,0.04938271604938272,52.24691358024692,0)" xlink:href="#ac"/><use transform="matrix(0.04938271604938272,0,0,0.04938271604938272,57.18518518518519,0)" xlink:href="#ag"/><use transform="matrix(0.04938271604938272,0,0,0.04938271604938272,67.06172839506173,0)" xlink:href="#ax"/></g><g id="y"><use transform="matrix(0.04938271604938272,0,0,0.04938271604938272,0,0)" xlink:href="#ac"/><use transform="matrix(0.04938271604938272,0,0,0.04938271604938272,4.938271604938272,0)" xlink:href="#aJ"/><use transform="matrix(0.04938271604938272,0,0,0.04938271604938272,13.827160493827162,0)" xlink:href="#aK"/></g><path fill="#fafafa" d="M266 0h-40l-56-210L115 0H75L2-248h35L96-30l15-64 43-154h32l59 218 59-218h35" id="aM"/><path fill="#fafafa" d="M141-36C126-15 110 5 73 4 37 3 15-17 15-53c-1-64 63-63 125-63 3-35-9-54-41-54-24 1-41 7-42 31l-33-3c5-37 33-52 76-52 45 0 72 20 72 64v82c-1 20 7 32 28 27v20c-31 9-61-2-59-35zM48-53c0 20 12 33 32 33 41-3 63-29 60-74-43 2-92-5-92 41" id="aN"/><path fill="#fafafa" d="M24 0v-261h32V0H24" id="aO"/><path fill="#fafafa" d="M59-47c-2 24 18 29 38 22v24C64 9 27 4 27-40v-127H5v-23h24l9-43h21v43h35v23H59v120" id="aP"/><g id="z"><use transform="matrix(0.05,0,0,0.05,0,0)" xlink:href="#aM"/><use transform="matrix(0.05,0,0,0.05,16.3,0)" xlink:href="#aN"/><use transform="matrix(0.05,0,0,0.05,26.3,0)" xlink:href="#aO"/><use transform="matrix(0.05,0,0,0.05,30.25,0)" xlink:href="#aO"/><use transform="matrix(0.05,0,0,0.05,34.2,0)" xlink:href="#U"/><use transform="matrix(0.05,0,0,0.05,44.2,0)" xlink:href="#aP"/><path fill="#fafafa" d="M-.9 1.25h51v1.32h-51z"/></g><path fill="#fafafa" d="M87 75C49 33 22-17 22-94c0-76 28-126 65-167h31c-38 41-64 92-64 168S80 34 118 75H87" id="aQ"/><path fill="#fafafa" d="M96-169c-40 0-48 33-48 73s9 75 48 75c24 0 41-14 43-38l32 2c-6 37-31 61-74 61-59 0-76-41-82-99-10-93 101-131 147-64 4 7 5 14 7 22l-32 3c-4-21-16-35-41-35" id="aR"/><path fill="#fafafa" d="M84 4C-5 8 30-112 23-190h32v120c0 31 7 50 39 49 72-2 45-101 50-169h31l1 190h-30c-1-10 1-25-2-33-11 22-28 36-60 37" id="aS"/><g id="A"><use transform="matrix(0.05,0,0,0.05,0,0)" xlink:href="#aQ"/><use transform="matrix(0.05,0,0,0.05,5.95,0)" xlink:href="#aN"/><use transform="matrix(0.05,0,0,0.05,15.949999999999998,0)" xlink:href="#aR"/><use transform="matrix(0.05,0,0,0.05,24.95,0)" xlink:href="#aR"/><use transform="matrix(0.05,0,0,0.05,33.95,0)" xlink:href="#Q"/><use transform="matrix(0.05,0,0,0.05,43.95,0)" xlink:href="#aS"/><use transform="matrix(0.05,0,0,0.05,53.95,0)" xlink:href="#V"/><use transform="matrix(0.05,0,0,0.05,63.95,0)" xlink:href="#aP"/><path fill="#fafafa" d="M-.9 1.25h75.75v1.32H-.9z"/></g><path fill="#fafafa" d="M206 0h-36l-40-164L89 0H53L-1-190h32L70-26l43-164h34l41 164 42-164h31" id="aT"/><path fill="#fafafa" d="M115-194c55 1 70 41 70 98S169 2 115 4C84 4 66-9 55-30l1 105H24l-1-265h31l2 30c10-21 28-34 59-34zm-8 174c40 0 45-34 45-75s-6-73-45-74c-42 0-51 32-51 76 0 43 10 73 51 73" id="aU"/><path fill="#fafafa" d="M33-261c38 41 65 92 65 168S71 34 33 75H2C39 34 66-17 66-93S39-220 2-261h31" id="aV"/><g id="B"><use transform="matrix(0.05,0,0,0.05,0,0)" xlink:href="#aT"/><use transform="matrix(0.05,0,0,0.05,12.950000000000001,0)" xlink:href="#P"/><use transform="matrix(0.05,0,0,0.05,18.900000000000002,0)" xlink:href="#aN"/><use transform="matrix(0.05,0,0,0.05,28.900000000000002,0)" xlink:href="#aU"/><use transform="matrix(0.05,0,0,0.05,38.900000000000006,0)" xlink:href="#aU"/><use transform="matrix(0.05,0,0,0.05,48.900000000000006,0)" xlink:href="#U"/><use transform="matrix(0.05,0,0,0.05,58.900000000000006,0)" xlink:href="#P"/><use transform="matrix(0.05,0,0,0.05,64.85000000000001,0)" xlink:href="#aV"/><path fill="#fafafa" d="M-.9 1.25h72.6v1.32H-.9z"/></g><path fill="#fafafa" d="M212-179c-10-28-35-45-73-45-59 0-87 40-87 99 0 60 29 101 89 101 43 0 62-24 78-52l27 14C228-24 195 4 139 4 59 4 22-46 18-125c-6-104 99-153 187-111 19 9 31 26 39 46" id="aW"/><g id="C"><use transform="matrix(0.05,0,0,0.05,0,0)" xlink:href="#aW"/><use transform="matrix(0.05,0,0,0.05,12.950000000000001,0)" xlink:href="#Q"/><use transform="matrix(0.05,0,0,0.05,22.950000000000003,0)" xlink:href="#V"/><use transform="matrix(0.05,0,0,0.05,32.95,0)" xlink:href="#aP"/><use transform="matrix(0.05,0,0,0.05,37.95,0)" xlink:href="#P"/><use transform="matrix(0.05,0,0,0.05,43.900000000000006,0)" xlink:href="#aN"/><use transform="matrix(0.05,0,0,0.05,53.900000000000006,0)" xlink:href="#aR"/><use transform="matrix(0.05,0,0,0.05,62.900000000000006,0)" xlink:href="#aP"/><path fill="#fafafa" d="M-.9 1.25h69.7v1.32H-.9z"/></g><g id="E"><use transform="matrix(0.04938271604938272,0,0,0.04938271604938272,0,0)" xlink:href="#am"/><use transform="matrix(0.04938271604938272,0,0,0.04938271604938272,9.876543209876544,0)" xlink:href="#ag"/><use transform="matrix(0.04938271604938272,0,0,0.04938271604938272,19.75308641975309,0)" xlink:href="#aC"/><use transform="matrix(0.04938271604938272,0,0,0.04938271604938272,32.543209876543216,0)" xlink:href="#aj"/><use transform="matrix(0.04938271604938272,0,0,0.04938271604938272,38.41975308641976,0)" xlink:href="#ad"/><use transform="matrix(0.04938271604938272,0,0,0.04938271604938272,48.296296296296305,0)" xlink:href="#ae"/><use transform="matrix(0.04938271604938272,0,0,0.04938271604938272,58.17283950617284,0)" xlink:href="#al"/><use transform="matrix(0.04938271604938272,0,0,0.04938271604938272,62.074074074074076,0)" xlink:href="#ay"/><use transform="matrix(0.04938271604938272,0,0,0.04938271604938272,67.01234567901236,0)" xlink:href="#ae"/><use transform="matrix(0.04938271604938272,0,0,0.04938271604938272,76.8888888888889,0)" xlink:href="#at"/><use transform="matrix(0.04938271604938272,0,0,0.04938271604938272,85.77777777777779,0)" xlink:href="#ac"/><use transform="matrix(0.04938271604938272,0,0,0.04938271604938272,90.71604938271605,0)" xlink:href="#ag"/><use transform="matrix(0.04938271604938272,0,0,0.04938271604938272,100.5925925925926,0)" xlink:href="#au"/><use transform="matrix(0.04938271604938272,0,0,0.04938271604938272,109.4814814814815,0)" xlink:href="#ab"/><use transform="matrix(0.04938271604938272,0,0,0.04938271604938272,119.35802469135804,0)" xlink:href="#ax"/><use transform="matrix(0.04938271604938272,0,0,0.04938271604938272,129.23456790123458,0)" xlink:href="#ag"/><use transform="matrix(0.04938271604938272,0,0,0.04938271604938272,139.11111111111114,0)" xlink:href="#ay"/><use transform="matrix(0.04938271604938272,0,0,0.04938271604938272,144.04938271604942,0)" xlink:href="#aC"/><use transform="matrix(0.04938271604938272,0,0,0.04938271604938272,156.83950617283955,0)" xlink:href="#ad"/><use transform="matrix(0.04938271604938272,0,0,0.04938271604938272,166.7160493827161,0)" xlink:href="#af"/><use transform="matrix(0.04938271604938272,0,0,0.04938271604938272,170.61728395061735,0)" xlink:href="#af"/><use transform="matrix(0.04938271604938272,0,0,0.04938271604938272,174.5185185185186,0)" xlink:href="#ag"/><use transform="matrix(0.04938271604938272,0,0,0.04938271604938272,184.39506172839515,0)" xlink:href="#ac"/><use transform="matrix(0.04938271604938272,0,0,0.04938271604938272,189.33333333333343,0)" xlink:href="#an"/></g><g id="F"><use transform="matrix(0.04938271604938272,0,0,0.04938271604938272,0,0)" xlink:href="#au"/><use transform="matrix(0.04938271604938272,0,0,0.04938271604938272,8.88888888888889,0)" xlink:href="#ab"/><use transform="matrix(0.04938271604938272,0,0,0.04938271604938272,18.765432098765434,0)" xlink:href="#am"/><use transform="matrix(0.04938271604938272,0,0,0.04938271604938272,28.641975308641978,0)" xlink:href="#ac"/><use transform="matrix(0.04938271604938272,0,0,0.04938271604938272,33.580246913580254,0)" xlink:href="#ap"/><use transform="matrix(0.04938271604938272,0,0,0.04938271604938272,39.4567901234568,0)" xlink:href="#ad"/><use transform="matrix(0.04938271604938272,0,0,0.04938271604938272,49.33333333333334,0)" xlink:href="#au"/><use transform="matrix(0.04938271604938272,0,0,0.04938271604938272,58.22222222222223,0)" xlink:href="#ac"/></g><g id="G"><use transform="matrix(0.05,0,0,0.05,0,0)" xlink:href="#au"/><use transform="matrix(0.05,0,0,0.05,9,0)" xlink:href="#ab"/><use transform="matrix(0.05,0,0,0.05,19,0)" xlink:href="#am"/><use transform="matrix(0.05,0,0,0.05,29,0)" xlink:href="#ac"/><use transform="matrix(0.05,0,0,0.05,34,0)" xlink:href="#ap"/><use transform="matrix(0.05,0,0,0.05,39.95,0)" xlink:href="#ad"/><use transform="matrix(0.05,0,0,0.05,49.95,0)" xlink:href="#au"/><use transform="matrix(0.05,0,0,0.05,58.95,0)" xlink:href="#ac"/><use transform="matrix(0.05,0,0,0.05,63.95,0)" xlink:href="#ar"/><use transform="matrix(0.05,0,0,0.05,68.95,0)" xlink:href="#az"/><use transform="matrix(0.05,0,0,0.05,77.95,0)" xlink:href="#ab"/><use transform="matrix(0.05,0,0,0.05,87.95,0)" xlink:href="#ac"/><use transform="matrix(0.05,0,0,0.05,92.95,0)" xlink:href="#ag"/><use transform="matrix(0.05,0,0,0.05,102.95,0)" xlink:href="#aj"/><use transform="matrix(0.05,0,0,0.05,108.9,0)" xlink:href="#ai"/><use transform="matrix(0.05,0,0,0.05,118.9,0)" xlink:href="#ap"/><use transform="matrix(0.05,0,0,0.05,124.85000000000001,0)" xlink:href="#ab"/><use transform="matrix(0.05,0,0,0.05,134.85000000000002,0)" xlink:href="#ai"/><use transform="matrix(0.05,0,0,0.05,144.85000000000002,0)" xlink:href="#ab"/><use transform="matrix(0.05,0,0,0.05,154.85000000000002,0)" xlink:href="#aq"/><use transform="matrix(0.05,0,0,0.05,163.85000000000002,0)" xlink:href="#ad"/><use transform="matrix(0.05,0,0,0.05,173.85000000000002,0)" xlink:href="#af"/><use transform="matrix(0.05,0,0,0.05,177.8,0)" xlink:href="#an"/></g><g id="H"><use transform="matrix(0.04938271604938272,0,0,0.04938271604938272,0,0)" xlink:href="#aC"/><use transform="matrix(0.04938271604938272,0,0,0.04938271604938272,12.790123456790125,0)" xlink:href="#ad"/><use transform="matrix(0.04938271604938272,0,0,0.04938271604938272,22.66666666666667,0)" xlink:href="#al"/><use transform="matrix(0.04938271604938272,0,0,0.04938271604938272,26.567901234567902,0)" xlink:href="#ac"/><use transform="matrix(0.04938271604938272,0,0,0.04938271604938272,31.506172839506174,0)" xlink:href="#aj"/><use transform="matrix(0.04938271604938272,0,0,0.04938271604938272,37.38271604938272,0)" xlink:href="#an"/></g><g id="I"><use transform="matrix(0.04938271604938272,0,0,0.04938271604938272,0,0)" xlink:href="#au"/><use transform="matrix(0.04938271604938272,0,0,0.04938271604938272,8.88888888888889,0)" xlink:href="#ab"/><use transform="matrix(0.04938271604938272,0,0,0.04938271604938272,18.765432098765434,0)" xlink:href="#aD"/><use transform="matrix(0.04938271604938272,0,0,0.04938271604938272,33.53086419753087,0)" xlink:href="#ai"/><use transform="matrix(0.04938271604938272,0,0,0.04938271604938272,43.40740740740741,0)" xlink:href="#af"/><use transform="matrix(0.04938271604938272,0,0,0.04938271604938272,47.308641975308646,0)" xlink:href="#ag"/><use transform="matrix(0.04938271604938272,0,0,0.04938271604938272,57.18518518518519,0)" xlink:href="#ac"/><use transform="matrix(0.04938271604938272,0,0,0.04938271604938272,62.12345679012346,0)" xlink:href="#ag"/><use transform="matrix(0.04938271604938272,0,0,0.04938271604938272,72,0)" xlink:href="#ax"/></g><g id="J"><use transform="matrix(0.04938271604938272,0,0,0.04938271604938272,0,0)" xlink:href="#ac"/><use transform="matrix(0.04938271604938272,0,0,0.04938271604938272,4.938271604938272,0)" xlink:href="#aJ"/></g><path fill="#333" d="M145-31C134-9 116 4 85 4 32 4 16-35 15-94c0-59 17-99 70-100 32-1 48 14 60 33 0-11-1-24 2-32h30l-1 268h-32zM93-21c41 0 51-33 51-76s-8-73-50-73c-40 0-46 35-46 75s5 74 45 74" id="aX"/><g id="K"><use transform="matrix(0.04938271604938272,0,0,0.04938271604938272,0,0)" xlink:href="#ap"/><use transform="matrix(0.04938271604938272,0,0,0.04938271604938272,5.8765432098765435,0)" xlink:href="#ag"/><use transform="matrix(0.04938271604938272,0,0,0.04938271604938272,15.753086419753087,0)" xlink:href="#aX"/><use transform="matrix(0.04938271604938272,0,0,0.04938271604938272,25.629629629629633,0)" xlink:href="#av"/><use transform="matrix(0.04938271604938272,0,0,0.04938271604938272,35.50617283950618,0)" xlink:href="#ag"/><use transform="matrix(0.04938271604938272,0,0,0.04938271604938272,45.38271604938272,0)" xlink:href="#aq"/><use transform="matrix(0.04938271604938272,0,0,0.04938271604938272,54.27160493827161,0)" xlink:href="#ac"/></g><g id="L"><use transform="matrix(0.05,0,0,0.05,0,0)" xlink:href="#aI"/><use transform="matrix(0.05,0,0,0.05,5,0)" xlink:href="#au"/><use transform="matrix(0.05,0,0,0.05,14,0)" xlink:href="#ab"/><use transform="matrix(0.05,0,0,0.05,24,0)" xlink:href="#aD"/><use transform="matrix(0.05,0,0,0.05,38.95,0)" xlink:href="#ai"/><use transform="matrix(0.05,0,0,0.05,48.95,0)" xlink:href="#af"/><use transform="matrix(0.05,0,0,0.05,52.900000000000006,0)" xlink:href="#ag"/><use transform="matrix(0.05,0,0,0.05,62.900000000000006,0)" xlink:href="#ac"/><use transform="matrix(0.05,0,0,0.05,67.9,0)" xlink:href="#ag"/><use transform="matrix(0.05,0,0,0.05,77.9,0)" xlink:href="#ax"/></g><path fill="#333" d="M33 0v-248h34V0H33" id="aY"/><path fill="#333" d="M101-234c-31-9-42 10-38 44h38v23H63V0H32v-167H5v-23h27c-7-52 17-82 69-68v24" id="aZ"/><g id="M"><use transform="matrix(0.05,0,0,0.05,0,0)" xlink:href="#aY"/><use transform="matrix(0.05,0,0,0.05,5,0)" xlink:href="#am"/><use transform="matrix(0.05,0,0,0.05,15,0)" xlink:href="#aZ"/><use transform="matrix(0.05,0,0,0.05,20,0)" xlink:href="#av"/><use transform="matrix(0.05,0,0,0.05,30,0)" xlink:href="#ap"/><use transform="matrix(0.05,0,0,0.05,35.95,0)" xlink:href="#ad"/><path fill="#333" d="M-.9 1.25h52.75v1.32H-.9z"/></g><g id="N"><use transform="matrix(0.05,0,0,0.05,0,0)" xlink:href="#aj"/><use transform="matrix(0.05,0,0,0.05,5.95,0)" xlink:href="#ad"/><use transform="matrix(0.05,0,0,0.05,15.949999999999998,0)" xlink:href="#ai"/><use transform="matrix(0.05,0,0,0.05,25.950000000000003,0)" xlink:href="#al"/><use transform="matrix(0.05,0,0,0.05,29.899999999999995,0)" xlink:href="#an"/><path fill="#333" d="M-.9 1.25h37.65v1.32H-.9z"/></g></defs></g></svg>